<svg width="1216" height="440" viewBox="0 0 1216 440" fill="none" xmlns="http://www.w3.org/2000/svg">
<g clip-path="url(#clip0_23_3040)">
<rect width="1216" height="440" rx="12" fill="url(#paint0_linear_23_3040)"/>
<path d="M954.024 -648.171C957.112 -648.802 960.411 -649.434 961.394 -649.574C962.376 -649.714 967.43 -649.925 972.624 -649.995C979.432 -649.995 983.924 -649.644 988.416 -648.732C991.925 -648.03 997.259 -646.417 1000.35 -645.084C1003.44 -643.821 1008.21 -641.295 1010.88 -639.4C1013.54 -637.576 1017.47 -634.629 1019.58 -632.735C1021.68 -630.91 1025.69 -626.349 1028.42 -622.701C1031.23 -619.052 1037.69 -610.212 1042.81 -603.055C1047.86 -595.898 1056.71 -583.128 1062.39 -574.638C1068.15 -566.148 1077.2 -552.115 1082.61 -543.414C1088.01 -534.714 1096.36 -520.821 1101.21 -512.542C1106.05 -504.262 1113 -492.053 1116.65 -485.528C1120.37 -479.003 1128.51 -464.268 1134.76 -452.901C1141.07 -441.535 1152.09 -421.748 1159.32 -409.048C1166.55 -396.348 1178.62 -375.299 1186.13 -362.388C1193.64 -349.478 1209.93 -321.693 1222.28 -300.643C1234.63 -279.594 1254.29 -245.984 1266.01 -225.917C1277.66 -205.85 1295.63 -175.258 1305.87 -157.857C1316.12 -140.526 1339 -101.795 1356.76 -71.9048C1374.52 -42.0145 1399.22 -0.336487 1411.65 20.7131C1424.07 41.7626 1443.09 74.1087 1453.9 92.6323C1463.38 108.89 1477.47 133.201 1487.37 150.291L1491.24 156.974C1500.92 173.883 1508.85 188.057 1508.85 188.408C1508.85 188.758 1508.64 189.109 1508.29 189.109C1508.01 189.109 1502.26 188.478 1495.52 187.776C1488.78 187.004 1476.15 185.811 1467.44 185.11C1455.09 184.128 1443.72 183.847 1415.51 183.847C1393.47 183.847 1374.45 184.198 1366.73 184.759C1359.78 185.25 1348.9 186.092 1342.51 186.654C1336.12 187.285 1323.21 188.688 1313.73 189.881C1304.26 191.074 1289.87 193.109 1281.8 194.442C1273.73 195.775 1262.01 197.81 1255.83 199.003C1249.65 200.195 1238.14 202.581 1230.21 204.265C1222.28 206.019 1209.01 209.177 1200.73 211.211C1192.45 213.316 1179.33 216.754 1171.6 218.929C1163.88 221.105 1150.48 225.034 1141.78 227.7C1133.07 230.366 1118.4 235.138 1109.14 238.295C1099.87 241.382 1084.57 246.855 1075.1 250.293C1065.62 253.802 1049.2 260.116 1038.6 264.326C1028 268.606 1010.59 275.763 999.997 280.324C989.398 284.885 973.115 292.041 963.85 296.251L962.643 296.809C953.284 301.132 938.668 307.884 929.458 312.319C919.843 316.88 899.629 326.843 884.538 334.421C869.448 341.999 848.322 352.805 837.513 358.558C826.704 364.241 812.526 371.959 805.929 375.608C799.403 379.217 790.887 384.061 786.763 386.407L786.627 386.484C782.556 388.799 773.432 394.132 766.273 398.412C759.114 402.692 746.971 410.059 739.251 414.901C731.53 419.742 718.756 427.951 710.825 433.143C702.894 438.336 690.892 446.405 684.154 451.036C677.416 455.737 666.817 463.174 660.641 467.595C654.464 472.015 641.971 481.207 632.917 488.083C623.863 494.889 610.106 505.484 602.385 511.588C594.665 517.763 582.312 527.796 575.012 533.971C567.713 540.075 555.5 550.46 547.99 557.055C540.48 563.651 530.092 572.983 524.828 577.754C519.634 582.525 506.72 594.664 496.192 604.767C485.664 614.871 468.398 632.062 457.87 643.078C447.342 654.093 434.918 667.214 430.356 672.196C425.794 677.248 418.354 685.387 413.932 690.369C409.511 695.35 405.299 699.701 404.597 699.981C403.966 700.332 402.351 700.613 401.088 700.613C399.825 700.683 398.351 700.122 397.649 699.42C397.017 698.718 396.315 697.385 396.035 696.403C395.754 695.14 397.579 689.457 402.702 676.055C406.633 665.811 421.021 628.132 434.778 592.208C448.465 556.283 476.68 482.259 497.455 427.671C518.231 373.082 551.5 285.446 571.363 232.962C591.226 180.479 621.125 101.543 637.69 57.5497C654.324 13.5562 683.732 -64.6077 703.104 -116.109C722.476 -167.61 752.937 -248.791 770.835 -296.433C788.733 -344.075 805.788 -388.42 808.736 -395.015C811.684 -401.611 816.457 -412.767 819.264 -419.924C822.072 -427.081 827.406 -441.254 831.126 -451.498C834.776 -461.742 843.058 -484.616 849.445 -502.368C855.902 -520.12 863.552 -540.818 866.43 -548.326C869.378 -555.834 873.8 -566.569 876.256 -572.182C878.713 -577.795 882.714 -586.005 885.03 -590.425C887.346 -594.845 890.575 -600.529 892.119 -603.055C893.733 -605.581 897.102 -610.422 899.629 -613.93C902.155 -617.439 906.437 -622.42 909.174 -625.157C911.841 -627.893 916.123 -631.612 918.579 -633.506C921.106 -635.331 925.598 -638.137 928.616 -639.611C931.564 -641.154 937.249 -643.4 941.18 -644.733C945.18 -645.996 950.936 -647.61 954.024 -648.171Z" fill="white" fill-opacity="0.24"/>
<path d="M1373.76 215.703C1379.51 215.282 1389.48 214.721 1395.87 214.37C1402.25 214.089 1426.89 213.879 1450.61 214.019C1474.34 214.159 1498.55 214.65 1504.31 215.001C1510.13 215.422 1518.27 215.984 1530.07 216.826L1532.73 222.088C1534.21 224.965 1537.44 232.122 1539.96 237.875C1542.42 243.629 1546.56 253.943 1549.09 260.679C1551.61 267.415 1555.12 277.729 1556.95 283.482C1558.77 289.236 1561.58 299.41 1563.26 305.935C1564.95 312.461 1567.27 322.424 1568.46 328.037C1569.58 333.65 1571.34 343.403 1572.32 349.788C1573.3 356.173 1574.56 365.926 1575.2 371.54C1575.76 377.153 1576.53 387.257 1576.95 393.992C1577.3 400.728 1577.65 411.323 1577.65 417.498C1577.65 423.672 1577.3 434.407 1576.95 441.354C1576.53 448.3 1575.55 459.667 1574.78 466.613C1574 473.56 1572.46 484.786 1571.27 491.522C1570.14 498.258 1568.04 508.853 1566.7 515.027C1565.3 521.202 1562.77 531.165 1561.02 537.129C1559.33 543.093 1556.53 552.285 1554.77 557.477C1553.02 562.669 1550.35 570.107 1548.88 573.966C1547.4 577.825 1544.24 585.543 1541.86 591.156C1539.47 596.77 1534.07 608.136 1529.86 616.416C1525.71 624.695 1519.54 636.062 1516.17 641.675C1512.87 647.288 1506.9 656.62 1503.04 662.374C1499.18 668.127 1492.66 677.319 1488.59 682.722C1484.51 688.124 1478.13 696.193 1474.48 700.614C1470.76 705.034 1464.09 712.612 1459.6 717.453C1455.18 722.295 1447.32 730.294 1442.12 735.346C1436.93 740.397 1430.61 746.291 1428.15 748.466C1425.63 750.712 1423.24 752.466 1422.89 752.536C1422.54 752.536 1416.99 742.502 1410.61 730.294C1404.22 718.085 1391.52 693.527 1382.32 675.775C1373.13 657.953 1350.25 612.627 1331.44 575.018C1312.63 537.41 1290.94 493.627 1283.22 477.84C1275.57 462.053 1263.63 437.214 1256.69 422.76L1256.5 422.362C1249.59 407.858 1238.02 383.535 1230.79 368.031C1223.42 352.384 1209.52 322.564 1199.97 301.725C1190.36 280.886 1182.57 263.766 1182.64 263.766C1182.78 263.696 1184.11 262.994 1185.66 262.222C1187.2 261.451 1193.52 258.714 1199.69 256.118C1205.87 253.522 1215.91 249.522 1221.94 247.277C1228.05 244.962 1239.14 241.243 1246.51 238.928C1253.95 236.542 1267 232.963 1275.5 230.788C1283.99 228.683 1296.62 225.877 1303.57 224.544C1310.52 223.211 1321.89 221.386 1328.84 220.404C1335.79 219.422 1346.39 218.159 1352.35 217.597C1358.32 216.966 1367.93 216.124 1373.76 215.703Z" fill="white" fill-opacity="0.24"/>
</g>
<defs>
<linearGradient id="paint0_linear_23_3040" x1="-28" y1="3.29546e-06" x2="2902.24" y2="1040.87" gradientUnits="userSpaceOnUse">
<stop stop-color="#FCEEEB"/>
<stop offset="1" stop-color="#FFC7C6"/>
</linearGradient>
<clipPath id="clip0_23_3040">
<rect width="1216" height="440" rx="12" fill="white"/>
</clipPath>
</defs>
</svg>
