<svg width="386" height="217" viewBox="0 0 386 217" fill="none" xmlns="http://www.w3.org/2000/svg">
<g clip-path="url(#clip0_413_15440)">
<rect width="386" height="217" rx="8" fill="url(#paint0_linear_413_15440)"/>
<path d="M411.965 -279.892C413.298 -280.165 414.723 -280.437 415.147 -280.498C415.572 -280.559 417.754 -280.649 419.997 -280.68C422.936 -280.68 424.876 -280.528 426.816 -280.134C428.331 -279.831 430.635 -279.134 431.968 -278.559C433.302 -278.013 435.363 -276.923 436.515 -276.105C437.666 -275.317 439.363 -274.044 440.273 -273.226C441.182 -272.438 442.91 -270.469 444.092 -268.894C445.304 -267.318 448.092 -263.5 450.305 -260.41C452.487 -257.32 456.306 -251.805 458.761 -248.139C461.246 -244.473 465.156 -238.413 467.489 -234.656C469.823 -230.899 473.43 -224.9 475.521 -221.325C477.612 -217.75 480.613 -212.478 482.189 -209.66C483.795 -206.842 487.311 -200.479 490.008 -195.571C492.736 -190.663 497.495 -182.118 500.616 -176.634C503.738 -171.15 508.951 -162.061 512.194 -156.486C515.437 -150.911 522.469 -138.913 527.803 -129.823C533.137 -120.734 541.623 -106.221 546.685 -97.5552C551.716 -88.8898 559.475 -75.6796 563.9 -68.1656C568.325 -60.6818 578.205 -43.957 585.873 -31.0498C593.541 -18.1427 604.21 -0.145279 609.574 8.94429C614.939 18.0339 623.152 32.0015 627.82 40.0003C631.909 47.0092 637.977 57.4842 642.251 64.8618L643.944 67.7841C648.126 75.086 651.551 81.2063 651.551 81.3578C651.551 81.5093 651.46 81.6608 651.309 81.6608C651.187 81.6608 648.702 81.3881 645.792 81.0852C642.883 80.7519 637.427 80.2368 633.669 79.9338C628.335 79.5096 623.425 79.3884 611.241 79.3884C601.724 79.3884 593.511 79.5399 590.177 79.7823C587.176 79.9944 582.479 80.358 579.721 80.6004C576.963 80.8731 571.386 81.479 567.294 81.9941C563.203 82.5092 556.99 83.3878 553.504 83.9635C550.019 84.5392 544.957 85.4178 542.29 85.9329C539.623 86.448 534.652 87.4781 531.228 88.2053C527.803 88.9628 522.074 90.3262 518.498 91.2049C514.922 92.1138 509.254 93.5985 505.92 94.5377C502.586 95.477 496.797 97.1737 493.039 98.325C489.281 99.4764 482.947 101.537 478.946 102.9C474.945 104.233 468.338 106.597 464.246 108.081C460.155 109.596 453.063 112.323 448.486 114.141C443.91 115.989 436.393 119.08 431.817 121.049C427.24 123.018 420.209 126.109 416.208 127.927L415.679 128.171C411.637 130.038 405.331 132.951 401.357 134.865C397.205 136.835 388.476 141.137 381.96 144.409C375.444 147.681 366.321 152.347 361.653 154.832C356.986 157.286 350.864 160.619 348.015 162.194C345.199 163.752 341.525 165.841 339.742 166.855L339.68 166.891C337.922 167.891 333.982 170.193 330.891 172.041C327.799 173.89 322.556 177.071 319.222 179.162C315.888 181.252 310.372 184.797 306.947 187.039C303.522 189.281 298.34 192.766 295.43 194.765C292.52 196.795 287.944 200.007 285.277 201.916C282.61 203.825 277.215 207.794 273.305 210.763C269.395 213.702 263.455 218.277 260.121 220.913C256.787 223.579 251.453 227.912 248.301 230.578C245.149 233.214 239.875 237.698 236.632 240.546C233.389 243.395 228.904 247.424 226.63 249.485C224.388 251.545 218.811 256.787 214.265 261.15C209.718 265.512 202.263 272.936 197.716 277.693C193.17 282.449 187.806 288.115 185.836 290.266C183.866 292.448 180.653 295.963 178.744 298.114C176.834 300.265 175.016 302.143 174.713 302.265C174.44 302.416 173.743 302.537 173.197 302.537C172.652 302.568 172.015 302.325 171.712 302.022C171.439 301.719 171.136 301.144 171.015 300.719C170.894 300.174 171.682 297.72 173.894 291.933C175.591 287.509 181.805 271.239 187.745 255.726C193.655 240.213 205.839 208.248 214.81 184.676C223.781 161.104 238.148 123.261 246.725 100.597C255.302 77.9341 268.213 43.8482 275.366 24.851C282.549 5.85384 295.248 -27.8988 303.613 -50.1379C311.978 -72.3771 325.132 -107.433 332.861 -128.005C340.589 -148.578 347.954 -167.727 349.227 -170.575C350.5 -173.423 352.561 -178.24 353.773 -181.331C354.986 -184.421 357.289 -190.541 358.895 -194.965C360.471 -199.389 364.048 -209.266 366.806 -216.932C369.594 -224.597 372.898 -233.535 374.14 -236.777C375.413 -240.019 377.323 -244.655 378.383 -247.079C379.444 -249.502 381.172 -253.047 382.172 -254.956C383.172 -256.865 384.566 -259.319 385.233 -260.41C385.93 -261.501 387.385 -263.591 388.476 -265.106C389.567 -266.621 391.416 -268.772 392.598 -269.954C393.75 -271.136 395.598 -272.741 396.659 -273.56C397.75 -274.347 399.69 -275.559 400.993 -276.196C402.266 -276.862 404.721 -277.832 406.419 -278.407C408.146 -278.953 410.631 -279.65 411.965 -279.892Z" fill="white" fill-opacity="0.24"/>
</g>
<defs>
<linearGradient id="paint0_linear_413_15440" x1="-8.88816" y1="1.62526e-06" x2="986.599" y2="227.603" gradientUnits="userSpaceOnUse">
<stop stop-color="#FCEEEB"/>
<stop offset="1" stop-color="#FFC7C6"/>
</linearGradient>
<clipPath id="clip0_413_15440">
<rect width="386" height="217" rx="8" fill="white"/>
</clipPath>
</defs>
</svg>
