<svg width="19" height="19" viewBox="0 0 19 19" fill="none" xmlns="http://www.w3.org/2000/svg">
<path d="M11.3913 9.05809C11.1828 9.05809 11.006 8.98631 10.8608 8.84275C10.7147 8.6992 10.6416 8.52345 10.6416 8.3155C10.6416 8.10756 10.7136 7.93075 10.8577 7.78509C11.0018 7.63942 11.1775 7.56659 11.3849 7.56659C11.5923 7.56659 11.7692 7.63837 11.9153 7.78192C12.0615 7.92548 12.1344 8.10123 12.1338 8.30917C12.1333 8.51712 12.0615 8.69392 11.9185 8.83959C11.7755 8.98525 11.5997 9.05809 11.3913 9.05809ZM7.61501 9.05809C7.40707 9.05809 7.23026 8.98631 7.0846 8.84275C6.93893 8.6992 6.8661 8.52345 6.8661 8.3155C6.8661 8.10756 6.93787 7.93075 7.08143 7.78509C7.22498 7.63942 7.401 7.56659 7.60947 7.56659C7.81794 7.56659 7.99475 7.63837 8.13989 7.78192C8.28503 7.92548 8.35786 8.10123 8.35839 8.30917C8.35891 8.51712 8.28714 8.69392 8.14305 8.83959C7.99897 8.98525 7.82296 9.05809 7.61501 9.05809ZM9.49997 12.8494C8.86083 12.8494 8.27447 12.69 7.74089 12.3712C7.2073 12.0524 6.77875 11.6231 6.45522 11.0832H12.5447C12.2212 11.6231 11.7926 12.0524 11.2591 12.3712C10.726 12.69 10.1396 12.8494 9.49997 12.8494ZM9.50076 15.8332C8.62254 15.8332 7.79921 15.668 7.03076 15.3376C6.26232 15.0072 5.59178 14.5549 5.01914 13.9807C4.4465 13.4064 3.99419 12.7362 3.66222 11.9698C3.33025 11.2035 3.16505 10.3802 3.16664 9.49984C3.16822 8.6195 3.33341 7.79617 3.66222 7.02984C3.99103 6.2635 4.44333 5.59323 5.01914 5.019C5.59494 4.44478 6.26522 3.99248 7.02997 3.66209C7.79472 3.3317 8.61805 3.1665 9.49997 3.1665C10.3819 3.1665 11.2052 3.3317 11.97 3.66209C12.7347 3.99248 13.405 4.44478 13.9808 5.019C14.5566 5.59323 15.0087 6.2635 15.3369 7.02984C15.6652 7.79617 15.8307 8.6195 15.8333 9.49984C15.8359 10.3802 15.6707 11.2035 15.3377 11.9698C15.0047 12.7362 14.5524 13.407 13.9808 13.9823C13.4092 14.5575 12.7389 15.0096 11.97 15.3384C11.201 15.6672 10.3777 15.8321 9.49997 15.8332M9.49997 15.0415C11.0305 15.0415 12.3368 14.5005 13.4187 13.4186C14.5007 12.3366 15.0416 11.0304 15.0416 9.49984C15.0416 7.96928 14.5007 6.66303 13.4187 5.58109C12.3368 4.49914 11.0305 3.95817 9.49997 3.95817C9.35642 3.95817 9.21312 3.96345 9.0701 3.974C8.92654 3.98403 8.78985 4.00224 8.66001 4.02863C8.62148 4.12785 8.59905 4.21362 8.59272 4.28592C8.58639 4.3577 8.58322 4.44636 8.58322 4.55192C8.58322 4.8897 8.70435 5.17971 8.9466 5.42196C9.18885 5.66421 9.48044 5.78534 9.82139 5.78534C9.96758 5.78534 10.0824 5.76555 10.1658 5.72596C10.2497 5.68638 10.3444 5.66659 10.45 5.66659C10.5386 5.66659 10.6125 5.70168 10.6716 5.77188C10.7307 5.84207 10.7603 5.92441 10.7603 6.01888C10.7603 6.19885 10.6592 6.32156 10.4571 6.387C10.2544 6.45245 10.0409 6.48517 9.81664 6.48517C9.28358 6.48517 8.82811 6.29623 8.45022 5.91834C8.07233 5.54045 7.88339 5.08498 7.88339 4.55192V4.39042C7.88339 4.34239 7.895 4.27853 7.91822 4.19884C6.77242 4.53398 5.82611 5.18262 5.0793 6.14475C4.3325 7.10689 3.95883 8.22525 3.9583 9.49984C3.9583 11.0304 4.49928 12.3366 5.58122 13.4186C6.66317 14.5005 7.96942 15.0415 9.49997 15.0415Z" fill="#001414"/>
</svg>
