<svg width="117" height="42" viewBox="0 0 117 42" fill="none" xmlns="http://www.w3.org/2000/svg">
<path d="M51.7432 14.5502C51.7617 14.3122 51.9603 14.1285 52.199 14.1285H53.5305C53.7829 14.1285 53.9876 14.3332 53.9876 14.5856V26.7011C53.9876 26.9536 53.7829 27.1583 53.5305 27.1583H52.114C51.8774 27.1583 51.6799 26.9777 51.6587 26.742L51.6221 26.3347C51.5812 25.8805 50.8903 25.7133 50.5665 26.0346C49.6289 26.9647 48.3224 27.5047 46.7666 27.5047C42.9296 27.5047 40.718 24.5203 40.718 20.5501C40.718 16.5532 43.1161 13.7554 46.8465 13.7554C48.2438 13.7554 49.589 14.1983 50.5633 15.1023C50.9093 15.4233 51.6899 15.2356 51.7265 14.7652L51.7432 14.5502ZM51.4296 20.6567C51.4296 17.9388 49.8842 16.047 47.3262 16.047C44.7682 16.047 43.2494 17.9655 43.2494 20.6567C43.2494 23.3213 44.7415 25.2398 47.2995 25.2398C49.8575 25.2398 51.4296 23.3479 51.4296 20.6567Z" fill="black"/>
<path d="M60.1578 26.7011C60.1578 26.9536 59.9531 27.1583 59.7006 27.1583H58.1102C57.8578 27.1583 57.6531 26.9536 57.6531 26.7011V8.00413C57.6531 7.75165 57.8578 7.54697 58.1102 7.54697H59.7006C59.9531 7.54697 60.1578 7.75165 60.1578 8.00413V26.7011Z" fill="black"/>
<path d="M67.522 26.7011C67.522 26.9536 67.3173 27.1583 67.0649 27.1583H65.4745C65.222 27.1583 65.0173 26.9536 65.0173 26.7011V16.6907C65.0173 16.4382 64.8126 16.2335 64.5602 16.2335H62.9165C62.664 16.2335 62.4593 16.0288 62.4593 15.7763V14.5856C62.4593 14.3332 62.664 14.1285 62.9165 14.1285H64.5602C64.8126 14.1285 65.0173 13.9238 65.0173 13.6713V10.5088C65.0173 10.2564 65.222 10.0517 65.4745 10.0517H67.0649C67.3173 10.0517 67.522 10.2564 67.522 10.5088V13.6713C67.522 13.9238 67.7267 14.1285 67.9792 14.1285H69.6229C69.8753 14.1285 70.08 14.3332 70.08 14.5856V15.7763C70.08 16.0288 69.8753 16.2335 69.6229 16.2335H67.9792C67.7267 16.2335 67.522 16.4382 67.522 16.6907V26.7011Z" fill="black"/>
<path d="M82.5004 14.5502C82.5189 14.3122 82.7174 14.1285 82.9561 14.1285H84.2876C84.5401 14.1285 84.7448 14.3332 84.7448 14.5856V26.7011C84.7448 26.9536 84.5401 27.1583 84.2876 27.1583H82.8711C82.6345 27.1583 82.437 26.9777 82.4158 26.742L82.3792 26.3347C82.3384 25.8805 81.6474 25.7133 81.3236 26.0346C80.386 26.9647 79.0795 27.5047 77.5238 27.5047C73.6868 27.5047 71.4752 24.5203 71.4752 20.5501C71.4752 16.5532 73.8733 13.7554 77.6037 13.7554C79.001 13.7554 80.3462 14.1983 81.3205 15.1023C81.6664 15.4233 82.4471 15.2356 82.4836 14.7651L82.5004 14.5502ZM82.1868 20.6567C82.1868 17.9388 80.6413 16.047 78.0833 16.047C75.5253 16.047 74.0065 17.9655 74.0065 20.6567C74.0065 23.3213 75.4987 25.2398 78.0567 25.2398C80.6147 25.2398 82.1868 23.3479 82.1868 20.6567Z" fill="black"/>
<path d="M95.4537 13.9509C95.6666 13.9883 95.8178 14.1767 95.8178 14.3928V15.8563C95.8178 16.1088 95.6131 16.3134 95.3606 16.3134H94.6986C92.3272 16.3134 90.8616 17.7523 90.8616 20.257V26.7011C90.8616 26.9536 90.657 27.1583 90.4045 27.1583H88.8141C88.5616 27.1583 88.3569 26.9536 88.3569 26.7011V14.6123C88.3569 14.3598 88.5616 14.1551 88.8141 14.1551H90.354C90.5504 14.1551 90.714 14.306 90.7299 14.5018C90.7622 14.9003 91.485 15.0661 91.7848 14.8015C92.4533 14.2113 93.3769 13.862 94.4855 13.862C94.8232 13.862 95.1165 13.8916 95.4537 13.9509Z" fill="black"/>
<path d="M99.3927 11.0376C98.4867 11.0376 97.7406 10.2915 97.7406 9.38553C97.7406 8.45293 98.4867 7.73349 99.3927 7.73349C100.299 7.73349 101.045 8.45293 101.045 9.38553C101.045 10.2915 100.299 11.0376 99.3927 11.0376ZM98.6241 27.1583C98.3716 27.1583 98.167 26.9536 98.167 26.7011V14.5856C98.167 14.3332 98.3716 14.1285 98.6241 14.1285H100.215C100.467 14.1285 100.672 14.3332 100.672 14.5856V26.7011C100.672 26.9536 100.467 27.1583 100.215 27.1583H98.6241Z" fill="black"/>
<path d="M114.481 14.5502C114.499 14.3122 114.698 14.1285 114.936 14.1285H116.268C116.52 14.1285 116.725 14.3332 116.725 14.5856V26.7011C116.725 26.9536 116.52 27.1583 116.268 27.1583H114.851C114.615 27.1583 114.417 26.9777 114.396 26.742L114.359 26.3347C114.319 25.8805 113.628 25.7133 113.304 26.0345C112.366 26.9647 111.06 27.5047 109.504 27.5047C105.667 27.5047 103.455 24.5203 103.455 20.5501C103.455 16.5532 105.853 13.7554 109.584 13.7554C110.981 13.7554 112.326 14.1983 113.301 15.1023C113.647 15.4233 114.427 15.2356 114.464 14.7651L114.481 14.5502ZM114.167 20.6567C114.167 17.9388 112.621 16.047 110.063 16.047C107.505 16.047 105.987 17.9655 105.987 20.6567C105.987 23.3213 107.479 25.2398 110.037 25.2398C112.595 25.2398 114.167 23.3479 114.167 20.6567Z" fill="black"/>
<path d="M106.19 34.297C106.19 34.3691 106.132 34.4276 106.06 34.4276H105.763C105.691 34.4276 105.633 34.3691 105.633 34.297V30.4435C105.633 30.3713 105.691 30.3129 105.763 30.3129H106.06C106.132 30.3129 106.19 30.3713 106.19 30.4435V31.9522C106.19 32.0243 106.249 32.0828 106.321 32.0828H108.097C108.169 32.0828 108.228 32.0243 108.228 31.9522V30.4435C108.228 30.3713 108.286 30.3129 108.358 30.3129H108.655C108.727 30.3129 108.785 30.3713 108.785 30.4435V34.297C108.785 34.3691 108.727 34.4276 108.655 34.4276H108.358C108.286 34.4276 108.228 34.3691 108.228 34.297V32.7313C108.228 32.6592 108.169 32.6007 108.097 32.6007H106.321C106.249 32.6007 106.19 32.6592 106.19 32.7313V34.297Z" fill="black"/>
<path d="M109.711 32.965V30.4435C109.711 30.3713 109.77 30.3129 109.842 30.3129H110.138C110.211 30.3129 110.269 30.3713 110.269 30.4435V32.9308C110.269 33.591 110.633 33.9552 111.288 33.9552C111.937 33.9552 112.295 33.5853 112.295 32.9308V30.4435C112.295 30.3713 112.354 30.3129 112.426 30.3129H112.728C112.8 30.3129 112.858 30.3713 112.858 30.4435V32.965C112.858 33.9097 112.255 34.4959 111.288 34.4959C110.315 34.4959 109.711 33.9154 109.711 32.965Z" fill="black"/>
<path d="M113.916 34.4276C113.844 34.4276 113.786 34.3691 113.786 34.297V30.4435C113.786 30.3713 113.844 30.3129 113.916 30.3129H115.357C116.159 30.3129 116.648 30.7226 116.648 31.3999C116.648 31.7376 116.544 31.9968 116.334 32.1795C116.243 32.2592 116.251 32.4465 116.349 32.5174C116.596 32.6959 116.722 32.9695 116.722 33.3292C116.722 34.0121 116.227 34.4276 115.413 34.4276H113.916ZM115.322 30.808H114.474C114.402 30.808 114.344 30.8665 114.344 30.9386V31.9977C114.344 32.0699 114.402 32.1284 114.474 32.1284H115.357C115.818 32.1284 116.079 31.8779 116.079 31.4511C116.079 31.0413 115.806 30.808 115.322 30.808ZM115.402 32.6121H114.474C114.402 32.6121 114.344 32.6706 114.344 32.7427V33.8018C114.344 33.874 114.402 33.9325 114.474 33.9325H115.402C115.88 33.9325 116.148 33.6877 116.148 33.2609C116.148 32.8511 115.874 32.6121 115.402 32.6121Z" fill="black"/>
<path d="M16.0581 0.872356C16.147 0.854184 16.2419 0.836012 16.2702 0.831973C16.2985 0.827935 16.4439 0.821878 16.5934 0.819859C16.7893 0.819859 16.9186 0.829954 17.0478 0.856203C17.1488 0.876394 17.3023 0.922834 17.3912 0.961198C17.4801 0.997542 17.6174 1.07023 17.6941 1.12475C17.7709 1.17725 17.884 1.26205 17.9446 1.31657C18.0052 1.36906 18.1203 1.50031 18.1991 1.6053C18.2799 1.7103 18.4657 1.96471 18.6131 2.17066C18.7586 2.37661 19.0131 2.74409 19.1767 2.98841C19.3423 3.23273 19.6028 3.63655 19.7584 3.88692C19.9139 4.1373 20.1542 4.53709 20.2936 4.77534C20.433 5.0136 20.6329 5.36493 20.738 5.55271C20.845 5.74049 21.0793 6.16451 21.2591 6.49161C21.4408 6.81871 21.7579 7.38811 21.966 7.75357C22.174 8.11903 22.5214 8.72477 22.7375 9.09629C22.9536 9.46781 23.4222 10.2674 23.7777 10.8731C24.1332 11.4789 24.6987 12.446 25.036 13.0235C25.3713 13.601 25.8884 14.4813 26.1833 14.9821C26.4782 15.4808 27.1366 16.5954 27.6476 17.4555C28.1586 18.3157 28.8696 19.515 29.2271 20.1208C29.5846 20.7265 30.1319 21.6573 30.443 22.1904C30.7155 22.6574 31.1198 23.3554 31.4046 23.847L31.5175 24.0419C31.7962 24.5285 32.0245 24.9364 32.0245 24.9465C32.0245 24.9566 32.0184 24.9667 32.0083 24.9667C32.0002 24.9667 31.8346 24.9485 31.6407 24.9283C31.4468 24.9061 31.0832 24.8718 30.8328 24.8516C30.4773 24.8233 30.1501 24.8153 29.3382 24.8153C28.7039 24.8153 28.1566 24.8254 27.9344 24.8415C27.7345 24.8556 27.4214 24.8799 27.2376 24.896C27.0538 24.9142 26.6821 24.9546 26.4095 24.9889C26.1368 25.0232 25.7228 25.0818 25.4905 25.1202C25.2582 25.1585 24.9209 25.2171 24.7432 25.2514C24.5654 25.2857 24.2342 25.3544 24.0059 25.4028C23.7777 25.4533 23.396 25.5442 23.1576 25.6027C22.9193 25.6633 22.5416 25.7622 22.3194 25.8248C22.0973 25.8874 21.7115 26.0005 21.461 26.0772C21.2106 26.1539 20.7884 26.2913 20.5218 26.3821C20.2552 26.471 19.8149 26.6284 19.5422 26.7274C19.2696 26.8283 18.7969 27.0101 18.492 27.1312C18.187 27.2544 17.6861 27.4603 17.3811 27.5916C17.0761 27.7228 16.6075 27.9288 16.3409 28.0499L16.306 28.066C16.0367 28.1904 15.6162 28.3847 15.3512 28.5123C15.0745 28.6435 14.4928 28.9303 14.0586 29.1483C13.6243 29.3664 13.0164 29.6773 12.7053 29.8429C12.3943 30.0065 11.9863 30.2286 11.7964 30.3336C11.6088 30.4373 11.364 30.5766 11.2452 30.6441L11.241 30.6465C11.1238 30.7132 10.8612 30.8666 10.6552 30.9898C10.4492 31.1129 10.0998 31.325 9.87762 31.4643C9.65545 31.6036 9.28785 31.8398 9.05961 31.9892C8.83138 32.1387 8.486 32.3709 8.2921 32.5041C8.0982 32.6394 7.79321 32.8534 7.61547 32.9806C7.43773 33.1079 7.07821 33.3724 6.81766 33.5702C6.55711 33.7661 6.16123 34.071 5.93906 34.2466C5.71688 34.4243 5.3614 34.7131 5.15135 34.8907C4.94129 35.0664 4.58985 35.3652 4.37373 35.555C4.15762 35.7448 3.85869 36.0134 3.70721 36.1507C3.55774 36.288 3.18611 36.6373 2.88314 36.9281C2.58017 37.2188 2.08331 37.7135 1.78034 38.0305C1.47738 38.3475 1.11988 38.7251 0.98859 38.8684C0.857305 39.0138 0.643209 39.248 0.515963 39.3914C0.388717 39.5348 0.26753 39.6599 0.247333 39.668C0.229155 39.6781 0.1827 39.6862 0.146344 39.6862C0.109988 39.6882 0.0675727 39.6721 0.0473749 39.6519C0.0291969 39.6317 0.00899918 39.5933 0.000920085 39.565C-0.00715902 39.5287 0.0453551 39.3652 0.192799 38.9795C0.305906 38.6847 0.71996 37.6004 1.11584 36.5666C1.50969 35.5328 2.32164 33.4026 2.9195 31.8318C3.51735 30.2609 4.47472 27.739 5.04632 26.2287C5.61791 24.7183 6.47834 22.4468 6.95501 21.1808C7.43369 19.9148 8.27998 17.6655 8.83744 16.1835C9.39489 14.7014 10.2715 12.3653 10.7865 10.9943C11.3016 9.62329 11.7924 8.34719 11.8772 8.1574C11.962 7.9676 12.0994 7.64655 12.1802 7.4406C12.261 7.23465 12.4145 6.82679 12.5215 6.53199C12.6265 6.2372 12.8649 5.57896 13.0487 5.06812C13.2345 4.55728 13.4546 3.96163 13.5375 3.74559C13.6223 3.52954 13.7495 3.22061 13.8202 3.05908C13.8909 2.89755 14.006 2.66131 14.0727 2.5341C14.1393 2.4069 14.2323 2.24335 14.2767 2.17066C14.3231 2.09797 14.4201 1.95865 14.4928 1.85769C14.5655 1.75674 14.6887 1.61338 14.7675 1.53463C14.8442 1.45589 14.9675 1.34887 15.0381 1.29436C15.1109 1.24186 15.2401 1.16109 15.327 1.11869C15.4118 1.07427 15.5754 1.00966 15.6885 0.971294C15.8036 0.934949 15.9693 0.888509 16.0581 0.872356Z" fill="#FF6642"/>
<path d="M28.1371 25.7322C28.3027 25.7201 28.5895 25.7039 28.7733 25.6938C28.9571 25.6857 29.666 25.6797 30.3487 25.6837C31.0314 25.6878 31.7282 25.7019 31.8938 25.712C32.0615 25.7241 32.2958 25.7402 32.6351 25.7645L32.7119 25.9159C32.7543 25.9987 32.8472 26.2046 32.9199 26.3702C32.9906 26.5358 33.1098 26.8326 33.1825 27.0264C33.2552 27.2203 33.3562 27.5171 33.4087 27.6827C33.4612 27.8482 33.542 28.141 33.5905 28.3288C33.6389 28.5166 33.7056 28.8033 33.7399 28.9648C33.7722 29.1263 33.8227 29.407 33.851 29.5907C33.8793 29.7745 33.9156 30.0551 33.9338 30.2167C33.95 30.3782 33.9722 30.669 33.9843 30.8628C33.9944 31.0566 34.0045 31.3615 34.0045 31.5392C34.0045 31.7169 33.9944 32.0258 33.9843 32.2257C33.9722 32.4256 33.9439 32.7527 33.9217 32.9526C33.8995 33.1525 33.8551 33.4756 33.8207 33.6694C33.7884 33.8632 33.7278 34.1681 33.6894 34.3458C33.649 34.5235 33.5763 34.8102 33.5258 34.9818C33.4774 35.1535 33.3966 35.418 33.3461 35.5674C33.2956 35.7168 33.2188 35.9308 33.1764 36.0419C33.134 36.1529 33.0431 36.375 32.9744 36.5366C32.9058 36.6981 32.7502 37.0252 32.629 37.2635C32.5099 37.5017 32.3321 37.8288 32.2352 37.9903C32.1403 38.1519 31.9686 38.4204 31.8575 38.586C31.7464 38.7516 31.5586 39.0161 31.4414 39.1715C31.3243 39.327 31.1405 39.5592 31.0354 39.6864C30.9284 39.8136 30.7365 40.0317 30.6073 40.171C30.48 40.3103 30.2538 40.5405 30.1043 40.6859C29.9549 40.8313 29.7731 41.0009 29.7024 41.0635C29.6297 41.1281 29.561 41.1786 29.5509 41.1806C29.5408 41.1806 29.3812 40.8918 29.1974 40.5405C29.0137 40.1892 28.6481 39.4825 28.3835 38.9716C28.1189 38.4588 27.4604 37.1544 26.9191 36.0722C26.3778 34.9899 25.7537 33.73 25.5316 33.2757C25.3114 32.8214 24.968 32.1066 24.7681 31.6906L24.7626 31.6792C24.564 31.2618 24.2309 30.5619 24.0228 30.1157C23.8107 29.6654 23.4108 28.8073 23.1361 28.2076C22.8594 27.6079 22.6352 27.1153 22.6372 27.1153C22.6413 27.1133 22.6796 27.0931 22.7241 27.0709C22.7685 27.0486 22.9503 26.9699 23.128 26.8952C23.3058 26.8205 23.5946 26.7054 23.7683 26.6408C23.944 26.5742 24.2631 26.4671 24.4752 26.4005C24.6893 26.3319 25.065 26.2289 25.3094 26.1663C25.5538 26.1057 25.9173 26.0249 26.1173 25.9866C26.3173 25.9482 26.6445 25.8957 26.8444 25.8675C27.0444 25.8392 27.3494 25.8028 27.521 25.7867C27.6927 25.7685 27.9694 25.7443 28.1371 25.7322Z" fill="#FF6642"/>
</svg>
