<svg width="10" height="10" viewBox="0 0 10 10" fill="none" xmlns="http://www.w3.org/2000/svg">
<path d="M1.13971 4.0575C1.1868 4.00917 1.36459 3.8025 1.5302 3.6325C2.50113 2.56333 5.03401 0.813333 6.35971 0.279167C6.56105 0.193333 7.07006 0.0116667 7.34202 0C7.60261 0 7.85103 0.06 8.08808 0.181667C8.38358 0.351667 8.62063 0.619167 8.75052 0.935C8.83414 1.15417 8.96403 1.81 8.96403 1.82167C9.09392 2.53917 9.16536 3.705 9.16536 4.99333C9.16536 6.22083 9.09392 7.33917 8.98758 8.0675C8.9754 8.07917 8.84551 8.89417 8.70344 9.17333C8.44284 9.68333 7.93383 10 7.3891 10H7.34202C6.98725 9.9875 6.24119 9.67083 6.24119 9.65917C4.98693 9.12417 2.5125 7.46 1.51802 6.35417C1.51802 6.35417 1.23794 6.07 1.11617 5.8925C0.926202 5.6375 0.832031 5.32167 0.832031 5.00583C0.832031 4.65333 0.93838 4.325 1.13971 4.0575Z" fill="black"/>
</svg>
