<svg width="13" height="12" viewBox="0 0 13 12" fill="none" xmlns="http://www.w3.org/2000/svg">
<path fillRule="evenodd" clipRule="evenodd" d="M-2.29526e-07 6.00076C-2.38221e-07 5.80185 0.0790175 5.61108 0.21967 5.47043C0.360322 5.32978 0.551087 5.25076 0.75 5.25076L9.4395 5.25076L6.219 2.03176C6.14927 1.96203 6.09395 1.87925 6.05621 1.78814C6.01848 1.69703 5.99905 1.59938 5.99905 1.50076C5.99905 1.40215 6.01848 1.3045 6.05621 1.21339C6.09395 1.12228 6.14927 1.03949 6.219 0.969762C6.28873 0.90003 6.37151 0.844715 6.46262 0.806977C6.55373 0.769238 6.65138 0.749815 6.75 0.749815C6.84862 0.749815 6.94627 0.769238 7.03737 0.806977C7.12848 0.844715 7.21127 0.90003 7.281 0.969762L11.781 5.46976C11.8508 5.53943 11.9063 5.62219 11.9441 5.71331C11.9819 5.80443 12.0013 5.90211 12.0013 6.00076C12.0013 6.09941 11.9819 6.19709 11.9441 6.28821C11.9063 6.37933 11.8508 6.46209 11.781 6.53176L7.281 11.0318C7.21127 11.1015 7.12848 11.1568 7.03738 11.1945C6.94627 11.2323 6.84862 11.2517 6.75 11.2517C6.65138 11.2517 6.55373 11.2323 6.46262 11.1945C6.37152 11.1568 6.28873 11.1015 6.219 11.0318C6.07817 10.8909 5.99905 10.6999 5.99905 10.5008C5.99905 10.4021 6.01848 10.3045 6.05621 10.2134C6.09395 10.1223 6.14927 10.0395 6.219 9.96976L9.4395 6.75076L0.75 6.75076C0.551087 6.75076 0.360322 6.67174 0.21967 6.53109C0.0790176 6.39044 -2.20831e-07 6.19967 -2.29526e-07 6.00076Z" fill="white"/>
</svg>
