<svg width="11" height="8" viewBox="0 0 11 8" fill="none" xmlns="http://www.w3.org/2000/svg">
<path d="M4.69525 7.70463C4.64885 7.65943 4.45045 7.48875 4.28725 7.32976C3.26085 6.39766 1.58085 3.9661 1.06805 2.69342C0.985649 2.50015 0.811249 2.0115 0.800049 1.75041C0.800049 1.50024 0.857649 1.26176 0.974449 1.03419C1.13765 0.750511 1.39445 0.522942 1.69765 0.398246C1.90805 0.317974 2.53765 0.193278 2.54885 0.193278C3.23765 0.0685826 4.35685 0 5.59365 0C6.77205 0 7.84565 0.0685826 8.54485 0.170677C8.55605 0.182367 9.33845 0.307063 9.60645 0.443449C10.096 0.693619 10.4 1.18227 10.4 1.70521V1.75041C10.388 2.09099 10.084 2.80721 10.0728 2.80721C9.55925 4.0113 7.96165 6.38675 6.90005 7.34145C6.90005 7.34145 6.62725 7.61033 6.45685 7.72723C6.21205 7.9096 5.90885 8 5.60565 8C5.26725 8 4.95205 7.89791 4.69525 7.70463Z" fill="#1D1F1F"/>
</svg>
