<svg width="19" height="18" viewBox="0 0 19 18" fill="none" xmlns="http://www.w3.org/2000/svg">
<path d="M11.0834 16.4165H7.91671C4.93133 16.4165 3.43825 16.4165 2.51121 15.4887C1.58337 14.5616 1.58337 13.0685 1.58337 10.0832V8.49984C1.58337 5.51446 1.58337 4.02138 2.51121 3.09434C3.43825 2.1665 4.93133 2.1665 7.91671 2.1665H11.0834C14.0687 2.1665 15.5618 2.1665 16.4889 3.09434C17.4167 4.02138 17.4167 5.51446 17.4167 8.49984V10.0832C17.4167 13.0685 17.4167 14.5616 16.4889 15.4887C15.9719 16.0064 15.2792 16.2352 14.25 16.3358M5.54171 2.1665V0.979004M13.4584 2.1665V0.979004M17.0209 6.12484H8.51046M1.58337 6.12484H4.65108" stroke="#494C50" stroke-width="1.1875" stroke-linecap="round"/>
<path d="M14.25 12.4583C14.25 12.6683 14.1666 12.8697 14.0181 13.0181C13.8697 13.1666 13.6683 13.25 13.4583 13.25C13.2484 13.25 13.047 13.1666 12.8985 13.0181C12.7501 12.8697 12.6667 12.6683 12.6667 12.4583C12.6667 12.2484 12.7501 12.047 12.8985 11.8985C13.047 11.7501 13.2484 11.6667 13.4583 11.6667C13.6683 11.6667 13.8697 11.7501 14.0181 11.8985C14.1666 12.047 14.25 12.2484 14.25 12.4583ZM14.25 9.29167C14.25 9.50163 14.1666 9.70299 14.0181 9.85146C13.8697 9.99993 13.6683 10.0833 13.4583 10.0833C13.2484 10.0833 13.047 9.99993 12.8985 9.85146C12.7501 9.70299 12.6667 9.50163 12.6667 9.29167C12.6667 9.0817 12.7501 8.88034 12.8985 8.73187C13.047 8.58341 13.2484 8.5 13.4583 8.5C13.6683 8.5 13.8697 8.58341 14.0181 8.73187C14.1666 8.88034 14.25 9.0817 14.25 9.29167ZM10.2917 12.4583C10.2917 12.6683 10.2083 12.8697 10.0598 13.0181C9.91133 13.1666 9.70996 13.25 9.5 13.25C9.29004 13.25 9.08867 13.1666 8.94021 13.0181C8.79174 12.8697 8.70833 12.6683 8.70833 12.4583C8.70833 12.2484 8.79174 12.047 8.94021 11.8985C9.08867 11.7501 9.29004 11.6667 9.5 11.6667C9.70996 11.6667 9.91133 11.7501 10.0598 11.8985C10.2083 12.047 10.2917 12.2484 10.2917 12.4583ZM10.2917 9.29167C10.2917 9.50163 10.2083 9.70299 10.0598 9.85146C9.91133 9.99993 9.70996 10.0833 9.5 10.0833C9.29004 10.0833 9.08867 9.99993 8.94021 9.85146C8.79174 9.70299 8.70833 9.50163 8.70833 9.29167C8.70833 9.0817 8.79174 8.88034 8.94021 8.73187C9.08867 8.58341 9.29004 8.5 9.5 8.5C9.70996 8.5 9.91133 8.58341 10.0598 8.73187C10.2083 8.88034 10.2917 9.0817 10.2917 9.29167ZM6.33333 12.4583C6.33333 12.6683 6.24993 12.8697 6.10146 13.0181C5.95299 13.1666 5.75163 13.25 5.54167 13.25C5.3317 13.25 5.13034 13.1666 4.98187 13.0181C4.83341 12.8697 4.75 12.6683 4.75 12.4583C4.75 12.2484 4.83341 12.047 4.98187 11.8985C5.13034 11.7501 5.3317 11.6667 5.54167 11.6667C5.75163 11.6667 5.95299 11.7501 6.10146 11.8985C6.24993 12.047 6.33333 12.2484 6.33333 12.4583ZM6.33333 9.29167C6.33333 9.50163 6.24993 9.70299 6.10146 9.85146C5.95299 9.99993 5.75163 10.0833 5.54167 10.0833C5.3317 10.0833 5.13034 9.99993 4.98187 9.85146C4.83341 9.70299 4.75 9.50163 4.75 9.29167C4.75 9.0817 4.83341 8.88034 4.98187 8.73187C5.13034 8.58341 5.3317 8.5 5.54167 8.5C5.75163 8.5 5.95299 8.58341 6.10146 8.73187C6.24993 8.88034 6.33333 9.0817 6.33333 9.29167Z" fill="#494C50"/>
</svg>
