<svg width="12" height="12" viewBox="0 0 12 12" fill="none" xmlns="http://www.w3.org/2000/svg">
<path fillRule="evenodd" clipRule="evenodd" d="M0.227533 0.226455C0.520454 -0.06641 0.995328 -0.0663647 1.28819 0.226556L5.99991 4.93918L10.7135 0.226455C11.0065 -0.06641 11.4813 -0.0663647 11.7742 0.226556C12.0671 0.519478 12.067 0.994351 11.7741 1.28722L7.06102 5.99939L11.7741 10.7125C12.067 11.0054 12.067 11.4803 11.7741 11.7732C11.4812 12.0661 11.0064 12.0661 10.7135 11.7732L6.00081 7.0605L1.28814 11.7732C0.995249 12.0661 0.520376 12.0661 0.227482 11.7732C-0.0654108 11.4803 -0.0654108 11.0054 0.227482 10.7125L4.9397 6.00029L0.227432 1.28712C-0.0654335 0.994194 -0.0653881 0.519321 0.227533 0.226455Z" fill="#FE2828"/>
</svg>
