<svg width="15" height="16" viewBox="0 0 15 16" fill="none" xmlns="http://www.w3.org/2000/svg">
<path d="M8.60216 7.50307L14.8197 1.28557C14.9425 1.14209 15.0067 0.957536 14.9994 0.768779C14.9921 0.580022 14.9139 0.400967 14.7803 0.267397C14.6468 0.133826 14.4677 0.055576 14.2789 0.0482851C14.0902 0.0409943 13.9056 0.105199 13.7622 0.228069L7.54466 6.44557L1.32716 0.220569C1.18593 0.079341 0.994384 0 0.794658 0C0.594931 0 0.403385 0.079341 0.262158 0.220569C0.12093 0.361797 0.0415888 0.553343 0.0415888 0.753069C0.0415888 0.952795 0.12093 1.14434 0.262158 1.28557L6.48716 7.50307L0.262158 13.7206C0.183646 13.7878 0.119881 13.8705 0.0748636 13.9636C0.0298461 14.0566 0.00454851 14.158 0.000558893 14.2613C-0.00343073 14.3646 0.0139734 14.4676 0.0516793 14.5638C0.0893852 14.6601 0.146579 14.7475 0.21967 14.8206C0.292761 14.8936 0.380171 14.9508 0.476415 14.9885C0.572659 15.0263 0.675658 15.0437 0.778948 15.0397C0.882237 15.0357 0.983586 15.0104 1.07664 14.9654C1.16968 14.9203 1.25242 14.8566 1.31966 14.7781L7.54466 8.56057L13.7622 14.7781C13.9056 14.9009 14.0902 14.9651 14.2789 14.9579C14.4677 14.9506 14.6468 14.8723 14.7803 14.7387C14.9139 14.6052 14.9921 14.4261 14.9994 14.2374C15.0067 14.0486 14.9425 13.864 14.8197 13.7206L8.60216 7.50307Z" fill="black"/>
</svg>
