<svg width="17" height="17" viewBox="0 0 17 17" fill="none" xmlns="http://www.w3.org/2000/svg">
<path d="M13.6862 5.78151L8.56661 10.772L3.44706 5.78151C3.35559 5.69216 3.2328 5.64214 3.10494 5.64214C2.97707 5.64214 2.85428 5.69216 2.76281 5.78151C2.71852 5.82491 2.68334 5.8767 2.65932 5.93387C2.6353 5.99103 2.62292 6.05241 2.62292 6.11442C2.62292 6.17642 2.6353 6.2378 2.65932 6.29497C2.68334 6.35213 2.71852 6.40392 2.76281 6.44732L8.20912 11.7574C8.30476 11.8506 8.43304 11.9028 8.56661 11.9028C8.70017 11.9028 8.82845 11.8506 8.9241 11.7574L14.3704 6.44834C14.415 6.40492 14.4505 6.35299 14.4747 6.29564C14.4989 6.23829 14.5113 6.17667 14.5113 6.11442C14.5113 6.05216 14.4989 5.99054 14.4747 5.93319C14.4505 5.87584 14.415 5.82391 14.3704 5.78049C14.2789 5.69114 14.1561 5.64111 14.0283 5.64111C13.9004 5.64111 13.7776 5.69114 13.6862 5.78049V5.78151Z" fill="black"/>
</svg>
