<svg width="20" height="20" viewBox="0 0 20 20" fill="none" xmlns="http://www.w3.org/2000/svg">
<path d="M1.86255 14.4551C2.40855 16.6381 2.68155 17.7291 3.49455 18.3651C4.30855 19.0001 5.43355 19.0001 7.68355 19.0001H12.3136C14.5636 19.0001 15.6886 19.0001 16.5036 18.3651C17.3166 17.7291 17.5896 16.6381 18.1346 14.4551C18.9926 11.0231 19.4216 9.30806 18.5216 8.15406C17.6206 7.00006 15.8516 7.00006 12.3146 7.00006H7.68355C4.14555 7.00006 2.37755 7.00006 1.47655 8.15406C0.947552 8.83106 0.876552 9.70206 1.08255 11.0001" stroke="white" stroke-width="1.5" stroke-linecap="round"/>
<path d="M17.4985 7.50006L16.7885 4.89506C16.5145 3.89006 16.3775 3.38806 16.0965 3.00906C15.8164 2.63253 15.4358 2.34246 14.9985 2.17206C14.5585 2.00006 14.0385 2.00006 12.9985 2.00006M2.49854 7.50006L3.20854 4.89506C3.48254 3.89006 3.61954 3.38806 3.90054 3.00906C4.18071 2.63253 4.56122 2.34246 4.99854 2.17206C5.43854 2.00006 5.95854 2.00006 6.99854 2.00006" stroke="white" stroke-width="1.5"/>
<path d="M6.99854 2.00006C6.99854 1.73484 7.10389 1.48049 7.29143 1.29295C7.47896 1.10542 7.73332 1.00006 7.99854 1.00006H11.9985C12.2638 1.00006 12.5181 1.10542 12.7056 1.29295C12.8932 1.48049 12.9985 1.73484 12.9985 2.00006C12.9985 2.26528 12.8932 2.51963 12.7056 2.70717C12.5181 2.8947 12.2638 3.00006 11.9985 3.00006H7.99854C7.73332 3.00006 7.47896 2.8947 7.29143 2.70717C7.10389 2.51963 6.99854 2.26528 6.99854 2.00006Z" stroke="white" stroke-width="1.5"/>
</svg>
