<svg width="26" height="25" viewBox="0 0 26 25" fill="none" xmlns="http://www.w3.org/2000/svg">
<path d="M2.83002 18.0687C3.51252 20.7975 3.85377 22.1612 4.87002 22.9562C5.88752 23.75 7.29377 23.75 10.1063 23.75H15.8938C18.7063 23.75 20.1125 23.75 21.1313 22.9562C22.1475 22.1612 22.4888 20.7975 23.17 18.0687C24.2425 13.7788 24.7788 11.635 23.6538 10.1925C22.5275 8.75 20.3163 8.75 15.895 8.75H10.1063C5.68377 8.75 3.47377 8.75 2.34752 10.1925C1.68627 11.0388 1.59752 12.1275 1.85502 13.75" stroke="#001414" stroke-width="1.875" stroke-linecap="round"/>
<path d="M22.375 9.375L21.4875 6.11875C21.145 4.8625 20.9737 4.235 20.6225 3.76125C20.2723 3.29058 19.7966 2.928 19.25 2.715C18.7 2.5 18.05 2.5 16.75 2.5M3.625 9.375L4.5125 6.11875C4.855 4.8625 5.02625 4.235 5.3775 3.76125C5.72772 3.29058 6.20336 2.928 6.75 2.715C7.3 2.5 7.95 2.5 9.25 2.5" stroke="#001414" stroke-width="1.875"/>
<path d="M9.25 2.5C9.25 2.16848 9.3817 1.85054 9.61612 1.61612C9.85054 1.3817 10.1685 1.25 10.5 1.25H15.5C15.8315 1.25 16.1495 1.3817 16.3839 1.61612C16.6183 1.85054 16.75 2.16848 16.75 2.5C16.75 2.83152 16.6183 3.14946 16.3839 3.38388C16.1495 3.6183 15.8315 3.75 15.5 3.75H10.5C10.1685 3.75 9.85054 3.6183 9.61612 3.38388C9.3817 3.14946 9.25 2.83152 9.25 2.5Z" stroke="#001414" stroke-width="1.875"/>
</svg>
