<svg width="123" height="131" viewBox="0 0 123 131" fill="none" xmlns="http://www.w3.org/2000/svg">
<path d="M56.3933 50.4438C55.3366 52.0499 55.8687 52.8529 57.9896 52.8529C59.8983 52.6408 60.3225 53.3831 59.2621 55.0798C58.4138 56.7765 58.944 57.5188 60.8527 57.3067C62.7615 57.3067 63.2917 58.155 62.4434 59.8517" stroke="#EB4770" stroke-width="0.954379" stroke-linecap="round"/>
<path d="M95.3726 62.3291L99.5082 61.0566L100.781 65.8285L96.9632 67.101L95.3726 62.3291Z" fill="#F2675A"/>
<path d="M30.1562 94.4599L33.6556 89.688L36.5188 94.4599H30.1562Z" fill="#EE7C2B"/>
<path d="M76.6028 12.3833L70.2402 17.1552" stroke="#F2675A" stroke-width="1.27251" stroke-linecap="round"/>
<path d="M65.0973 31.7701C67.1851 31.4766 68.7587 30.3925 68.612 29.3486C68.4653 28.3047 66.6538 27.6963 64.566 27.9897C62.4782 28.2831 60.9046 29.3673 61.0513 30.4112C61.198 31.4551 63.0095 32.0635 65.0973 31.7701Z" fill="#F2675A"/>
<path d="M98.3183 104.977L99.6151 106.096L99.398 107.704L100.715 106.811L102.519 107.433L102.031 105.919L103.151 104.622L101.543 104.405L100.651 103.088L99.8322 104.489L98.3183 104.977Z" fill="#FF6633"/>
<path d="M44.1536 113.229L42.563 109.094L47.0168 110.366L44.1536 113.229Z" fill="#F2675A"/>
<path d="M46.6691 27.7767C48.0826 29.0947 49.8112 29.5383 50.5302 28.7673C51.2491 27.9963 50.6861 26.3028 49.2727 24.9847C47.8592 23.6667 46.1306 23.2231 45.4116 23.9941C44.6927 24.7651 45.2557 26.4586 46.6691 27.7767Z" fill="#EB4770"/>
<path d="M95.0083 126.561L92.626 125.61L91.9568 123.134L90.3323 125.29L87.7235 125.014L89.2935 127.043L88.3433 129.425L90.8193 128.756L92.6601 130.424L92.6209 127.86L95.0083 126.561Z" fill="#EE7C2B"/>
<path d="M54.6763 10.4326C54.9508 11.9899 55.8748 13.1286 56.7399 12.976C57.605 12.8235 58.0838 11.4374 57.8092 9.88019C57.5346 8.32294 56.6107 7.18421 55.7455 7.33676C54.8804 7.4893 54.4017 8.87536 54.6763 10.4326Z" fill="#EE7C2B"/>
<path d="M66.7407 57.2389L67.377 46.7407" stroke="#DD3C8C" stroke-width="1.27251" stroke-linecap="round"/>
<path d="M59.6664 5.54922L62.5755 6.35245L63.6951 9.47941L65.4514 6.5203L68.6449 6.67149L66.6056 4.22987L67.3922 1.00301L64.5829 2.10593L61.9415 0.332982L62.108 3.50989L59.6664 5.54922Z" fill="#EB4770"/>
<path d="M67.8372 123.903L68.4093 122.138L70.2691 121.709L68.9814 120.374L69.172 118.371L67.4553 119.42L65.6907 118.848L66.1201 120.708L64.7849 121.996L66.7879 122.186L67.8372 123.903Z" fill="#EB4770"/>
<path d="M57.7788 103.377C58.3685 105.07 58.8755 105.067 59.2997 103.371C59.9359 101.674 60.5722 101.674 61.2084 103.371C61.6326 105.067 62.1628 105.067 62.799 103.371C63.4353 101.674 63.9655 101.674 64.3897 103.371" stroke="#F2675A" stroke-width="1.27251" stroke-linecap="round"/>
<path d="M44.4718 43.8774L33.3374 50.5581" stroke="#EE7C2B" stroke-width="0.954379" stroke-linecap="round"/>
<path d="M23.7904 101.048C21.883 100.947 21.5656 101.534 22.8381 102.806C24.3227 104.079 24.1106 104.609 22.2018 104.397C20.2931 104.397 20.081 105.033 21.5656 106.306C22.8381 107.578 22.5199 108.108 20.6112 107.896" stroke="#FF6633" stroke-width="1.27251" stroke-linecap="round"/>
<path d="M118.277 44.1957L122.731 41.3325L121.459 47.695L118.277 44.1957Z" fill="#EE7C2B"/>
<path d="M20.5602 43.1392C19.8056 44.9521 20.4888 45.9646 22.6096 46.1766C24.7305 46.3887 25.3667 47.4492 24.5184 49.3579C23.67 51.2667 24.3063 52.221 26.4271 52.221C28.548 52.4331 29.2903 53.5996 28.654 55.7204" stroke="#DD3C8C" stroke-width="0.954379" stroke-linecap="round"/>
<path d="M1 55.5537C2.08146 57.2924 3.1524 57.3134 4.21282 55.6167C5.27324 53.9201 6.22762 53.9201 7.07596 55.6167C8.13638 57.3134 9.1968 57.3134 10.2572 55.6167C11.3176 53.9201 12.3781 53.9201 13.4385 55.6167" stroke="#F2675A" stroke-width="0.954379" stroke-linecap="round"/>
<path d="M92.6075 107.349C94.1304 106.159 94.7512 104.409 93.994 103.44C93.2368 102.47 91.3884 102.649 89.8655 103.839C88.3425 105.029 87.7217 106.779 88.4789 107.748C89.2361 108.718 91.0845 108.539 92.6075 107.349Z" fill="#F2675A"/>
<path d="M77.5571 104.322H83.9197" stroke="#DD3C8C" stroke-width="0.954379" stroke-linecap="round"/>
<path d="M117.126 52.3876C115.533 51.6451 113.761 52.0759 113.167 53.3497C112.573 54.6236 113.382 56.2582 114.975 57.0008C116.567 57.7433 118.339 57.3125 118.933 56.0387C119.527 54.7648 118.718 53.1302 117.126 52.3876Z" fill="#FF6633"/>
<path d="M26.0206 75.0541L22.8394 64.874" stroke="#FFE14C" stroke-width="1.27251" stroke-linecap="round"/>
<path d="M49.8798 8.56543V14.6098H45.7441V8.56543H49.8798Z" fill="#DD3C8C"/>
<path d="M75.3458 79.7292C75.5659 81.2951 76.4495 82.4654 77.3194 82.3431C78.1894 82.2208 78.7162 80.8523 78.4961 79.2864C78.2761 77.7206 77.3924 76.5503 76.5225 76.6725C75.6526 76.7948 75.1258 78.1633 75.3458 79.7292Z" fill="#DD3C8C"/>
<path d="M61.6598 72.982C61.8525 74.5515 62.5742 75.7544 63.2718 75.6687C63.9693 75.5831 64.3786 74.2414 64.1858 72.6719C63.9931 71.1024 63.2714 69.8995 62.5739 69.9852C61.8763 70.0708 61.4671 71.4126 61.6598 72.982Z" fill="#DD3C8C"/>
<path d="M41.6088 58.5112L42.5632 62.0106L37.1551 63.2831L36.2007 59.7837L41.6088 58.5112Z" fill="#F2675A"/>
<path d="M52.8097 11.4762C51.9573 11.2637 51.0941 11.7824 50.8815 12.6348C50.669 13.4871 51.1877 14.3504 52.0401 14.5629C52.8925 14.7755 53.7558 14.2568 53.9683 13.4044C54.1808 12.552 53.6621 11.6887 52.8097 11.4762Z" fill="#EE7C2B"/>
<path d="M26.8466 59.6163C27.7009 58.7316 27.8812 57.5197 27.2493 56.9095C26.6174 56.2992 25.4125 56.5217 24.5582 57.4064C23.7038 58.2911 23.5235 59.503 24.1554 60.1132C24.7874 60.7235 25.9922 60.501 26.8466 59.6163Z" fill="#FFE14C"/>
<path d="M6.24282 74.2759C5.48897 76.1064 6.17247 77.1277 8.29331 77.3398C10.4142 77.5519 11.0504 78.6123 10.2021 80.5211C9.56581 82.4298 10.3081 83.4903 12.429 83.7024C14.5498 83.9144 15.186 84.9749 14.3377 86.8836" stroke="#EE7C2B" stroke-width="0.954379" stroke-linecap="round"/>
<path d="M95.3722 11.7471L97.9172 13.6558L95.3722 16.8371L92.8271 14.9283L95.3722 11.7471Z" fill="#DD3C8C"/>
<path d="M73.421 71.2363L73.7392 75.6901L69.6035 73.7813L73.421 71.2363Z" fill="#EE7C2B"/>
<path d="M80.1021 12.0649L87.7371 22.245" stroke="#DD3C8C" stroke-width="0.954379" stroke-linecap="round"/>
<path d="M96.6446 35.9245L94.7358 32.107L98.5534 31.4707L96.6446 35.9245Z" fill="#FF6633"/>
<path d="M112.551 46.7409L108.416 45.4684L111.597 42.2871L112.551 46.7409Z" fill="#EB4770"/>
<path d="M45.4267 35.6065L44.7904 41.0146L41.291 40.3784L42.2454 34.9702L45.4267 35.6065Z" fill="#EE7C2B"/>
<path d="M107.132 83.7808C105.848 84.3525 105.097 85.4665 105.454 86.269C105.811 87.0716 107.142 87.2587 108.426 86.687C109.71 86.1153 110.461 85.0013 110.104 84.1987C109.747 83.3962 108.416 83.2091 107.132 83.7808Z" fill="#DD3C8C"/>
<path d="M30.7645 111.899C30.0197 113.091 30.1406 114.511 31.0346 115.069C31.9286 115.628 33.2571 115.114 34.0019 113.922C34.7468 112.73 34.6259 111.311 33.7319 110.753C32.8379 110.194 31.5093 110.707 30.7645 111.899Z" fill="#FF6633"/>
<path d="M28.486 52.9062C29.1543 54.3393 30.7287 55.0195 32.0026 54.4255C33.2765 53.8315 33.7674 52.1882 33.0992 50.755C32.4309 49.3219 30.8565 48.6417 29.5826 49.2357C28.3087 49.8297 27.8178 51.4731 28.486 52.9062Z" fill="#EB4770"/>
<path d="M91.3991 11.7966L91.6607 9.38795L93.9085 8.03541L91.3139 7.16536L90.874 4.63854L89.2095 6.81075L86.7079 6.24492L88.0604 8.4927L87.0973 10.7831L89.6242 10.3433L91.3991 11.7966Z" fill="#FFE14C"/>
<path d="M22.2027 104.003L20.2939 99.5496L24.7477 97.3228L26.9746 102.095L22.2027 104.003Z" fill="#EE7C2B"/>
<path d="M94.772 63.3081C93.2062 63.088 91.7782 64.038 91.5826 65.4299C91.387 66.8218 92.4978 68.1285 94.0637 68.3486C95.6295 68.5687 97.0575 67.6187 97.2531 66.2268C97.4487 64.8349 96.3379 63.5282 94.772 63.3081Z" fill="#FFE14C"/>
<path d="M117.82 56.9147C119.57 57.0678 121.051 56.4825 121.128 55.6074C121.204 54.7322 119.848 53.8987 118.097 53.7455C116.347 53.5924 114.866 54.1777 114.79 55.0528C114.713 55.928 116.07 56.7616 117.82 56.9147Z" fill="#FF6633"/>
<path d="M30.1341 33.2866C28.5549 34.0568 27.7119 35.5773 28.251 36.6827C28.7901 37.7881 30.5074 38.0598 32.0865 37.2896C33.6656 36.5194 34.5087 34.9989 33.9696 33.8935C33.4305 32.7881 31.7132 32.5164 30.1341 33.2866Z" fill="#F2675A"/>
<path d="M50.9822 125.156C50.4785 126.469 51.001 127.89 52.1492 128.33C53.2974 128.771 54.6365 128.065 55.1402 126.752C55.6439 125.44 55.1215 124.019 53.9733 123.578C52.8251 123.138 51.486 123.844 50.9822 125.156Z" fill="#FFE14C"/>
<path d="M90.6004 21.9267L88.3735 20.018L91.8729 15.8823L94.4179 17.7911L90.6004 21.9267Z" fill="#DD3C8C"/>
<path d="M46.9813 105.958C47.3166 104.233 46.7495 102.672 45.7147 102.471C44.6799 102.27 43.5692 103.505 43.234 105.23C42.8987 106.954 43.4658 108.516 44.5006 108.717C45.5355 108.918 46.6461 107.683 46.9813 105.958Z" fill="#EB4770"/>
<path d="M96.9626 37.515L93.7813 39.1056L91.8726 35.6063L95.3719 34.0156L96.9626 37.515Z" fill="#DD3C8C"/>
<path d="M16.6794 44.5304C17.1602 43.2095 16.7468 41.8465 15.7562 41.486C14.7656 41.1254 13.5729 41.9039 13.0921 43.2247C12.6114 44.5455 13.0247 45.9085 14.0153 46.269C15.0059 46.6296 16.1987 45.8512 16.6794 44.5304Z" fill="#EE7C2B"/>
<path d="M74.0575 91.5968L70.5581 93.5055L71.8306 89.0518L74.0575 91.5968Z" fill="#FF6633"/>
</svg>
