<svg width="21" height="23" viewBox="0 0 21 23" fill="none" xmlns="http://www.w3.org/2000/svg">
<path fillRule="evenodd" clipRule="evenodd" d="M18.4992 7.89805C18.9517 7.9353 19.2891 8.3308 19.2529 8.78327C19.2464 8.85776 18.6526 16.2101 18.3108 19.2941C18.0982 21.208 16.8339 22.3726 14.9255 22.4077C13.4651 22.4329 12.0562 22.4471 10.6791 22.4471C9.19457 22.4471 7.74734 22.4307 6.31543 22.4011C4.48365 22.365 3.21609 21.1774 3.00902 19.3018C2.66392 16.1904 2.07341 8.85667 2.06794 8.78327C2.03069 8.3308 2.36812 7.9342 2.82059 7.89805C3.26648 7.886 3.66965 8.19933 3.7058 8.6507C3.7093 8.69825 3.95071 11.6931 4.21377 14.6563L4.26661 15.2476C4.39911 16.7204 4.53342 18.1357 4.64251 19.121C4.75973 20.187 5.33491 20.737 6.3494 20.7578C9.0883 20.8158 11.8831 20.8191 14.8959 20.7643C15.9739 20.7435 16.5568 20.2045 16.6773 19.1133C17.0169 16.0523 17.6085 8.7252 17.6151 8.6507C17.6512 8.19933 18.0511 7.88381 18.4992 7.89805ZM12.9784 0.536194C13.9842 0.536194 14.8683 1.21435 15.1279 2.18611L15.4062 3.56762C15.4961 4.02049 15.8936 4.35123 16.3537 4.35849L19.9491 4.35861C20.4026 4.35861 20.7707 4.72672 20.7707 5.18029C20.7707 5.63385 20.4026 6.00196 19.9491 6.00196L16.3858 6.00179C16.3803 6.0019 16.3748 6.00196 16.3692 6.00196L16.3425 6.00086L4.97668 6.00182C4.96784 6.00191 4.959 6.00196 4.95014 6.00196L4.93327 6.00086L1.3705 6.00196C0.916937 6.00196 0.548828 5.63385 0.548828 5.18029C0.548828 4.72672 0.916937 4.35861 1.3705 4.35861L4.96504 4.35752L5.07572 4.35051C5.48797 4.29703 5.83058 3.98393 5.91424 3.56762L6.18046 2.23541C6.45107 1.21435 7.33518 0.536194 8.34091 0.536194H12.9784ZM12.9784 2.17954H8.34091C8.07798 2.17954 7.84681 2.35592 7.77998 2.609L7.52472 3.89081C7.49227 4.05317 7.44503 4.20963 7.38458 4.35891H13.9351C13.8746 4.20963 13.8272 4.05317 13.7946 3.89081L13.5284 2.5586C13.4725 2.35592 13.2414 2.17954 12.9784 2.17954Z" fill="#FE2828"/>
</svg>
