<svg width="137" height="34" viewBox="0 0 137 34" fill="none" xmlns="http://www.w3.org/2000/svg">
<path d="M46.638 11.7897H44.4595V22.9986H46.638V11.7897Z" fill="#2A3362"/>
<path d="M55.0698 19.0216C55.0698 20.5686 54.0745 21.2637 52.7493 21.2637C51.4241 21.2637 50.5384 20.5686 50.5384 19.1V15.1055H48.3599V19.6058C48.3599 21.8465 49.7649 23.1568 52.1016 23.1568C53.5701 23.1568 54.3909 22.6159 54.9413 22.0047H55.0684L55.2577 23H57.2618V15.1055H55.0698V19.0216Z" fill="#2A3362"/>
<path d="M76.4389 21.4368C74.8446 21.4368 73.9453 20.7106 73.8033 19.6531H80.7174C80.7493 19.4333 80.7652 19.2113 80.7648 18.9892C80.7499 16.1494 78.6012 14.9473 76.3023 14.9473C73.6343 14.9473 71.6289 16.5429 71.6289 19.1163C71.6289 21.5625 73.5559 23.1568 76.4443 23.1568C78.8608 23.1568 80.47 22.0845 80.8026 20.4415H78.6498C78.3807 21.0892 77.6072 21.4368 76.4389 21.4368ZM76.3037 16.6687C77.6938 16.6687 78.4984 17.284 78.6255 18.1562H73.8507C74.0549 17.3205 74.8608 16.6687 76.2969 16.6687H76.3037Z" fill="#2A3362"/>
<path d="M84.466 16.2387H84.3308L84.1252 15.1014H82.1455V23H84.324V19.6058C84.324 18.0737 85.207 17.2218 86.85 17.2218C87.1485 17.2176 87.4466 17.2439 87.7398 17.3002V15.1055H87.4355C85.9832 15.1055 85.0813 15.4057 84.466 16.2387Z" fill="#2A3362"/>
<path d="M98.4361 20.5361H98.3104L96.4469 15.595H94.2049L92.3739 20.5213H92.2319L90.4956 15.1055H88.332L91 23H93.3692L95.2637 17.9628H95.3895L97.2529 23H99.6369L102.305 15.1055H100.141L98.4361 20.5361Z" fill="#2A3362"/>
<path d="M110.976 20.7011V18.0588C110.976 15.9114 109.16 14.9486 106.901 14.9486C104.502 14.9486 103.003 16.0859 102.797 17.7884H104.976C105.134 17.046 105.765 16.6362 106.901 16.6362C108.037 16.6362 108.794 17.0622 108.794 17.9303V18.1318L105.242 18.4023C103.6 18.5294 102.402 19.2556 102.402 20.8025C102.402 22.3968 103.776 23.1541 105.797 23.1541C107.427 23.1541 108.421 22.6998 109.03 22.0142H109.138C109.48 22.7849 110.174 22.9972 110.928 22.9972H111.844V21.3894H111.638C111.18 21.3894 110.976 21.169 110.976 20.7011ZM108.796 19.8641C108.796 21.1122 107.308 21.5219 106.033 21.5219C105.165 21.5219 104.597 21.3015 104.597 20.7011C104.597 20.1602 105.087 19.8965 105.814 19.833L108.797 19.6125L108.796 19.8641Z" fill="#2A3362"/>
<path d="M119.029 15.1055L116.487 20.8215H116.345L113.772 15.1055H111.419L115.097 23H117.703L121.365 15.1055H119.029Z" fill="#2A3362"/>
<path d="M128.329 20.4415C128.059 21.0892 127.287 21.4368 126.118 21.4368C124.524 21.4368 123.625 20.7106 123.483 19.6531H130.397C130.429 19.4333 130.444 19.2113 130.444 18.9892C130.429 16.1494 128.28 14.9473 125.982 14.9473C123.314 14.9473 121.31 16.5429 121.31 19.1163C121.31 21.5625 123.235 23.1568 126.124 23.1568C128.54 23.1568 130.149 22.0845 130.482 20.4415H128.329ZM125.976 16.6687C127.366 16.6687 128.171 17.284 128.298 18.1562H123.525C123.731 17.3205 124.535 16.6687 125.971 16.6687H125.976Z" fill="#2A3362"/>
<path d="M40.9192 14.524C40.9192 13.8289 41.4087 13.5301 42.0402 13.5301C42.3339 13.5328 42.6259 13.5751 42.9084 13.6558L43.2721 12.0764C42.7448 11.8899 42.1898 11.7939 41.6305 11.7924C40.0199 11.7924 38.7258 12.6457 38.7258 14.4131V15.1055H36.8462V16.835H38.7258V22.9999H40.9192V16.8336H43.3749V15.1055H40.9192V14.524Z" fill="#2A3362"/>
<path d="M62.0686 12.8796H60.0402L59.9266 15.1055H58.2119V16.835H59.886V20.7268C59.886 22.052 60.5621 23.1609 62.5905 23.1609C63.1164 23.1609 63.6406 23.1028 64.1537 22.9878V21.3258C63.8579 21.3922 63.5562 21.4293 63.2531 21.4367C62.1646 21.4367 62.0699 20.8215 62.0699 20.3468V16.8309H64.2335V15.1055H62.0686V12.8796Z" fill="#2A3362"/>
<path d="M68.9096 12.8796H66.888L66.7744 15.1055H65.0557V16.835H66.7298V20.7268C66.7298 22.052 67.4059 23.1609 69.4343 23.1609C69.9589 23.1592 70.4818 23.0998 70.9934 22.9837V21.3258C70.6976 21.3922 70.3959 21.4293 70.0928 21.4367C69.0043 21.4367 68.9096 20.8215 68.9096 20.3468V16.8309H71.08V15.1055H68.9096V12.8796Z" fill="#2A3362"/>
<path d="M6.52197 11.4909C6.52197 10.2238 6.89249 9.14199 7.67004 8.36444L9.0223 9.7167C7.51723 11.2164 8.83163 15.8789 13.1169 20.1683C17.4022 24.4577 22.0675 25.7707 23.5712 24.2684L24.9235 25.6206C22.3867 28.1574 16.6085 26.3576 11.7714 21.5192C8.41649 18.1629 6.52197 14.3549 6.52197 11.4909Z" fill="#009A46"/>
<path d="M15.0492 26.7863C13.7821 26.7863 12.7003 26.4157 11.9214 25.6382L13.2736 24.2859C14.776 25.7883 19.4386 24.4739 23.728 20.1859C28.0173 15.8979 29.329 11.2353 27.8267 9.73293L29.1789 8.38068C31.7171 10.9175 29.9159 16.6957 25.0775 21.5327C21.7212 24.8931 17.9132 26.7863 15.0492 26.7863Z" fill="#FF5805"/>
<path d="M25.5251 19.5977C24.7043 17.2339 23.0275 14.7079 20.803 12.4848C15.966 7.64641 10.1878 5.8452 7.65096 8.38339C7.47111 8.56459 7.62662 9.01219 7.99984 9.38541C8.37306 9.75863 8.82066 9.91279 9.00051 9.73294C10.5042 8.23058 15.1668 9.54498 19.4548 13.8343C21.4832 15.8627 22.995 18.1278 23.7239 20.2238C24.3622 22.0615 24.3 23.5436 23.5562 24.2873C23.375 24.4671 23.5319 24.9161 23.9038 25.288C24.2756 25.6598 24.7246 25.8167 24.9058 25.6355C26.2053 24.336 26.4257 22.1886 25.5251 19.5977Z" fill="#F5AFCB"/>
<path d="M29.1763 8.3834C27.8741 7.08117 25.7294 6.86075 23.1357 7.76271C20.7733 8.58218 18.246 10.2603 16.0229 12.4834C11.1858 17.3205 9.38463 23.0987 11.9215 25.6369C12.1027 25.8167 12.5503 25.6612 12.9235 25.2893C13.2967 24.9175 13.4522 24.4685 13.271 24.2873C11.7646 22.7849 13.0831 18.1224 17.3724 13.833C19.4008 11.8046 21.6658 10.2928 23.7618 9.56392C25.5996 8.927 27.0816 8.98786 27.8267 9.7316C28.0066 9.91145 28.4555 9.75594 28.8274 9.38272C29.1993 9.00949 29.3561 8.56325 29.1763 8.3834Z" fill="#FF9B00"/>
</svg>
