<svg width="18" height="18" viewBox="0 0 18 18" fill="none" xmlns="http://www.w3.org/2000/svg">
<path fill-rule="evenodd" clip-rule="evenodd" d="M17.16 9.55382C17.16 8.9511 17.1059 8.37155 17.0055 7.81519H9V11.1031H13.5746C13.3775 12.1656 12.7786 13.0659 11.8784 13.6686V15.8013H14.6255C16.2327 14.3216 17.16 12.1425 17.16 9.55382Z" fill="#4285F4"/>
<path fill-rule="evenodd" clip-rule="evenodd" d="M8.99997 17.8606C11.295 17.8606 13.2191 17.0995 14.6254 15.8013L11.8784 13.6685C11.1173 14.1785 10.1436 14.4799 8.99997 14.4799C6.78611 14.4799 4.91224 12.9847 4.24383 10.9756H1.40405V13.1779C2.80269 15.9558 5.67724 17.8606 8.99997 17.8606Z" fill="#34A853"/>
<path fill-rule="evenodd" clip-rule="evenodd" d="M4.24387 10.9757C4.07387 10.4657 3.97728 9.92096 3.97728 9.36074C3.97728 8.80051 4.07387 8.25573 4.24387 7.74573V5.54346H1.40409C0.82841 6.69096 0.5 7.98914 0.5 9.36074C0.5 10.7323 0.82841 12.0305 1.40409 13.178L4.24387 10.9757Z" fill="#FBBC05"/>
<path fill-rule="evenodd" clip-rule="evenodd" d="M8.99997 4.24128C10.2479 4.24128 11.3684 4.67015 12.2493 5.51242L14.6873 3.07446C13.2152 1.70287 11.2911 0.860596 8.99997 0.860596C5.67724 0.860596 2.80269 2.76537 1.40405 5.54333L4.24383 7.74561C4.91224 5.73651 6.78611 4.24128 8.99997 4.24128Z" fill="#EA4335"/>
</svg>
