<svg width="29" height="28" viewBox="0 0 29 28" fill="none" xmlns="http://www.w3.org/2000/svg">
<path d="M15.6994 2.33398C17.0119 2.33748 17.6781 2.34448 18.2533 2.36082L18.4796 2.36898C18.7409 2.37832 18.9988 2.38998 19.3103 2.40398C20.5516 2.46232 21.3986 2.65832 22.1418 2.94648C22.9118 3.24282 23.5604 3.64415 24.2091 4.29165C24.8026 4.87467 25.2616 5.5802 25.5543 6.35898C25.8424 7.10215 26.0384 7.94915 26.0968 9.19165C26.1108 9.50198 26.1224 9.75982 26.1318 10.0223L26.1388 10.2487C26.1563 10.8227 26.1633 11.4888 26.1656 12.8013L26.1668 13.6717V15.2C26.1696 16.051 26.1607 16.9019 26.1399 17.7527L26.1329 17.979C26.1236 18.2415 26.1119 18.4993 26.0979 18.8097C26.0396 20.0522 25.8413 20.898 25.5543 21.6423C25.2616 22.4211 24.8026 23.1266 24.2091 23.7097C23.6261 24.3031 22.9205 24.7622 22.1418 25.0548C21.3986 25.343 20.5516 25.539 19.3103 25.5973L18.4796 25.6323L18.2533 25.6393C17.6781 25.6556 17.0119 25.6638 15.6994 25.6662L14.8291 25.6673H13.3019C12.4506 25.6703 11.5992 25.6614 10.7481 25.6405L10.5218 25.6335C10.2448 25.623 9.96791 25.6109 9.69109 25.5973C8.44976 25.539 7.60276 25.343 6.85843 25.0548C6.08006 24.762 5.37494 24.303 4.79226 23.7097C4.19836 23.1267 3.73889 22.4212 3.44593 21.6423C3.15776 20.8991 2.96176 20.0522 2.90343 18.8097L2.86843 17.979L2.86259 17.7527C2.84109 16.9019 2.83136 16.051 2.83343 15.2V12.8013C2.8302 11.9504 2.83875 11.0994 2.85909 10.2487L2.86726 10.0223C2.87659 9.75982 2.88826 9.50198 2.90226 9.19165C2.96059 7.94915 3.15659 7.10332 3.44476 6.35898C3.7384 5.57988 4.19869 4.87433 4.79343 4.29165C5.37577 3.69846 6.08048 3.2394 6.85843 2.94648C7.60276 2.65832 8.44859 2.46232 9.69109 2.40398C10.0014 2.38998 10.2604 2.37832 10.5218 2.36898L10.7481 2.36198C11.5988 2.34126 12.4498 2.33231 13.3008 2.33515L15.6994 2.33398ZM14.5001 8.16732C12.953 8.16732 11.4693 8.7819 10.3753 9.87586C9.28134 10.9698 8.66676 12.4536 8.66676 14.0007C8.66676 15.5477 9.28134 17.0315 10.3753 18.1254C11.4693 19.2194 12.953 19.834 14.5001 19.834C16.0472 19.834 17.5309 19.2194 18.6249 18.1254C19.7188 17.0315 20.3334 15.5477 20.3334 14.0007C20.3334 12.4536 19.7188 10.9698 18.6249 9.87586C17.5309 8.7819 16.0472 8.16732 14.5001 8.16732ZM14.5001 10.5007C14.9597 10.5006 15.4149 10.591 15.8395 10.7668C16.2642 10.9427 16.6501 11.2004 16.9751 11.5254C17.3002 11.8503 17.5581 12.2361 17.734 12.6607C17.91 13.0853 18.0006 13.5404 18.0007 14.0001C18.0008 14.4597 17.9103 14.9148 17.7345 15.3395C17.5587 15.7642 17.3009 16.1501 16.976 16.4751C16.651 16.8002 16.2652 17.058 15.8406 17.234C15.416 17.41 14.9609 17.5006 14.5013 17.5007C13.573 17.5007 12.6828 17.1319 12.0264 16.4755C11.37 15.8191 11.0013 14.9289 11.0013 14.0007C11.0013 13.0724 11.37 12.1822 12.0264 11.5258C12.6828 10.8694 13.573 10.5007 14.5013 10.5007M20.6263 6.41732C20.2395 6.41732 19.8686 6.57096 19.5951 6.84445C19.3216 7.11794 19.1679 7.48888 19.1679 7.87565C19.1679 8.26242 19.3216 8.63336 19.5951 8.90685C19.8686 9.18034 20.2395 9.33398 20.6263 9.33398C21.013 9.33398 21.384 9.18034 21.6575 8.90685C21.931 8.63336 22.0846 8.26242 22.0846 7.87565C22.0846 7.48888 21.931 7.11794 21.6575 6.84445C21.384 6.57096 21.013 6.41732 20.6263 6.41732Z" fill="#001414"/>
</svg>
