<svg width="90" height="26" viewBox="0 0 90 26" fill="none" xmlns="http://www.w3.org/2000/svg">
<g clip-path="url(#clip0_53_1425)">
<path fill-rule="evenodd" clip-rule="evenodd" d="M29.5875 13.5486L29.8902 11.8254C29.8902 11.8254 27.5594 11.0684 25.6624 12.4723V19.366H27.6768V13.7651C28.4796 13.1182 29.5875 13.5486 29.5875 13.5486Z" fill="#03435F"/>
<mask id="mask0_53_1425" style="mask-type:alpha" maskUnits="userSpaceOnUse" x="25" y="11" width="5" height="9">
<path d="M25.6622 12.472C26.575 11.7967 27.5882 11.6214 28.3939 11.6215C29.2626 11.6215 29.8902 11.8252 29.8902 11.8252L29.5874 13.5485C29.5874 13.5485 28.4795 13.1181 27.6767 13.7649V19.3657H25.6622V12.472Z" fill="white"/>
</mask>
<g mask="url(#mask0_53_1425)">
<path fill-rule="evenodd" clip-rule="evenodd" d="M-96.9659 40.7319L186.725 40.7319V-361.164H-96.9659L-96.9659 40.7319Z" fill="#03435F"/>
</g>
<mask id="mask1_53_1425" style="mask-type:alpha" maskUnits="userSpaceOnUse" x="25" y="11" width="5" height="9">
<path d="M25.6622 12.472C26.575 11.7967 27.5881 11.6215 28.3939 11.6215C29.2626 11.6215 29.8902 11.8252 29.8902 11.8252L29.5874 13.5485C29.5874 13.5485 28.4795 13.1181 27.6767 13.7649V19.3657H25.6622V12.472Z" fill="white"/>
</mask>
<g mask="url(#mask1_53_1425)">
<path fill-rule="evenodd" clip-rule="evenodd" d="M22.2849 22.7432H33.2674V8.24427H22.2849V22.7432Z" fill="#03435F"/>
</g>
<path fill-rule="evenodd" clip-rule="evenodd" d="M12.2202 9.86004L14.2338 9.48069V11.7227H16.2263V13.5157H14.2338V16.1896C14.2338 16.6451 14.3074 17.0067 14.458 17.2741C14.6069 17.5456 14.9055 17.6801 15.3539 17.6801C15.5732 17.6801 15.7934 17.6591 16.0257 17.6145C16.2514 17.5691 16.4619 17.5109 16.6513 17.4346L16.9362 19.114C16.6924 19.2186 16.4231 19.3094 16.1261 19.3863C15.8281 19.4625 15.4623 19.5022 15.0301 19.5022C14.4807 19.5022 14.0266 19.4221 13.6655 19.2632C13.3063 19.1043 13.0175 18.8813 12.8021 18.5968C12.5868 18.3148 12.4354 17.9687 12.3504 17.5635C12.2639 17.159 12.2202 16.7123 12.2202 16.2196V9.86004Z" fill="#03435F"/>
<mask id="mask2_53_1425" style="mask-type:alpha" maskUnits="userSpaceOnUse" x="12" y="9" width="5" height="11">
<path d="M12.2203 9.86005L14.2339 9.48069V11.7227H16.2264V13.5157H14.2339V16.1896C14.2339 16.6452 14.3076 17.0067 14.458 17.2741C14.6069 17.5457 14.9055 17.6802 15.3539 17.6802C15.5732 17.6802 15.7933 17.6591 16.0257 17.6145C16.2514 17.5691 16.462 17.5109 16.6514 17.4347L16.9362 19.114C16.6926 19.2187 16.423 19.3095 16.126 19.3864C15.8281 19.4626 15.4623 19.5022 15.0301 19.5022C14.4805 19.5022 14.0266 19.4221 13.6657 19.2632C13.3063 19.1043 13.0173 18.8813 12.8021 18.597C12.5868 18.3148 12.4355 17.9687 12.3506 17.5635C12.2639 17.159 12.2203 16.7124 12.2203 16.2196V9.86005Z" fill="white"/>
</mask>
<g mask="url(#mask2_53_1425)">
<path fill-rule="evenodd" clip-rule="evenodd" d="M-96.9659 40.7319L186.725 40.7319V-361.164H-96.9659L-96.9659 40.7319Z" fill="#03435F"/>
<path fill-rule="evenodd" clip-rule="evenodd" d="M8.84277 22.8794H20.3132V6.10321H8.84277L8.84277 22.8794Z" fill="#03435F"/>
</g>
<path fill-rule="evenodd" clip-rule="evenodd" d="M32.8727 17.8221C33.241 17.8221 33.5016 17.7815 33.6562 17.7053C33.8099 17.6284 33.8843 17.4776 33.8843 17.2572C33.8843 17.0829 33.7873 16.9314 33.5881 16.8025C33.3891 16.6712 33.0896 16.5253 32.6834 16.359C32.3685 16.2334 32.082 16.1039 31.8238 15.9701C31.5689 15.8339 31.3504 15.6751 31.1699 15.4862C30.9901 15.2982 30.851 15.0727 30.7506 14.8102C30.6502 14.5524 30.6026 14.2404 30.6026 13.8723C30.6026 13.1598 30.851 12.5949 31.3455 12.1807C31.8408 11.7682 32.5191 11.5574 33.385 11.5574C33.818 11.5574 34.2324 11.5987 34.629 11.6823C35.0248 11.7633 35.3412 11.8558 35.5734 11.9489L35.223 13.6266C34.9883 13.54 34.7334 13.4638 34.459 13.3974C34.1846 13.3294 33.8755 13.2936 33.5339 13.2936C32.9035 13.2936 32.5878 13.4833 32.5878 13.8585C32.5878 13.9452 32.6016 14.0223 32.6291 14.0895C32.6566 14.1576 32.7101 14.2225 32.7894 14.2848C32.8727 14.3465 32.9812 14.4161 33.1219 14.4875C33.2619 14.5629 33.44 14.6406 33.6562 14.729C34.0956 14.9041 34.4606 15.0743 34.7488 15.2462C35.0376 15.418 35.2643 15.5989 35.4319 15.7997C35.5985 15.996 35.7168 16.2133 35.7831 16.4547C35.8495 16.6955 35.8842 16.9735 35.8842 17.2905C35.8842 18.0418 35.6204 18.6099 35.0951 18.9941C34.5674 19.3768 33.8212 19.5696 32.8573 19.5696C32.2276 19.5696 31.7032 19.5137 31.2848 19.3962C30.8648 19.2819 30.575 19.1831 30.4132 19.1068L30.7506 17.3577C31.0914 17.502 31.4459 17.6138 31.8037 17.6982C32.1662 17.7808 32.5191 17.8221 32.8727 17.8221Z" fill="#03435F"/>
<mask id="mask3_53_1425" style="mask-type:alpha" maskUnits="userSpaceOnUse" x="30" y="11" width="6" height="9">
<path d="M31.3454 12.1808C31.8408 11.7682 32.519 11.5574 33.3849 11.5574C33.818 11.5574 34.2324 11.5987 34.629 11.6823C35.0246 11.7633 35.3411 11.8556 35.5734 11.9489L35.223 13.6266C34.9882 13.54 34.7334 13.4638 34.4589 13.3974C34.1846 13.3292 33.8754 13.2937 33.5339 13.2937C32.9033 13.2937 32.5878 13.4831 32.5878 13.8585C32.5878 13.9452 32.6015 14.0223 32.629 14.0895C32.6566 14.1576 32.7101 14.2225 32.7894 14.2848C32.8726 14.3465 32.9812 14.4161 33.122 14.4875C33.2619 14.5628 33.4399 14.6408 33.6561 14.729C34.0956 14.9041 34.4606 15.0743 34.7487 15.2462C35.0376 15.418 35.2643 15.5988 35.4319 15.7997C35.5985 15.996 35.7166 16.2132 35.7831 16.4547C35.8495 16.6955 35.8841 16.9735 35.8841 17.2905C35.8841 18.0418 35.6202 18.61 35.0951 18.9941C34.5674 19.3768 33.8212 19.5696 32.8573 19.5696C32.2276 19.5696 31.7032 19.5137 31.2848 19.3962C30.8646 19.2819 30.575 19.1831 30.4131 19.1068L30.7506 17.3577C31.0914 17.5021 31.4458 17.6138 31.8036 17.6982C32.1661 17.7807 32.519 17.8221 32.8726 17.8221C33.2409 17.8221 33.5016 17.7816 33.6561 17.7053C33.8099 17.6284 33.8843 17.4776 33.8843 17.2572C33.8843 17.0829 33.7873 16.9314 33.5881 16.8025C33.389 16.6712 33.0895 16.5253 32.6833 16.359C32.3684 16.2334 32.082 16.1039 31.8237 15.9701C31.5689 15.8339 31.3503 15.6751 31.17 15.4862C30.9901 15.2981 30.851 15.0727 30.7506 14.8102C30.6503 14.5523 30.6025 14.2404 30.6025 13.8723C30.6025 13.1599 30.851 12.595 31.3454 12.1808Z" fill="white"/>
</mask>
<g mask="url(#mask3_53_1425)">
<path fill-rule="evenodd" clip-rule="evenodd" d="M-96.9659 40.7319L186.725 40.7319V-361.164H-96.9659L-96.9659 40.7319Z" fill="#03435F"/>
<path fill-rule="evenodd" clip-rule="evenodd" d="M27.0359 22.9468H39.2616V8.17995H27.0359V22.9468Z" fill="#03435F"/>
</g>
<path fill-rule="evenodd" clip-rule="evenodd" d="M42.0903 15.0001C41.9098 15.7329 41.7196 16.4624 41.5165 17.1837C41.3141 17.9076 41.0987 18.6355 40.8763 19.3682H39.3087C39.1459 18.9629 38.9688 18.4815 38.7793 17.923C38.5882 17.3621 38.3933 16.7533 38.1885 16.0912C37.986 15.4313 37.779 14.7327 37.5668 13.9934C37.354 13.2575 37.1476 12.5134 36.9502 11.7604H39.0723C39.1427 12.1064 39.2228 12.4867 39.3093 12.8959C39.3952 13.306 39.4858 13.7284 39.5805 14.1629C39.6752 14.5958 39.7764 15.0309 39.8799 15.4702C39.9843 15.9095 40.0913 16.3302 40.1995 16.7348C40.317 16.3109 40.432 15.878 40.5444 15.4346C40.6553 14.9905 40.7646 14.5543 40.8689 14.1256C40.9718 13.6976 41.073 13.2818 41.1651 12.8814C41.2591 12.4817 41.3425 12.1064 41.4161 11.7604H42.8737C42.9481 12.1064 43.0265 12.4817 43.118 12.8814C43.207 13.2818 43.3018 13.6976 43.4022 14.1256C43.4993 14.5543 43.6053 14.9905 43.7113 15.4346C43.8205 15.878 43.9323 16.3109 44.048 16.7348C44.1572 16.3302 44.2657 15.9095 44.3749 15.4702C44.4842 15.0309 44.5869 14.5958 44.6809 14.1629C44.7748 13.7284 44.8654 13.306 44.9529 12.8959C45.0394 12.4867 45.118 12.1064 45.1899 11.7604H47.2845C47.0855 12.5134 46.8807 13.2575 46.6678 13.9934C46.4533 14.7327 46.2485 15.4313 46.0438 16.0912C45.8422 16.7533 45.6432 17.3621 45.4497 17.923C45.2548 18.4815 45.075 18.9629 44.9149 19.3682H43.3472C43.1204 18.6355 42.9004 17.9076 42.6835 17.1837C42.4674 16.4624 42.2715 15.7329 42.0903 15.0001Z" fill="#03435F"/>
<mask id="mask4_53_1425" style="mask-type:alpha" maskUnits="userSpaceOnUse" x="36" y="11" width="12" height="9">
<path d="M45.1899 11.7604H47.2845C47.0855 12.5134 46.8807 13.2575 46.6677 13.9933C46.4533 14.7327 46.2485 15.4314 46.0437 16.0912C45.8422 16.7533 45.6432 17.3621 45.4496 17.923C45.2546 18.4815 45.075 18.9628 44.9147 19.3682H43.3471C43.1204 18.6355 42.9004 17.9074 42.6835 17.1836C42.4674 16.4624 42.2715 15.7329 42.0903 15.0001C41.9097 15.7329 41.7195 16.4624 41.5165 17.1836C41.3141 17.9074 41.0987 18.6355 40.8762 19.3682H39.3085C39.1458 18.9628 38.9686 18.4815 38.7792 17.923C38.5882 17.3621 38.3932 16.7533 38.1885 16.0912C37.986 15.4314 37.7789 14.7327 37.5668 13.9933C37.354 13.2575 37.1476 12.5134 36.9502 11.7604H39.0721C39.1427 12.1064 39.2228 12.4866 39.3093 12.8959C39.3952 13.306 39.4857 13.7284 39.5805 14.1627C39.6751 14.5956 39.7764 15.0309 39.8799 15.4702C39.9844 15.9095 40.0913 16.3302 40.1995 16.7348C40.3169 16.3109 40.4318 15.8778 40.5443 15.4346C40.6552 14.9905 40.7646 14.5543 40.8689 14.1256C40.9717 13.6975 41.0728 13.2817 41.1652 12.8814C41.2591 12.4817 41.3425 12.1064 41.416 11.7604H42.8737C42.948 12.1064 43.0265 12.4817 43.118 12.8814C43.207 13.2817 43.3018 13.6975 43.4021 14.1256C43.4993 14.5543 43.6052 14.9905 43.7113 15.4346C43.8205 15.8778 43.9323 16.3109 44.0479 16.7348C44.1572 16.3302 44.2656 15.9095 44.3749 15.4702C44.4842 15.0309 44.587 14.5956 44.6809 14.1627C44.7748 13.7284 44.8654 13.306 44.9528 12.8959C45.0394 12.4866 45.118 12.1064 45.1899 11.7604Z" fill="white"/>
</mask>
<g mask="url(#mask4_53_1425)">
<path fill-rule="evenodd" clip-rule="evenodd" d="M-96.9659 40.7319L186.725 40.7319V-361.164H-96.9659L-96.9659 40.7319Z" fill="#03435F"/>
<path fill-rule="evenodd" clip-rule="evenodd" d="M33.5729 22.7456H50.6617V8.38318L33.5729 8.38318V22.7456Z" fill="#03435F"/>
</g>
<path fill-rule="evenodd" clip-rule="evenodd" d="M48.7079 19.3652H50.7183V11.759H48.7079V19.3652Z" fill="#03435F"/>
<mask id="mask5_53_1425" style="mask-type:alpha" maskUnits="userSpaceOnUse" x="48" y="11" width="3" height="9">
<path d="M48.7079 19.3655V11.7593H50.7184V19.3655H48.7079Z" fill="white"/>
</mask>
<g mask="url(#mask5_53_1425)">
<path fill-rule="evenodd" clip-rule="evenodd" d="M-96.9659 40.7319L186.725 40.7319V-361.164H-96.9659L-96.9659 40.7319Z" fill="#03435F"/>
<path fill-rule="evenodd" clip-rule="evenodd" d="M45.3304 22.7427H54.0954V8.38183H45.3304V22.7427Z" fill="#03435F"/>
</g>
<path fill-rule="evenodd" clip-rule="evenodd" d="M52.3174 9.86224L54.3294 9.48052V11.7629H56.3204V13.5526H54.3294V16.2291C54.3294 16.6821 54.4038 17.047 54.5519 17.3137C54.7 17.5836 55.0002 17.7189 55.4495 17.7189C55.6672 17.7189 55.8906 17.6994 56.1188 17.6549C56.3494 17.6111 56.5583 17.5487 56.7485 17.4733L57.031 19.1512C56.7873 19.258 56.5162 19.3489 56.2209 19.4267C55.922 19.5028 55.5604 19.5417 55.1265 19.5417C54.5763 19.5417 54.1222 19.4624 53.762 19.3018C53.4011 19.1454 53.1129 18.9242 52.8977 18.6372C52.6824 18.3552 52.5319 18.0074 52.4454 17.6046C52.3579 17.1986 52.3174 16.7495 52.3174 16.259V9.86224Z" fill="#03435F"/>
<mask id="mask6_53_1425" style="mask-type:alpha" maskUnits="userSpaceOnUse" x="52" y="9" width="6" height="11">
<path d="M52.3175 9.86225L54.3294 9.48052V11.763H56.3204V13.5526H54.3294V16.2291C54.3294 16.6821 54.4039 17.0469 54.552 17.3137C54.7002 17.5836 55.0003 17.7188 55.4495 17.7188C55.6672 17.7188 55.8907 17.6994 56.1189 17.6549C56.3495 17.6109 56.5584 17.5487 56.7484 17.4733L57.031 19.1511C56.7874 19.258 56.5161 19.3489 56.221 19.4267C55.9221 19.5028 55.5605 19.5417 55.1266 19.5417C54.5764 19.5417 54.1222 19.4624 53.7622 19.3018C53.4011 19.1453 53.113 18.9242 52.8978 18.6373C52.6825 18.3552 52.532 18.0075 52.4454 17.6046C52.358 17.1986 52.3175 16.7494 52.3175 16.2591V9.86225Z" fill="white"/>
</mask>
<g mask="url(#mask6_53_1425)">
<path fill-rule="evenodd" clip-rule="evenodd" d="M-96.9659 40.7319L186.725 40.7319V-361.164H-96.9659L-96.9659 40.7319Z" fill="#03435F"/>
<path fill-rule="evenodd" clip-rule="evenodd" d="M48.9401 22.9192H60.4083V6.10326H48.9401V22.9192Z" fill="#03435F"/>
</g>
<path fill-rule="evenodd" clip-rule="evenodd" d="M57.7421 15.5662C57.7421 15.0157 57.8256 14.497 57.9922 14.0107C58.1589 13.5227 58.3994 13.0997 58.7143 12.7373C59.0298 12.3751 59.4118 12.0896 59.8634 11.8766C60.3126 11.6666 60.8257 11.558 61.4019 11.558C61.7799 11.558 62.1271 11.5961 62.4427 11.6674C62.7585 11.7412 63.066 11.8442 63.3613 11.9778L62.9438 13.6987C62.7536 13.6224 62.5471 13.556 62.3206 13.496C62.0955 13.4392 61.8422 13.4094 61.5639 13.4094C60.9698 13.4094 60.5254 13.6078 60.2348 14.0034C59.9394 14.3998 59.7954 14.9194 59.7954 15.5662C59.7954 16.2494 59.9322 16.7802 60.209 17.1564C60.4809 17.5317 60.9617 17.7206 61.6455 17.7206C61.8892 17.7206 62.1489 17.6953 62.4298 17.6476C62.7082 17.5989 62.9647 17.5228 63.2011 17.4158L63.4829 19.1812C63.2479 19.2873 62.9567 19.3765 62.6055 19.455C62.2526 19.5315 61.8664 19.571 61.444 19.571C60.7957 19.571 60.2357 19.4657 59.7687 19.2589C59.301 19.0523 58.9149 18.7701 58.6138 18.4135C58.3103 18.0561 58.0918 17.6347 57.9519 17.1483C57.8118 16.6612 57.7421 16.1328 57.7421 15.5662Z" fill="#03435F"/>
<mask id="mask7_53_1425" style="mask-type:alpha" maskUnits="userSpaceOnUse" x="57" y="11" width="7" height="9">
<path d="M59.8633 11.8768C60.3125 11.6669 60.8257 11.5582 61.4019 11.5582C61.7798 11.5582 62.1271 11.5962 62.4426 11.6675C62.7583 11.7414 63.066 11.8443 63.3613 11.9781L62.9438 13.6988C62.7535 13.6227 62.5471 13.5563 62.3205 13.4963C62.0954 13.4393 61.8422 13.4095 61.5637 13.4095C60.9698 13.4095 60.5254 13.6081 60.2348 14.0036C59.9394 14.3999 59.7954 14.9195 59.7954 15.5664C59.7954 16.2496 59.9323 16.7805 60.209 17.1567C60.4809 17.5319 60.9616 17.7208 61.6454 17.7208C61.8891 17.7208 62.1489 17.6956 62.4298 17.6478C62.7082 17.5992 62.9647 17.523 63.201 17.4159L63.4827 19.1814C63.248 19.2876 62.9567 19.3766 62.6054 19.4553C62.2526 19.5316 61.8665 19.5713 61.444 19.5713C60.7955 19.5713 60.2357 19.4658 59.7686 19.259C59.301 19.0524 58.9148 18.7704 58.6136 18.4139C58.3104 18.0564 58.0918 17.6349 57.9519 17.1485C57.8118 16.6614 57.7421 16.1329 57.7421 15.5664C57.7421 15.0159 57.8256 14.4973 57.9922 14.011C58.1589 13.523 58.3994 13.0998 58.7141 12.7374C59.0298 12.3752 59.4118 12.0899 59.8633 11.8768Z" fill="white"/>
</mask>
<g mask="url(#mask7_53_1425)">
<path fill-rule="evenodd" clip-rule="evenodd" d="M-96.9659 40.7319L186.725 40.7319V-361.164H-96.9659L-96.9659 40.7319Z" fill="#03435F"/>
<path fill-rule="evenodd" clip-rule="evenodd" d="M54.3649 22.9485H66.8599V8.18074H54.3649V22.9485Z" fill="#03435F"/>
</g>
<path fill-rule="evenodd" clip-rule="evenodd" d="M64.7834 19.3655V9.85933L66.7962 9.48089V11.7909C66.9305 11.7431 67.103 11.6969 67.3167 11.6532C67.527 11.6102 67.7334 11.5875 67.931 11.5875C68.5063 11.5875 68.9846 11.6726 69.3681 11.8404C69.7503 12.009 70.0586 12.2482 70.2868 12.5569C70.5183 12.8641 70.6785 13.2321 70.7749 13.6544C70.8679 14.0798 70.9148 14.5533 70.9148 15.0737V19.3655H68.9028V15.3322C68.9028 14.6383 68.8195 14.1472 68.6536 13.8562C68.4869 13.57 68.1777 13.425 67.7286 13.425C67.5457 13.425 67.3788 13.4421 67.2203 13.4745C67.0632 13.5085 66.9217 13.5458 66.7962 13.5839V19.3655H64.7834Z" fill="#03435F"/>
<mask id="mask8_53_1425" style="mask-type:alpha" maskUnits="userSpaceOnUse" x="64" y="9" width="7" height="11">
<path d="M64.7834 9.85933L66.7961 9.4809V11.7911C66.9305 11.7431 67.103 11.6969 67.3167 11.6532C67.527 11.6102 67.7334 11.5876 67.931 11.5876C68.5063 11.5876 68.9847 11.6727 69.3683 11.8404C69.7503 12.0092 70.0587 12.2482 70.2868 12.557C70.5182 12.8642 70.6786 13.2321 70.7749 13.6546C70.8679 14.0799 70.9147 14.5533 70.9147 15.0738V19.3655H68.9029V15.3322C68.9029 14.6384 68.8194 14.1472 68.6536 13.8562C68.4868 13.5701 68.1777 13.425 67.7285 13.425C67.5457 13.425 67.3788 13.4421 67.2203 13.4746C67.0632 13.5085 66.9217 13.5458 66.7961 13.5839V19.3655H64.7834V9.85933Z" fill="white"/>
</mask>
<g mask="url(#mask8_53_1425)">
<path fill-rule="evenodd" clip-rule="evenodd" d="M-96.9659 40.7319L186.725 40.7319V-361.164H-96.9659L-96.9659 40.7319Z" fill="#03435F"/>
<path fill-rule="evenodd" clip-rule="evenodd" d="M61.4061 22.7429H74.292V6.10359H61.4061V22.7429Z" fill="#03435F"/>
</g>
<path fill-rule="evenodd" clip-rule="evenodd" d="M4.10034 19.3682V12.4753C4.10034 12.4753 5.11198 11.6104 7.32469 11.6104C9.33825 11.6104 10.444 12.6877 10.444 15.0585V19.3682H8.43276V15.0585C8.43276 13.5485 7.72693 13.4439 7.12397 13.4439C6.52101 13.4439 6.11719 13.7648 6.11719 13.7648V19.3682H4.10034Z" fill="#03435F"/>
<mask id="mask9_53_1425" style="mask-type:alpha" maskUnits="userSpaceOnUse" x="4" y="11" width="7" height="9">
<path d="M4.10046 12.4753C4.10046 12.4753 5.11211 11.6104 7.32481 11.6104C9.33837 11.6104 10.4439 12.6875 10.4439 15.0586V19.3682H8.43288V15.0586C8.43288 13.5483 7.72705 13.4439 7.12409 13.4439C6.52113 13.4439 6.11731 13.765 6.11731 13.765V19.3682H4.10046V12.4753Z" fill="white"/>
</mask>
<g mask="url(#mask9_53_1425)">
<path fill-rule="evenodd" clip-rule="evenodd" d="M-96.9659 40.7319L186.725 40.7319V-361.164H-96.9659L-96.9659 40.7319Z" fill="#03435F"/>
<path fill-rule="evenodd" clip-rule="evenodd" d="M0.723267 22.7454H13.8212L13.8212 8.23305H0.723267L0.723267 22.7454Z" fill="#03435F"/>
</g>
<path fill-rule="evenodd" clip-rule="evenodd" d="M0.311157 19.3682L0.311157 9.86037L2.32473 9.48097L2.32473 19.3682H0.311157Z" fill="#03435F"/>
<mask id="mask10_53_1425" style="mask-type:alpha" maskUnits="userSpaceOnUse" x="0" y="9" width="3" height="11">
<path d="M0.311157 9.8605L2.32473 9.48097L2.32473 19.3682H0.311157L0.311157 9.8605Z" fill="white"/>
</mask>
<g mask="url(#mask10_53_1425)">
<path fill-rule="evenodd" clip-rule="evenodd" d="M-96.9659 40.7319L186.725 40.7319V-361.164H-96.9659L-96.9659 40.7319Z" fill="#03435F"/>
<path fill-rule="evenodd" clip-rule="evenodd" d="M-3.06616 22.7456H5.70205L5.70205 6.10391H-3.06616L-3.06616 22.7456Z" fill="#03435F"/>
</g>
<path fill-rule="evenodd" clip-rule="evenodd" d="M24.0878 16.1107H19.5588C19.5588 16.1107 19.6599 17.7261 21.6711 17.7261C22.678 17.7261 23.6848 17.4043 23.6848 17.4043L23.8863 19.1299C23.8863 19.1299 22.8803 19.5571 21.4721 19.5571C19.4576 19.5571 17.6464 18.4814 17.6464 15.4655C17.6464 13.0938 19.0546 11.5879 21.0675 11.5879C24.0878 11.5879 24.2901 14.8154 24.0878 16.1107ZM20.9687 13.0938C19.6599 13.0938 19.5588 14.6014 19.5588 14.6014H22.3752C22.3752 14.6014 22.2766 13.0938 20.9687 13.0938Z" fill="#03435F"/>
<mask id="mask11_53_1425" style="mask-type:alpha" maskUnits="userSpaceOnUse" x="17" y="11" width="8" height="9">
<path d="M17.6465 15.4657C17.6465 13.0939 19.0547 11.588 21.0675 11.588C24.0878 11.588 24.2901 14.8156 24.0878 16.1108H19.5589C19.5589 16.1108 19.66 17.7262 21.6711 17.7262C22.678 17.7262 23.6848 17.4044 23.6848 17.4044L23.8863 19.13C23.8863 19.13 22.8803 19.5574 21.4721 19.5574C19.4578 19.5574 17.6465 18.4817 17.6465 15.4657ZM20.9687 13.0939C19.66 13.0939 19.5589 14.6016 19.5589 14.6016H22.3754C22.3754 14.6016 22.2766 13.0939 20.9687 13.0939Z" fill="white"/>
</mask>
<g mask="url(#mask11_53_1425)">
<path fill-rule="evenodd" clip-rule="evenodd" d="M-96.9659 40.7319L186.725 40.7319V-361.164H-96.9659L-96.9659 40.7319Z" fill="#03435F"/>
<path fill-rule="evenodd" clip-rule="evenodd" d="M14.2692 22.9346H27.5214V8.21065H14.2692L14.2692 22.9346Z" fill="#03435F"/>
</g>
<mask id="mask12_53_1425" style="mask-type:alpha" maskUnits="userSpaceOnUse" x="73" y="8" width="14" height="18">
<path d="M73.5819 9.48279C73.5819 9.0232 79.3708 8.03142 83.2533 8.03142C84.9369 8.03142 86.2619 8.21794 86.6009 8.71514C88.349 11.0236 76.0424 25.5064 75.017 25.0671C74.1946 24.8474 81.5781 15.6291 80.3474 11.8966C79.7329 9.92291 73.5819 10.1425 73.5819 9.48279Z" fill="white"/>
</mask>
<g mask="url(#mask12_53_1425)">
<path fill-rule="evenodd" clip-rule="evenodd" d="M70.2047 28.4543H90.1478V4.65426H70.2047V28.4543Z" fill="#ED342B"/>
</g>
<mask id="mask13_53_1425" style="mask-type:alpha" maskUnits="userSpaceOnUse" x="73" y="8" width="14" height="18">
<path d="M73.5819 9.48279C73.5819 9.0232 79.3708 8.03142 83.2533 8.03142C84.9369 8.03142 86.2619 8.21794 86.6009 8.71514C88.349 11.0236 76.0424 25.5064 75.017 25.0671C74.1946 24.8474 81.5781 15.6291 80.3474 11.8966C79.7329 9.92291 73.5819 10.1425 73.5819 9.48279Z" fill="white"/>
</mask>
<g mask="url(#mask13_53_1425)">
<path fill-rule="evenodd" clip-rule="evenodd" d="M70.2047 28.4543H90.1478V4.65426H70.2047V28.4543Z" fill="#ED342B"/>
</g>
<mask id="mask14_53_1425" style="mask-type:alpha" maskUnits="userSpaceOnUse" x="84" y="0" width="6" height="7">
<path d="M84.038 3.77685C84.038 2.20039 85.2318 0.924616 86.7032 0.924616C88.176 0.924616 89.3682 2.20039 89.3682 3.77685C89.3682 5.35411 88.176 6.62988 86.7032 6.62988C85.2318 6.62988 84.038 5.35411 84.038 3.77685Z" fill="white"/>
</mask>
<g mask="url(#mask14_53_1425)">
<path fill-rule="evenodd" clip-rule="evenodd" d="M80.6609 10.0073H92.7456V-2.45272H80.6609V10.0073Z" fill="#ED342B"/>
<path fill-rule="evenodd" clip-rule="evenodd" d="M80.6609 10.0073H92.7456V-2.45272H80.6609V10.0073Z" fill="#ED342B"/>
</g>
</g>
<defs>
<clipPath id="clip0_53_1425">
<rect width="89.3547" height="24.4771" fill="white" transform="translate(0.145264 0.762207)"/>
</clipPath>
</defs>
</svg>
