<svg width="19" height="19" viewBox="0 0 19 19" fill="none" xmlns="http://www.w3.org/2000/svg">
<g clip-path="url(#clip0_120_5941)">
<path fill-rule="evenodd" clip-rule="evenodd" d="M9.5 1.5835C11.3897 1.5835 13.2019 2.33416 14.5381 3.67036C15.8743 5.00656 16.625 6.81883 16.625 8.7085C16.625 11.1421 15.2982 13.1339 13.9001 14.5629C13.2016 15.2691 12.4394 15.9094 11.6233 16.4755L11.286 16.7051L11.1277 16.8104L10.8292 17.0004L10.5632 17.1627L10.2339 17.3543C10.0103 17.4819 9.75739 17.549 9.5 17.549C9.24261 17.549 8.98966 17.4819 8.76613 17.3543L8.43679 17.1627L8.02513 16.9094L7.87313 16.8104L7.54854 16.5943C6.66808 15.9986 5.84797 15.3182 5.09992 14.5629C3.70183 13.1331 2.375 11.1421 2.375 8.7085C2.375 6.81883 3.12567 5.00656 4.46186 3.67036C5.79806 2.33416 7.61033 1.5835 9.5 1.5835ZM9.5 3.16683C8.03026 3.16683 6.62071 3.75068 5.58145 4.78995C4.54219 5.82921 3.95833 7.23875 3.95833 8.7085C3.95833 10.5467 4.96533 12.1602 6.23121 13.4553C6.7755 14.0063 7.36381 14.512 7.99029 14.9674L8.35287 15.2255C8.47004 15.3073 8.58272 15.3833 8.69092 15.4535L8.99967 15.6514L9.27121 15.8169L9.5 15.9507L9.86021 15.7377L10.1507 15.5556C10.3054 15.4575 10.4708 15.3474 10.6471 15.2255L11.0097 14.9674C11.6362 14.512 12.2245 14.0063 12.7688 13.4553C14.0347 12.161 15.0417 10.5467 15.0417 8.7085C15.0417 7.23875 14.4578 5.82921 13.4186 4.78995C12.3793 3.75068 10.9697 3.16683 9.5 3.16683ZM9.5 5.54183C10.3399 5.54183 11.1453 5.87546 11.7392 6.46932C12.333 7.06319 12.6667 7.86864 12.6667 8.7085C12.6667 9.54835 12.333 10.3538 11.7392 10.9477C11.1453 11.5415 10.3399 11.8752 9.5 11.8752C8.66015 11.8752 7.85469 11.5415 7.26083 10.9477C6.66696 10.3538 6.33333 9.54835 6.33333 8.7085C6.33333 7.86864 6.66696 7.06319 7.26083 6.46932C7.85469 5.87546 8.66015 5.54183 9.5 5.54183ZM9.5 7.12516C9.08007 7.12516 8.67735 7.29198 8.38041 7.58891C8.08348 7.88584 7.91667 8.28857 7.91667 8.7085C7.91667 9.12842 8.08348 9.53115 8.38041 9.82808C8.67735 10.125 9.08007 10.2918 9.5 10.2918C9.91993 10.2918 10.3227 10.125 10.6196 9.82808C10.9165 9.53115 11.0833 9.12842 11.0833 8.7085C11.0833 8.28857 10.9165 7.88584 10.6196 7.58891C10.3227 7.29198 9.91993 7.12516 9.5 7.12516Z" fill="#494C50"/>
</g>
<defs>
<clipPath id="clip0_120_5941">
<rect width="19" height="19" fill="white"/>
</clipPath>
</defs>
</svg>
