<svg width="20" height="21" viewBox="0 0 20 21" fill="none" xmlns="http://www.w3.org/2000/svg">
<path fill-rule="evenodd" clip-rule="evenodd" d="M13.53 2.655L13.545 2.64L15.03 4.125V0.75L14.28 0H0.78L0.015 0.75V1.4895L0 1.5V16.935L0.54 17.625L8.04 20.205L9 19.5V18H14.28L15.03 17.25V13.875L13.53 15.375V16.5H9V4.065L8.505 3.375L3.054 1.5H13.53V2.655ZM7.5 18.42L1.5 16.41V2.58L7.5 4.59V18.42ZM12.135 8.295H19.59V9.795H12.195L14.58 12.195L13.515 13.245L9.81 9.555V8.49L13.545 4.77L14.595 5.82L12.135 8.295Z" fill="#001414"/>
</svg>
