<svg width="36" height="25" viewBox="0 0 36 25" fill="none" xmlns="http://www.w3.org/2000/svg">
<rect x="1" y="1.26221" width="34" height="23" rx="3.5" fill="white" stroke="#D9D9D9"/>
<path fill-rule="evenodd" clip-rule="evenodd" d="M18.25 17.9191C17.0584 18.9474 15.5128 19.5682 13.8238 19.5682C10.0551 19.5682 7 16.4776 7 12.6652C7 8.85278 10.0551 5.76221 13.8238 5.76221C15.5128 5.76221 17.0584 6.38296 18.25 7.41124C19.4416 6.38296 20.9872 5.76221 22.6762 5.76221C26.4449 5.76221 29.5 8.85278 29.5 12.6652C29.5 16.4776 26.4449 19.5682 22.6762 19.5682C20.9872 19.5682 19.4416 18.9474 18.25 17.9191Z" fill="#ED0006"/>
<path fill-rule="evenodd" clip-rule="evenodd" d="M18.25 17.9191C19.7172 16.653 20.6475 14.769 20.6475 12.6652C20.6475 10.5614 19.7172 8.67738 18.25 7.41124C19.4416 6.38296 20.9872 5.76221 22.6762 5.76221C26.4449 5.76221 29.5 8.85278 29.5 12.6652C29.5 16.4776 26.4449 19.5682 22.6762 19.5682C20.9872 19.5682 19.4416 18.9474 18.25 17.9191Z" fill="#F9A000"/>
<path fill-rule="evenodd" clip-rule="evenodd" d="M18.25 7.41138C19.7172 8.67751 20.6476 10.5615 20.6476 12.6653C20.6476 14.7691 19.7172 16.6531 18.25 17.9192C16.7829 16.6531 15.8525 14.7691 15.8525 12.6653C15.8525 10.5615 16.7829 8.67751 18.25 7.41138Z" fill="#FF5E00"/>
</svg>
