<svg width="30" height="30" viewBox="0 0 30 30" fill="none" xmlns="http://www.w3.org/2000/svg">
<rect width="30" height="30" rx="10" fill="#E4E0E5"/>
<path d="M21.6581 20.7944C22.1224 20.7944 22.5 21.1769 22.5 21.6472C22.5 22.1184 22.1224 22.5 21.6581 22.5H16.8997C16.4355 22.5 16.0579 22.1184 16.0579 21.6472C16.0579 21.1769 16.4355 20.7944 16.8997 20.7944H21.6581ZM18.3582 8.08255L19.5874 9.05899C20.0914 9.45314 20.4275 9.97271 20.5424 10.5192C20.6751 11.1202 20.5336 11.7106 20.1357 12.2212L12.8137 21.6899C12.4776 22.1199 11.9824 22.3618 11.4518 22.3707L8.53366 22.4066C8.37449 22.4066 8.24184 22.2991 8.20647 22.1468L7.54325 19.2712C7.42829 18.7427 7.54325 18.1963 7.87928 17.7752L13.0701 11.0566C13.1585 10.9491 13.3177 10.9321 13.4238 11.0119L15.608 12.7497C15.7495 12.8662 15.9441 12.9289 16.1475 12.902C16.5808 12.8483 16.8726 12.4541 16.8284 12.0331C16.8018 11.8181 16.6957 11.6389 16.5542 11.5045C16.51 11.4687 14.4319 9.80251 14.4319 9.80251C14.2993 9.69501 14.2728 9.49793 14.3789 9.36446L15.2013 8.29755C15.9618 7.32111 17.2882 7.23153 18.3582 8.08255Z" fill="black"/>
</svg>
