<svg width="20" height="22" viewBox="0 0 20 22" fill="none" xmlns="http://www.w3.org/2000/svg">
<path d="M7.107 1.674C8.00663 1.22973 8.99665 0.999078 10 1C13.727 1 16.75 4.136 16.75 8.005V8.71C16.7488 9.55156 16.989 10.3758 17.442 11.085L18.55 12.809C19.561 14.384 18.789 16.525 17.03 17.023C12.4339 18.326 7.56611 18.326 2.97 17.023C1.211 16.525 0.439001 14.384 1.45 12.81L2.558 11.085C3.01105 10.3758 3.2512 9.55156 3.25 8.71V8.005C3.25 6.931 3.483 5.913 3.9 5.003M5.5 18C6.155 19.748 7.922 21 10 21C10.245 21 10.485 20.983 10.72 20.95M14.5 18C14.2292 18.7139 13.7811 19.3471 13.198 19.84" stroke="#001414" stroke-width="1.5" stroke-linecap="round"/>
</svg>
