<svg width="36" height="25" viewBox="0 0 36 25" fill="none" xmlns="http://www.w3.org/2000/svg">
<rect x="1" y="1.26221" width="34" height="23" rx="3.5" fill="white" stroke="#D9D9D9"/>
<path fill-rule="evenodd" clip-rule="evenodd" d="M10.4 16.0032H8.84439C8.73794 16.0032 8.6474 16.0805 8.6308 16.1856L8.00163 20.1747C7.98913 20.2534 8.05009 20.3243 8.12993 20.3243H8.87259C8.97905 20.3243 9.06958 20.247 9.08618 20.1417L9.25588 19.0658C9.27225 18.9604 9.363 18.8832 9.46924 18.8832H9.96169C10.9864 18.8832 11.5778 18.3873 11.7323 17.4047C11.8019 16.9748 11.7353 16.637 11.5339 16.4003C11.3129 16.1406 10.9206 16.0032 10.4 16.0032ZM10.5795 17.4601C10.4944 18.0183 10.0679 18.0183 9.65553 18.0183H9.42078L9.58547 16.9758C9.59525 16.9129 9.64984 16.8664 9.71353 16.8664H9.82112C10.102 16.8664 10.3671 16.8664 10.504 17.0265C10.5856 17.1221 10.6106 17.264 10.5795 17.4601ZM15.0501 17.4422H14.3052C14.2417 17.4422 14.1869 17.4887 14.1771 17.5517L14.1441 17.76L14.092 17.6845C13.9308 17.4504 13.5712 17.3722 13.2122 17.3722C12.389 17.3722 11.6859 17.9957 11.549 18.8703C11.4778 19.3066 11.579 19.7237 11.8264 20.0147C12.0535 20.2821 12.3783 20.3936 12.7647 20.3936C13.428 20.3936 13.7959 19.9671 13.7959 19.9671L13.7626 20.1741C13.7501 20.2533 13.8111 20.3242 13.8904 20.3242H14.5615C14.6682 20.3242 14.7582 20.2469 14.7751 20.1416L15.1777 17.5919C15.1904 17.5135 15.1297 17.4422 15.0501 17.4422ZM14.0117 18.8921C13.9398 19.3177 13.602 19.6034 13.1713 19.6034C12.955 19.6034 12.782 19.534 12.6711 19.4026C12.561 19.272 12.5191 19.0861 12.5541 18.8792C12.6213 18.4572 12.9647 18.1622 13.389 18.1622C13.6004 18.1622 13.7724 18.2324 13.8857 18.3651C13.9992 18.4991 14.0442 18.686 14.0117 18.8921ZM18.269 17.4421H19.0176C19.1224 17.4421 19.1836 17.5597 19.124 17.6457L16.6342 21.2396C16.5939 21.2978 16.5275 21.3324 16.4565 21.3324H15.7089C15.6036 21.3324 15.5421 21.2139 15.6031 21.1277L16.3783 20.0334L15.5538 17.6136C15.5253 17.5295 15.5874 17.4421 15.6769 17.4421H16.4124C16.508 17.4421 16.5923 17.5049 16.6199 17.5963L17.0575 19.0578L18.09 17.537C18.1304 17.4776 18.1976 17.4421 18.269 17.4421Z" fill="#253B80"/>
<path fill-rule="evenodd" clip-rule="evenodd" d="M26.3854 20.1746L27.0238 16.1126C27.0336 16.0496 27.0882 16.0031 27.1517 16.0029H27.8705C27.9498 16.0029 28.0108 16.0741 27.9982 16.1528L27.3687 20.1417C27.3522 20.2469 27.2617 20.3243 27.1551 20.3243H26.5132C26.4338 20.3243 26.3729 20.2534 26.3854 20.1746ZM21.496 16.0031H19.9401C19.8339 16.0031 19.7434 16.0805 19.7267 16.1856L19.0976 20.1746C19.0851 20.2534 19.146 20.3243 19.2255 20.3243H20.0238C20.098 20.3243 20.1615 20.2702 20.1731 20.1965L20.3516 19.0658C20.368 18.9604 20.4587 18.8831 20.565 18.8831H21.0572C22.0821 18.8831 22.6734 18.3873 22.828 17.4046C22.8978 16.9747 22.8308 16.6369 22.6295 16.4003C22.4085 16.1406 22.0166 16.0031 21.496 16.0031ZM21.6755 17.4601C21.5906 18.0183 21.1641 18.0183 20.7515 18.0183H20.517L20.6819 16.9758C20.6917 16.9128 20.7458 16.8664 20.8097 16.8664H20.9173C21.198 16.8664 21.4633 16.8664 21.6001 17.0265C21.6818 17.1221 21.7066 17.264 21.6755 17.4601ZM26.1457 17.4422H25.4013C25.3373 17.4422 25.283 17.4886 25.2734 17.5517L25.2404 17.76L25.1881 17.6845C25.0269 17.4504 24.6675 17.3722 24.3085 17.3722C23.4853 17.3722 22.7824 17.9957 22.6455 18.8703C22.5745 19.3065 22.6753 19.7237 22.9228 20.0146C23.1502 20.2821 23.4746 20.3936 23.8611 20.3936C24.5243 20.3936 24.8921 19.967 24.8921 19.967L24.859 20.1741C24.8464 20.2533 24.9074 20.3242 24.9873 20.3242H25.658C25.7642 20.3242 25.8548 20.2468 25.8714 20.1416L26.2742 17.5919C26.2865 17.5135 26.2256 17.4422 26.1457 17.4422ZM25.1074 18.8921C25.0359 19.3177 24.6977 19.6034 24.2669 19.6034C24.051 19.6034 23.8777 19.534 23.7666 19.4025C23.6565 19.272 23.6152 19.0861 23.6498 18.8791C23.7173 18.4571 24.0603 18.1622 24.4845 18.1622C24.6961 18.1622 24.868 18.2324 24.9814 18.365C25.0953 18.499 25.1403 18.686 25.1074 18.8921Z" fill="#179BD7"/>
<path d="M16.157 14.576L16.3483 13.3613L15.9223 13.3514H13.8881L15.3017 4.38755C15.3061 4.36049 15.3204 4.33526 15.3412 4.31734C15.3621 4.29942 15.3888 4.28955 15.4166 4.28955H18.8466C19.9853 4.28955 20.7711 4.52651 21.1814 4.99421C21.3738 5.21362 21.4963 5.44289 21.5556 5.69521C21.6177 5.95997 21.6188 6.27627 21.5581 6.66206L21.5537 6.69022V6.93741L21.7461 7.04639C21.9081 7.13232 22.0367 7.23068 22.1354 7.34332C22.3001 7.53091 22.4065 7.76933 22.4515 8.05199C22.4979 8.34271 22.4825 8.68863 22.4065 9.08028C22.3187 9.5308 22.1768 9.92316 21.9852 10.2442C21.8089 10.5401 21.5844 10.7854 21.3179 10.9756C21.0633 11.1562 20.7609 11.2934 20.419 11.3812C20.0877 11.4674 19.71 11.511 19.2957 11.511H19.0287C18.8379 11.511 18.6524 11.5797 18.5069 11.703C18.361 11.8287 18.2644 12.0005 18.2348 12.1885L18.2147 12.2979L17.8768 14.4389L17.8614 14.5175C17.8574 14.5424 17.8505 14.5549 17.8403 14.5633C17.8311 14.5709 17.818 14.576 17.8051 14.576H16.157Z" fill="#253B80"/>
<path d="M21.9281 6.71875C21.9179 6.7842 21.9062 6.85112 21.8931 6.91987C21.4407 9.24228 19.8932 10.0446 17.9166 10.0446H16.9103C16.6686 10.0446 16.465 10.2201 16.4273 10.4585L15.912 13.7262L15.7661 14.6525C15.7416 14.809 15.8623 14.9501 16.0202 14.9501H17.8052C18.0165 14.9501 18.196 14.7966 18.2293 14.5881L18.2469 14.4974L18.583 12.3648L18.6045 12.2478C18.6374 12.0387 18.8173 11.8851 19.0286 11.8851H19.2956C21.0249 11.8851 22.3787 11.183 22.7743 9.15123C22.9396 8.30249 22.854 7.59382 22.4167 7.09539C22.2843 6.9451 22.1201 6.8204 21.9281 6.71875Z" fill="#179BD7"/>
<path d="M21.4548 6.53028C21.3858 6.51016 21.3144 6.49188 21.2412 6.47543C21.1678 6.45934 21.0924 6.44508 21.0149 6.43265C20.7436 6.38876 20.4463 6.36792 20.1278 6.36792H17.4393C17.3731 6.36792 17.3103 6.38291 17.254 6.40997C17.13 6.46957 17.0379 6.58696 17.0155 6.73067L16.4435 10.3531L16.4271 10.4587C16.4648 10.2203 16.6685 10.0448 16.9102 10.0448H17.9165C19.893 10.0448 21.4406 9.24214 21.8929 6.92009C21.9064 6.85134 21.9178 6.78443 21.928 6.71897C21.8136 6.65827 21.6896 6.60634 21.5561 6.56209C21.5232 6.55112 21.4892 6.54052 21.4548 6.53028Z" fill="#222D65"/>
<path d="M17.0156 6.73063C17.0379 6.58691 17.1301 6.46953 17.254 6.41029C17.3107 6.38323 17.3733 6.36824 17.4394 6.36824H20.1279C20.4464 6.36824 20.7437 6.38908 21.0149 6.43296C21.0925 6.44539 21.1679 6.45966 21.2414 6.47574C21.3145 6.49221 21.3858 6.51049 21.4549 6.5306C21.4893 6.54084 21.5233 6.55144 21.5565 6.56205C21.69 6.60629 21.814 6.65859 21.9284 6.71892C22.0631 5.86068 21.9274 5.27633 21.4634 4.74719C20.9518 4.16467 20.0284 3.91528 18.8469 3.91528H15.4168C15.1755 3.91528 14.9697 4.0908 14.9323 4.32959L13.5037 13.3856C13.4755 13.5647 13.6137 13.7264 13.7943 13.7264H15.912L16.4437 10.353L17.0156 6.73063Z" fill="#253B80"/>
</svg>
