<svg width="62" height="25" viewBox="0 0 62 25" fill="none" xmlns="http://www.w3.org/2000/svg">
<path d="M34.6328 0.762594H26.5076C26.2323 0.762594 26.0026 0.994588 26.0026 1.27375V2.19013C26.0026 2.47626 26.2323 2.70207 26.5079 2.70207H34.6324C34.9146 2.70207 35.1377 2.4693 35.1443 2.19052V1.28033C35.1443 0.994975 34.9146 0.762207 34.6328 0.762207V0.762594ZM34.6328 5.86338H26.5076C26.441 5.8635 26.3752 5.87683 26.3139 5.90258C26.2526 5.92833 26.197 5.966 26.1503 6.0134C26.0553 6.10974 26.0021 6.23963 26.0022 6.37492V7.2913C26.0022 7.57743 26.2319 7.80285 26.5076 7.80285H34.632C34.9143 7.80285 35.1374 7.57704 35.1439 7.29169V6.37492C35.1439 6.08918 34.9146 5.86338 34.6328 5.86338ZM31.0821 8.40758H26.5079C26.3738 8.40758 26.245 8.46133 26.1507 8.55722C26.0557 8.65355 26.0025 8.78345 26.0026 8.91874V9.83512C26.0026 10.1212 26.2323 10.3467 26.5079 10.3467H31.0755C31.3578 10.3467 31.5809 10.1147 31.5809 9.83551V8.91874C31.5826 8.85218 31.5709 8.78594 31.5466 8.72394C31.5223 8.66195 31.4859 8.60545 31.4394 8.55777C31.3929 8.51009 31.3373 8.47221 31.276 8.44635C31.2146 8.42049 31.1487 8.40756 31.0821 8.40758ZM35.1443 3.3126H26.5079C26.3738 3.3126 26.245 3.36673 26.1507 3.46224C26.0556 3.55867 26.0024 3.68872 26.0026 3.82415V4.74052C26.0026 5.02626 26.2323 5.25207 26.5079 5.25207H35.1381C35.4204 5.25207 35.6431 5.01969 35.6431 4.74052V3.82415C35.6442 3.75773 35.6322 3.69175 35.6077 3.63001C35.5832 3.56827 35.5467 3.512 35.5003 3.46444C35.4539 3.41688 35.3986 3.37898 35.3375 3.35291C35.2764 3.32685 35.2107 3.31315 35.1443 3.3126Z" fill="#00C3F7"/>
<path d="M12.4241 17.051C12.1745 16.7927 11.8755 16.5871 11.5449 16.4467C11.2124 16.307 10.8554 16.2347 10.4948 16.234C10.1433 16.2259 9.79482 16.301 9.47789 16.4533C9.26523 16.555 9.07346 16.6969 8.91339 16.8716V16.7127C8.91213 16.6318 8.88195 16.5541 8.82833 16.4935C8.80186 16.4619 8.76871 16.4365 8.73127 16.4193C8.69383 16.402 8.65303 16.3933 8.61181 16.3937H7.47623C7.43491 16.3926 7.39388 16.4011 7.35634 16.4184C7.31879 16.4357 7.28573 16.4614 7.25971 16.4935C7.20331 16.5524 7.17258 16.6312 7.17426 16.7127V24.2781C7.17426 24.3577 7.20712 24.4374 7.25932 24.4969C7.2878 24.5251 7.32164 24.5472 7.35882 24.5621C7.39601 24.577 7.4358 24.5843 7.47584 24.5835H8.62456C8.70344 24.5835 8.77536 24.5503 8.83451 24.4969C8.86547 24.4698 8.88985 24.436 8.9058 24.3981C8.92174 24.3602 8.92884 24.3191 8.92653 24.2781V21.694C9.09047 21.8734 9.30042 22.0064 9.53009 22.0861C9.83206 22.199 10.1472 22.2524 10.4685 22.2524C10.8358 22.2524 11.1969 22.1855 11.5317 22.0397C11.868 21.8995 12.1718 21.6916 12.4241 21.4288C12.686 21.1549 12.8912 20.8321 13.0281 20.4788C13.1835 20.0834 13.2594 19.6612 13.2512 19.2364C13.2561 18.8099 13.1804 18.3863 13.0281 17.9879C12.8868 17.6407 12.6818 17.3229 12.4237 17.051H12.4241ZM11.3875 19.7874C11.3275 19.9479 11.236 20.0947 11.1184 20.2193C11.002 20.3445 10.8606 20.444 10.7035 20.5115C10.5464 20.5789 10.3769 20.6128 10.2059 20.611C10.0289 20.611 9.85835 20.5778 9.70098 20.5047C9.54565 20.4377 9.40505 20.3407 9.28727 20.2193C9.16996 20.0933 9.07655 19.9469 9.0116 19.7874C8.88042 19.4454 8.88042 19.0669 9.0116 18.7249C9.07075 18.5656 9.16935 18.4194 9.28727 18.2996C9.40603 18.1776 9.54629 18.0787 9.70098 18.0076C9.85869 17.9333 10.0316 17.8968 10.2059 17.9013C10.3834 17.9013 10.5539 17.9346 10.7179 18.0073C10.8687 18.0807 11.0067 18.1735 11.125 18.2934C11.2429 18.4194 11.3284 18.5586 11.3941 18.7183C11.5199 19.064 11.5176 19.4433 11.3875 19.7874ZM19.4328 16.3933H18.2911C18.2515 16.3932 18.2124 16.4014 18.1762 16.4174C18.14 16.4334 18.1076 16.4568 18.0811 16.4861C18.0517 16.516 18.0285 16.5513 18.0128 16.5901C17.997 16.6289 17.9891 16.6705 17.9895 16.7123V16.8515C17.8459 16.6845 17.6694 16.549 17.471 16.4533C17.1605 16.3024 16.8186 16.2273 16.4735 16.234C15.7382 16.2353 15.0331 16.5265 14.5112 17.0445C14.2422 17.3177 14.0282 17.6401 13.881 17.9941C13.7172 18.3897 13.6369 18.8149 13.6451 19.243C13.6381 19.671 13.7184 20.096 13.881 20.4919C14.0275 20.8448 14.2391 21.1669 14.5047 21.4415C14.7584 21.703 15.0625 21.9101 15.3987 22.0505C15.7349 22.1909 16.096 22.2615 16.4603 22.2582C16.8083 22.2651 17.1493 22.192 17.4644 22.0389C17.6612 21.9396 17.8449 21.8069 17.9895 21.6407V21.7934C17.9895 21.8731 18.022 21.9527 18.0811 22.0126C18.1403 22.0656 18.2126 22.0989 18.2911 22.0989H19.4328C19.5131 22.0974 19.59 22.0667 19.6494 22.0126C19.6778 21.9838 19.7 21.9495 19.7147 21.9118C19.7294 21.8741 19.7362 21.8338 19.7348 21.7934V16.7123C19.7366 16.6309 19.706 16.552 19.6497 16.4931C19.6237 16.461 19.5907 16.4353 19.5531 16.418C19.5156 16.4007 19.4742 16.3923 19.4328 16.3933ZM17.8909 19.7809C17.8308 19.9413 17.7393 20.0881 17.6218 20.2127C17.5038 20.3324 17.3662 20.4312 17.215 20.5047C16.8933 20.6508 16.5191 20.6508 16.1978 20.5047C16.0431 20.4337 15.9028 20.3347 15.7841 20.2127C15.6666 20.0881 15.5753 19.9413 15.5153 19.7809C15.3907 19.4399 15.3907 19.0658 15.5153 18.7249C15.5741 18.5656 15.6661 18.426 15.7845 18.2996C15.9024 18.1801 16.04 18.0807 16.1978 18.0076C16.3576 17.9355 16.5309 17.8981 16.7062 17.8981C16.8815 17.8981 17.0549 17.9355 17.2147 18.0076C17.3658 18.0807 17.5039 18.1735 17.6218 18.293C17.7335 18.4194 17.8252 18.5586 17.8909 18.7183C18.0224 19.0636 18.0224 19.4421 17.8909 19.7809ZM30.8191 19.0965C30.6546 18.9516 30.4657 18.837 30.2612 18.7581C30.0445 18.6717 29.8206 18.6049 29.5919 18.5586L28.7189 18.3862C28.4958 18.3464 28.3384 18.2864 28.253 18.2133C28.2175 18.1886 28.1883 18.1559 28.1678 18.1178C28.1473 18.0797 28.1361 18.0373 28.135 17.9941C28.135 17.9013 28.1876 17.8217 28.299 17.7552C28.4498 17.6755 28.6141 17.6353 28.7846 17.6488C29.0077 17.6488 29.2308 17.6952 29.4342 17.7814C29.6314 17.8681 29.8282 17.9678 30.0052 18.0869C30.2612 18.2466 30.4777 18.2199 30.6285 18.0405L31.0488 17.5626C31.1273 17.4826 31.1733 17.3766 31.1803 17.2637C31.1767 17.2055 31.1608 17.1488 31.1336 17.0973C31.1064 17.0457 31.0685 17.0006 31.0225 16.9648C30.845 16.8121 30.5632 16.6458 30.1889 16.4865C29.815 16.3272 29.3422 16.2406 28.7846 16.2406C28.4443 16.2361 28.1054 16.2854 27.7805 16.3868C27.5027 16.4724 27.2426 16.6073 27.0126 16.785C26.8054 16.9473 26.6372 17.1539 26.5204 17.3898C26.4092 17.6197 26.3509 17.8717 26.3499 18.1271C26.3499 18.5988 26.4941 18.9839 26.7764 19.2693C27.0586 19.555 27.4329 19.741 27.8988 19.8338L28.8043 20.0333C29.0015 20.0666 29.1979 20.1261 29.382 20.2127C29.4802 20.2526 29.5459 20.3519 29.5459 20.4648C29.5459 20.5646 29.4933 20.6574 29.382 20.7374C29.2702 20.8171 29.0866 20.8701 28.8503 20.8701C28.6027 20.8743 28.3575 20.8197 28.135 20.7108C27.9241 20.609 27.7278 20.4795 27.5512 20.3257C27.4738 20.2605 27.3845 20.2109 27.2883 20.1795C27.1835 20.1462 27.0586 20.1795 26.921 20.2924L26.4222 20.6709C26.3543 20.7199 26.3017 20.787 26.2704 20.8646C26.239 20.9422 26.2303 21.0271 26.2451 21.1094C26.271 21.2757 26.4091 21.4412 26.665 21.6341C27.2941 22.0588 28.0389 22.2792 28.7978 22.2651C29.151 22.2697 29.5029 22.2204 29.8413 22.119C30.1316 22.0312 30.4045 21.8941 30.6482 21.7137C30.8648 21.5475 31.0488 21.3348 31.1733 21.0893C31.2934 20.8478 31.3562 20.5818 31.357 20.3121C31.3624 20.0697 31.3131 19.8291 31.2127 19.6084C31.1136 19.4155 30.9802 19.2418 30.8191 19.0965ZM35.8065 20.4784C35.7809 20.433 35.745 20.3943 35.7016 20.3654C35.6583 20.3366 35.6088 20.3183 35.5571 20.3121C35.4523 20.3121 35.3471 20.3454 35.2617 20.4049C35.1227 20.4963 34.9619 20.5491 34.7958 20.558C34.7432 20.558 34.6844 20.5515 34.6318 20.5379C34.5749 20.5265 34.5226 20.4988 34.4811 20.4583C34.4286 20.4094 34.3862 20.3509 34.3562 20.2858C34.3191 20.1883 34.3013 20.0846 34.3036 19.9804V17.9079H35.7867C35.8734 17.9058 35.9558 17.87 36.0164 17.8081C36.0472 17.7804 36.0718 17.7466 36.0888 17.7089C36.1058 17.6712 36.1147 17.6303 36.115 17.5889V16.7127C36.1156 16.6702 36.1071 16.6281 36.0901 16.5892C36.0731 16.5503 36.048 16.5154 36.0164 16.4869C35.9569 16.4282 35.8769 16.3949 35.7933 16.3941H34.3102V14.979C34.3126 14.9369 34.3056 14.8948 34.2897 14.8557C34.2739 14.8167 34.2496 14.7817 34.2185 14.7531C34.1616 14.6992 34.0866 14.6685 34.0082 14.6669H32.8533C32.7705 14.6653 32.6904 14.6963 32.6302 14.7531C32.569 14.8126 32.5337 14.8937 32.532 14.979V16.3941H31.8754C31.8342 16.393 31.7932 16.4013 31.7556 16.4186C31.7181 16.4358 31.685 16.4614 31.6589 16.4935C31.6053 16.5541 31.5751 16.6318 31.5739 16.7127V17.5893C31.5739 17.6689 31.6063 17.749 31.6589 17.8085C31.6839 17.8418 31.7168 17.8683 31.7546 17.8857C31.7924 17.9031 31.8339 17.9109 31.8754 17.9083H32.532V20.3724C32.5255 20.665 32.5838 20.9553 32.7025 21.2227C32.8083 21.4412 32.9579 21.6356 33.1421 21.7938C33.3258 21.9465 33.5423 22.0528 33.7654 22.1194C33.9971 22.1912 34.2385 22.2271 34.4811 22.2257C34.8 22.225 35.1168 22.1734 35.4194 22.0726C35.7001 21.979 35.9544 21.8196 36.161 21.6078C36.2238 21.5433 36.262 21.4589 36.2691 21.3691C36.2763 21.2794 36.2518 21.19 36.2001 21.1164L35.8065 20.4784ZM42.0604 16.3933H40.9187C40.8791 16.3932 40.84 16.4014 40.8038 16.4174C40.7676 16.4334 40.7352 16.4568 40.7087 16.4861C40.6792 16.5159 40.6559 16.5512 40.6401 16.5901C40.6243 16.6289 40.6164 16.6704 40.6167 16.7123V16.8515C40.4732 16.6844 40.2967 16.5488 40.0982 16.4533C39.7857 16.3017 39.4417 16.2266 39.0945 16.234C38.7313 16.2341 38.3716 16.3057 38.0361 16.4447C37.7005 16.5838 37.3956 16.7876 37.1388 17.0445C36.8678 17.316 36.6535 17.6388 36.5086 17.9941C36.3454 18.3875 36.265 18.8102 36.2724 19.2361C36.2655 19.6641 36.3459 20.089 36.5086 20.485C36.6532 20.8368 36.8697 21.1624 37.1323 21.4346C37.3853 21.6956 37.6882 21.9031 38.0231 22.0446C38.3579 22.186 38.7178 22.2587 39.0813 22.2582C39.4278 22.2646 39.7711 22.1919 40.0851 22.0455C40.2823 21.9461 40.4659 21.8135 40.6101 21.6472V21.7934C40.6109 21.8746 40.6426 21.9519 40.6991 22.0088C40.7554 22.0658 40.832 22.0982 40.9121 22.0989H42.0604C42.14 22.099 42.2164 22.0676 42.273 22.0116C42.3296 21.9556 42.3617 21.8796 42.3624 21.8V16.7127C42.3633 16.6724 42.3562 16.6322 42.3415 16.5946C42.3268 16.557 42.3049 16.5226 42.277 16.4935C42.251 16.4613 42.2179 16.4356 42.1804 16.4183C42.1428 16.401 42.1018 16.3922 42.0604 16.3933ZM40.5185 19.7809C40.4583 19.9412 40.3669 20.0881 40.2494 20.2127C40.1313 20.3325 39.9936 20.4312 39.8423 20.5047C39.6825 20.5798 39.5072 20.6162 39.3307 20.611C39.1533 20.611 38.9828 20.5712 38.8254 20.5047C38.6707 20.4337 38.5304 20.3347 38.4117 20.2127C38.2942 20.0881 38.2027 19.9412 38.1426 19.7809C38.0181 19.4399 38.0181 19.0659 38.1426 18.7249C38.2029 18.5665 38.2944 18.4219 38.4117 18.2996C38.53 18.1801 38.6676 18.0807 38.8254 18.0076C38.984 17.9356 39.1565 17.8993 39.3307 17.9013C39.5078 17.9013 39.6783 17.9346 39.8423 18.0073C39.9934 18.0807 40.1311 18.1735 40.2494 18.2934C40.3673 18.4194 40.4594 18.5586 40.5185 18.7183C40.6561 19.0591 40.6561 19.44 40.5185 19.7809ZM48.328 20.4053L47.6714 19.9003C47.5469 19.801 47.4286 19.7743 47.3238 19.8141C47.2315 19.8537 47.1487 19.9127 47.081 19.9869C46.9375 20.1608 46.7695 20.3129 46.5823 20.4386C46.3855 20.5515 46.1685 20.6048 45.9454 20.5913C45.689 20.5942 45.4381 20.5164 45.2282 20.369C45.0172 20.2207 44.8574 20.0106 44.7708 19.7677C44.7113 19.6014 44.6803 19.4262 44.6792 19.2496C44.6792 19.0702 44.7051 18.8908 44.7708 18.7183C44.83 18.5586 44.9154 18.4129 45.0334 18.293C45.1517 18.1735 45.2893 18.0738 45.4401 18.0073C45.6007 17.9333 45.7753 17.895 45.952 17.8947C46.1751 17.8867 46.3958 17.9419 46.5888 18.054C46.7776 18.1777 46.9459 18.3301 47.0876 18.5057C47.1529 18.5787 47.2318 18.6383 47.3238 18.6785C47.4286 18.7183 47.5469 18.6916 47.6649 18.5919L48.3214 18.0939C48.3999 18.0405 48.4656 17.9609 48.4919 17.8681C48.5105 17.8184 48.5178 17.7652 48.5132 17.7124C48.5087 17.6595 48.4924 17.6084 48.4656 17.5626C48.2123 17.1673 47.8651 16.8409 47.4549 16.6126C47.0219 16.3671 46.5034 16.2406 45.9257 16.2406C45.5185 16.2407 45.1152 16.3196 44.738 16.473C44.3776 16.6201 44.0497 16.8369 43.7733 17.111C43.496 17.3825 43.2771 17.7079 43.1303 18.0672C42.8217 18.8275 42.8217 19.6782 43.1303 20.4386C43.2811 20.797 43.4976 21.1226 43.7733 21.3882C44.3477 21.951 45.1215 22.2638 45.9257 22.2582C46.5034 22.2582 47.0219 22.1321 47.4549 21.8862C47.8687 21.6576 48.2184 21.3288 48.4722 20.93C48.4989 20.8854 48.5152 20.8354 48.5198 20.7836C48.5243 20.7318 48.517 20.6797 48.4985 20.6311C48.4673 20.5395 48.4075 20.4603 48.328 20.4053ZM54.4045 21.5873L52.6 18.9372L54.1423 16.8983C54.1783 16.8518 54.203 16.7975 54.2143 16.7398C54.2257 16.6821 54.2234 16.6225 54.2077 16.5658C54.1814 16.4865 54.1095 16.3999 53.9192 16.3999H52.6986C52.6283 16.4019 52.5591 16.4177 52.4948 16.4463C52.4194 16.4843 52.3575 16.5446 52.3177 16.6192L51.084 18.3464H50.7886V14.2613C50.7895 14.221 50.7825 14.1809 50.7679 14.1432C50.7533 14.1056 50.7314 14.0712 50.7035 14.0421C50.6749 14.0141 50.6411 13.992 50.6039 13.9772C50.5667 13.9624 50.527 13.9551 50.487 13.9559H49.3448C49.2646 13.9574 49.1876 13.988 49.1283 14.0421C49.0978 14.0696 49.0738 14.1035 49.0579 14.1414C49.0421 14.1793 49.0348 14.2203 49.0367 14.2613V21.7934C49.0367 21.8796 49.0692 21.9597 49.1283 22.0126C49.1569 22.0407 49.1907 22.0628 49.2279 22.0776C49.2651 22.0924 49.3048 22.0996 49.3448 22.0989H50.487C50.5672 22.0973 50.6442 22.0667 50.7035 22.0126C50.7314 21.9835 50.7533 21.9491 50.7679 21.9115C50.7825 21.8739 50.7895 21.8337 50.7886 21.7934V19.801H51.1168L52.462 21.8665C52.5408 22.0126 52.692 22.1054 52.856 22.1054H54.1357C54.3326 22.1054 54.411 22.0126 54.4439 21.933C54.467 21.8767 54.4755 21.8155 54.4686 21.7551C54.4617 21.6946 54.4397 21.6369 54.4045 21.5873ZM25.9234 16.3933H24.6436C24.5963 16.3906 24.5489 16.3981 24.5048 16.4153C24.4606 16.4325 24.4207 16.459 24.3877 16.4931C24.3298 16.552 24.2891 16.6255 24.2698 16.7058L23.3244 20.2259H23.0951L22.0848 16.7058C22.0656 16.6313 22.0321 16.5614 21.9862 16.4997C21.9584 16.4659 21.9233 16.4388 21.8835 16.4204C21.8438 16.402 21.8004 16.3927 21.7566 16.3933H20.4308C20.2606 16.3933 20.1555 16.4467 20.1095 16.5596C20.0766 16.659 20.0766 16.7723 20.1095 16.8716L21.7303 21.8201C21.7566 21.8932 21.796 21.9662 21.8552 22.0192C21.9209 22.0791 22.006 22.112 22.0976 22.1054H22.7804L22.7212 22.2651L22.5705 22.7233C22.5241 22.8625 22.439 22.9889 22.3211 23.0817C22.212 23.1656 22.0778 23.2101 21.9402 23.2082C21.8223 23.2082 21.7044 23.1815 21.5992 23.1347C21.4914 23.088 21.39 23.0278 21.2972 22.9557C21.2129 22.8955 21.112 22.8631 21.0084 22.8629H20.9953C20.9359 22.8658 20.8783 22.8838 20.8278 22.9151C20.7772 22.9464 20.7355 22.9901 20.7064 23.0419L20.2997 23.6397C20.1358 23.8988 20.2274 24.065 20.3326 24.1578C20.5495 24.3583 20.8069 24.51 21.0873 24.6029C21.3978 24.7089 21.7238 24.7627 22.052 24.7622C22.6358 24.7622 23.128 24.6029 23.5019 24.2842C23.8923 23.9414 24.1769 23.4944 24.3223 22.9955L26.1995 16.8716C26.2389 16.7653 26.2455 16.6524 26.2061 16.5461C26.1732 16.473 26.1005 16.3933 25.9234 16.3933Z" fill="#011B33"/>
</svg>
