<svg width="123" height="22" viewBox="0 0 123 22" fill="none" xmlns="http://www.w3.org/2000/svg">
<path d="M17.6041 1.28118H1.12458C0.566217 1.28118 0.100394 1.75171 0.100394 2.31791V4.1765C0.100394 4.75682 0.566217 5.2148 1.12536 5.2148H17.6033C18.1758 5.2148 18.6282 4.7427 18.6416 4.17728V2.33124C18.6416 1.75249 18.1758 1.2804 17.6041 1.2804V1.28118ZM17.6041 11.6265H1.12458C0.989672 11.6268 0.856157 11.6538 0.731772 11.706C0.607387 11.7583 0.494606 11.8347 0.399964 11.9308C0.207289 12.1262 0.0993743 12.3896 0.0996098 12.6641V14.5226C0.0996098 15.103 0.565433 15.5602 1.12458 15.5602H17.6025C18.175 15.5602 18.6275 15.1022 18.6408 14.5234V12.6641C18.6408 12.0845 18.1758 11.6265 17.6041 11.6265ZM10.4026 16.7867H1.12536C0.85324 16.7867 0.592096 16.8957 0.400748 17.0902C0.208073 17.2855 0.100158 17.549 0.100394 17.8234V19.682C0.100394 20.2623 0.566217 20.7195 1.12536 20.7195H10.3893C10.9618 20.7195 11.4143 20.249 11.4143 19.6828V17.8234C11.4177 17.6884 11.3941 17.5541 11.3448 17.4283C11.2955 17.3026 11.2215 17.188 11.1273 17.0913C11.033 16.9946 10.9203 16.9177 10.7958 16.8653C10.6714 16.8128 10.5377 16.7866 10.4026 16.7867ZM18.6416 6.45308H1.12536C0.85324 6.45308 0.592096 6.56287 0.400748 6.75657C0.207882 6.95215 0.099952 7.21591 0.100394 7.49059V9.34918C0.100394 9.92871 0.566217 10.3867 1.12536 10.3867H18.629C19.2015 10.3867 19.6532 9.91538 19.6532 9.34918V7.49059C19.6555 7.35589 19.6311 7.22206 19.5814 7.09685C19.5317 6.97163 19.4576 6.8575 19.3636 6.76104C19.2695 6.66458 19.1573 6.5877 19.0334 6.53484C18.9095 6.48199 18.7763 6.4542 18.6416 6.45308Z" fill="#00C3F7"/>
<path d="M37.6215 6.31906C37.1153 5.79502 36.5088 5.37818 35.8382 5.09333C35.1639 4.80988 34.4399 4.66327 33.7084 4.66201C32.9955 4.64555 32.2888 4.79791 31.646 5.10666C31.2147 5.31291 30.8257 5.60071 30.501 5.95518V5.63287C30.4985 5.4688 30.4373 5.31107 30.3285 5.18822C30.2748 5.12412 30.2076 5.07273 30.1317 5.03774C30.0557 5.00276 29.973 4.98505 29.8894 4.98589H27.5862C27.5024 4.98367 27.4192 5.00077 27.3431 5.03585C27.2669 5.07094 27.1998 5.12307 27.1471 5.18822C27.0327 5.30763 26.9704 5.46755 26.9738 5.63287V20.9768C26.9738 21.1384 27.0404 21.2999 27.1463 21.4207C27.2041 21.4778 27.2727 21.5227 27.3481 21.5529C27.4235 21.5831 27.5042 21.5979 27.5854 21.5963H29.9153C30.0752 21.5963 30.2211 21.5289 30.3411 21.4207C30.4039 21.3657 30.4533 21.2972 30.4857 21.2203C30.518 21.1434 30.5324 21.0601 30.5277 20.9768V15.7359C30.8602 16.0998 31.286 16.3695 31.7518 16.5311C32.3643 16.7601 33.0034 16.8683 33.6551 16.8683C34.4 16.8683 35.1325 16.7326 35.8116 16.437C36.4936 16.1527 37.1097 15.7309 37.6215 15.1979C38.1525 14.6425 38.5688 13.9877 38.8464 13.2711C39.1617 12.4692 39.3155 11.6129 39.2989 10.7514C39.3088 9.8864 39.1553 9.02727 38.8464 8.21921C38.5599 7.51494 38.1442 6.87048 37.6207 6.31906H37.6215ZM35.5191 11.8689C35.3972 12.1943 35.2117 12.4921 34.9733 12.7449C34.7371 12.9988 34.4505 13.2007 34.1318 13.3375C33.8131 13.4743 33.4694 13.543 33.1226 13.5393C32.7634 13.5393 32.4176 13.4719 32.0984 13.3237C31.7834 13.1878 31.4982 12.9912 31.2594 12.7449C31.0214 12.4892 30.832 12.1924 30.7002 11.8689C30.4342 11.1752 30.4342 10.4076 30.7002 9.71392C30.8202 9.39082 31.0202 9.09439 31.2594 8.85128C31.5002 8.60396 31.7847 8.40323 32.0984 8.2592C32.4183 8.10834 32.7691 8.03448 33.1226 8.04354C33.4825 8.04354 33.8284 8.11099 34.1609 8.25842C34.4667 8.40742 34.7466 8.59563 34.9866 8.83874C35.2258 9.09439 35.3991 9.37671 35.5324 9.70059C35.7875 10.4017 35.7828 11.171 35.5191 11.8689ZM51.8365 4.98511H49.5208C49.4406 4.9848 49.3612 5.0014 49.2878 5.03383C49.2144 5.06626 49.1487 5.11379 49.095 5.17332C49.0353 5.23379 48.9882 5.30545 48.9563 5.38417C48.9244 5.4629 48.9084 5.54715 48.9091 5.63208V5.9144C48.6178 5.57572 48.2598 5.30075 47.8575 5.10666C47.2277 4.80071 46.5344 4.64833 45.8343 4.66201C44.3431 4.66457 42.913 5.25521 41.8545 6.30572C41.3089 6.85984 40.875 7.51372 40.5763 8.23176C40.244 9.03411 40.0812 9.89649 40.098 10.7648C40.0837 11.6328 40.2465 12.4947 40.5763 13.2978C40.8735 14.0134 41.3026 14.6668 41.8412 15.2238C42.3558 15.754 42.9727 16.1742 43.6545 16.4589C44.3363 16.7436 45.0688 16.8869 45.8076 16.8801C46.5134 16.8942 47.2051 16.746 47.8442 16.4354C48.2433 16.2339 48.6158 15.9649 48.9091 15.6277V15.9374C48.9091 16.099 48.975 16.2605 49.095 16.3821C49.2149 16.4895 49.3616 16.557 49.5208 16.557H51.8365C51.9992 16.5539 52.1553 16.4918 52.2756 16.3821C52.3333 16.3237 52.3784 16.2541 52.4082 16.1777C52.438 16.1012 52.4519 16.0195 52.4489 15.9374V5.63208C52.4525 5.46687 52.3905 5.30697 52.2764 5.18743C52.2236 5.12229 52.1566 5.07015 52.0804 5.03507C52.0043 4.99998 51.9203 4.98289 51.8365 4.98511ZM48.7091 11.8556C48.5873 12.181 48.4017 12.4788 48.1633 12.7316C47.9239 12.9743 47.645 13.1746 47.3384 13.3237C46.6859 13.6201 45.9268 13.6201 45.2752 13.3237C44.9614 13.1796 44.6769 12.9789 44.4361 12.7316C44.1979 12.4788 44.0126 12.181 43.8911 11.8556C43.6382 11.1641 43.6382 10.4054 43.8911 9.71392C44.0103 9.39082 44.1969 9.10772 44.4369 8.85128C44.6761 8.60896 44.9552 8.40742 45.2752 8.2592C45.5992 8.11279 45.9508 8.03707 46.3064 8.03707C46.662 8.03707 47.0135 8.11279 47.3376 8.2592C47.6442 8.40742 47.9242 8.59563 48.1633 8.83795C48.39 9.09439 48.5758 9.37671 48.7091 9.70059C48.9758 10.4009 48.9758 11.1686 48.7091 11.8556ZM74.9301 10.4676C74.5964 10.1737 74.2133 9.94138 73.7985 9.78136C73.3591 9.60602 72.9048 9.47059 72.441 9.37671L70.6704 9.02695C70.2179 8.94617 69.8987 8.82462 69.7254 8.6764C69.6534 8.62629 69.5942 8.55991 69.5527 8.48266C69.5111 8.40541 69.4884 8.31945 69.4862 8.23176C69.4862 8.04354 69.5929 7.882 69.8187 7.74711C70.1246 7.58556 70.4578 7.504 70.8037 7.53145C71.2561 7.53145 71.7086 7.62556 72.1211 7.80044C72.521 7.9761 72.9202 8.17843 73.2793 8.41997C73.7985 8.74385 74.2376 8.68974 74.5435 8.32586L75.3959 7.35657C75.5551 7.19424 75.6484 6.97936 75.6625 6.75037C75.6553 6.63239 75.6231 6.51729 75.5679 6.41276C75.5127 6.30823 75.4359 6.21666 75.3426 6.14418C74.9826 5.83441 74.4109 5.4972 73.6518 5.1741C72.8935 4.85101 71.9345 4.67534 70.8037 4.67534C70.1134 4.66609 69.4261 4.76614 68.7671 4.97177C68.2038 5.14552 67.6763 5.41912 67.2097 5.77952C66.7895 6.10857 66.4483 6.52769 66.2114 7.00603C65.9858 7.47239 65.8676 7.98344 65.8656 8.50152C65.8656 9.45827 66.1581 10.2393 66.7306 10.8181C67.303 11.3976 68.0621 11.7748 69.0071 11.963L70.8437 12.3677C71.2436 12.4351 71.642 12.5559 72.0152 12.7316C72.2144 12.8124 72.3477 13.0139 72.3477 13.2429C72.3477 13.4452 72.2411 13.6334 72.0152 13.7958C71.7886 13.9573 71.4161 14.0647 70.937 14.0647C70.4346 14.0733 69.9375 13.9626 69.4862 13.7416C69.0585 13.5352 68.6602 13.2726 68.3021 12.9606C68.145 12.8284 67.964 12.7278 67.7688 12.6641C67.5563 12.5967 67.303 12.6641 67.0239 12.8931L66.0123 13.6609C65.8746 13.7601 65.7678 13.8963 65.7043 14.0537C65.6407 14.211 65.623 14.3832 65.6531 14.5502C65.7057 14.8874 65.9856 15.223 66.5047 15.6144C67.7806 16.4757 69.2911 16.9227 70.8303 16.8942C71.5468 16.9035 72.2605 16.8035 72.9469 16.5978C73.5355 16.4198 74.0891 16.1418 74.5835 15.7759C75.0226 15.4387 75.3959 15.0074 75.6484 14.5094C75.8919 14.0195 76.0194 13.4802 76.0209 12.9331C76.032 12.4414 75.932 11.9535 75.7284 11.5059C75.5272 11.1146 75.2567 10.7623 74.9301 10.4676ZM85.0453 13.2703C84.9934 13.1783 84.9206 13.0999 84.8327 13.0413C84.7449 12.9827 84.6444 12.9456 84.5395 12.9331C84.327 12.9331 84.1137 13.0006 83.9404 13.1213C83.6585 13.3067 83.3324 13.4138 82.9955 13.4319C82.8888 13.4319 82.7696 13.4185 82.663 13.3911C82.5476 13.3679 82.4413 13.3118 82.3571 13.2296C82.2508 13.1305 82.1648 13.0117 82.1038 12.8798C82.0287 12.6821 81.9925 12.4717 81.9972 12.2603V8.05687H85.0053C85.181 8.05271 85.3482 7.98011 85.4711 7.85455C85.5336 7.7984 85.5836 7.72986 85.618 7.6533C85.6524 7.57674 85.6705 7.49384 85.6711 7.4099V5.63287C85.6722 5.5467 85.655 5.46128 85.6205 5.38231C85.586 5.30334 85.5351 5.23262 85.4711 5.17489C85.3505 5.05581 85.1882 4.98831 85.0187 4.98667H82.0105V2.11645C82.0154 2.03111 82.0012 1.94576 81.9691 1.86656C81.9369 1.78736 81.8876 1.71628 81.8247 1.65847C81.7092 1.54906 81.5571 1.4867 81.3981 1.48359H79.0557C78.8878 1.48032 78.7253 1.54312 78.6032 1.65847C78.4791 1.77897 78.4076 1.94352 78.404 2.11645V4.98667H77.0725C76.9887 4.98436 76.9056 5.00134 76.8294 5.03628C76.7533 5.07123 76.6862 5.12321 76.6333 5.18822C76.5246 5.31107 76.4634 5.4688 76.4608 5.63287V7.41068C76.4608 7.57223 76.5267 7.73456 76.6333 7.85533C76.6841 7.92277 76.7507 7.97657 76.8274 8.01188C76.904 8.04719 76.9882 8.06292 77.0725 8.05766H78.404V13.0555C78.391 13.6487 78.509 14.2376 78.7499 14.7799C78.9644 15.2231 79.2679 15.6174 79.6415 15.9382C80.014 16.248 80.4531 16.4637 80.9056 16.5985C81.3755 16.7444 81.8651 16.8171 82.3571 16.8142C83.004 16.8129 83.6466 16.7081 84.2603 16.5037C84.8297 16.3138 85.3453 15.9906 85.7644 15.561C85.8917 15.4301 85.9692 15.2589 85.9837 15.0769C85.9982 14.895 85.9486 14.7136 85.8436 14.5643L85.0453 13.2703ZM97.7296 4.98511H95.4139C95.3337 4.9848 95.2543 5.0014 95.1809 5.03383C95.1075 5.06626 95.0418 5.11379 94.9881 5.17332C94.9282 5.2337 94.881 5.30533 94.8489 5.38406C94.8169 5.46279 94.8008 5.54709 94.8014 5.63208V5.9144C94.5103 5.57551 94.1523 5.3005 93.7498 5.10666C93.116 4.79928 92.4183 4.64688 91.7141 4.66201C90.9774 4.66206 90.2479 4.80724 89.5673 5.08928C88.8868 5.37131 88.2684 5.78466 87.7476 6.30572C87.1978 6.85643 86.7633 7.51119 86.4694 8.23176C86.1384 9.02956 85.9753 9.88702 85.9903 10.7507C85.9764 11.6188 86.1394 12.4806 86.4694 13.2837C86.7627 13.9973 87.2018 14.6576 87.7343 15.2097C88.2474 15.7391 88.8619 16.1599 89.541 16.4468C90.2202 16.7338 90.9501 16.8811 91.6874 16.8801C92.39 16.8932 93.0863 16.7457 93.7232 16.4488C94.1231 16.2472 94.4956 15.9782 94.7881 15.641V15.9374C94.7897 16.1021 94.854 16.259 94.9685 16.3743C95.0826 16.49 95.238 16.5557 95.4005 16.557H97.7296C97.891 16.5572 98.046 16.4936 98.1607 16.38C98.2754 16.2665 98.3406 16.1122 98.342 15.9508V5.63287C98.3438 5.551 98.3293 5.4696 98.2996 5.3933C98.2699 5.31701 98.2254 5.24732 98.1687 5.18822C98.116 5.12302 98.0489 5.07086 97.9728 5.03577C97.8966 5.00068 97.8134 4.98283 97.7296 4.98511ZM94.6022 11.8556C94.4802 12.1809 94.2947 12.4787 94.0564 12.7316C93.8168 12.9744 93.5376 13.1746 93.2307 13.3237C92.9066 13.476 92.5512 13.5499 92.1932 13.5393C91.8333 13.5393 91.4874 13.4585 91.1683 13.3237C90.8545 13.1796 90.5701 12.9789 90.3292 12.7316C90.091 12.4787 89.9054 12.1809 89.7834 11.8556C89.5309 11.164 89.5309 10.4055 89.7834 9.71392C89.9057 9.3927 90.0913 9.09935 90.3292 8.85128C90.5692 8.60896 90.8483 8.40742 91.1683 8.2592C91.49 8.11314 91.8399 8.03952 92.1932 8.04354C92.5524 8.04354 92.8982 8.11099 93.2307 8.25842C93.5373 8.40742 93.8165 8.59563 94.0564 8.83874C94.2956 9.09439 94.4823 9.37671 94.6022 9.70059C94.8813 10.3918 94.8813 11.1644 94.6022 11.8556ZM110.441 13.1221L109.11 12.0979C108.857 11.8964 108.617 11.8423 108.405 11.9231C108.217 12.0034 108.05 12.1229 107.912 12.2736C107.621 12.6262 107.28 12.9348 106.901 13.1896C106.502 13.4186 106.062 13.5268 105.609 13.4993C105.089 13.5052 104.58 13.3474 104.154 13.0484C103.727 12.7477 103.402 12.3216 103.227 11.8289C103.106 11.4917 103.043 11.1364 103.041 10.7781C103.041 10.4142 103.093 10.0503 103.227 9.70059C103.347 9.37671 103.52 9.08106 103.759 8.83795C103.999 8.59563 104.278 8.3933 104.584 8.25842C104.91 8.10849 105.264 8.03065 105.622 8.03021C106.075 8.01393 106.523 8.12594 106.914 8.35331C107.297 8.60415 107.638 8.91319 107.926 9.26927C108.058 9.41749 108.218 9.53826 108.405 9.61981C108.617 9.70059 108.857 9.64648 109.096 9.44415L110.428 8.43408C110.587 8.32586 110.72 8.16431 110.774 7.9761C110.811 7.87536 110.826 7.76749 110.817 7.66032C110.808 7.55315 110.775 7.44939 110.72 7.35657C110.207 6.55484 109.503 5.89285 108.671 5.42976C107.792 4.93178 106.741 4.67534 105.569 4.67534C104.743 4.67556 103.925 4.83561 103.16 5.14665C102.429 5.44502 101.764 5.88474 101.204 6.44061C100.641 6.99132 100.197 7.65132 99.8994 8.37997C99.2736 9.92208 99.2736 11.6475 99.8994 13.1896C100.205 13.9165 100.644 14.5768 101.204 15.1156C102.369 16.2572 103.938 16.8915 105.569 16.8801C106.741 16.8801 107.792 16.6244 108.671 16.1257C109.51 15.662 110.219 14.9952 110.734 14.1863C110.788 14.0959 110.821 13.9944 110.83 13.8893C110.84 13.7843 110.825 13.6786 110.787 13.5801C110.724 13.3943 110.603 13.2337 110.441 13.1221ZM122.766 15.5195L119.106 10.1445L122.234 6.00929C122.307 5.91493 122.357 5.80484 122.38 5.68776C122.403 5.57068 122.398 5.44984 122.366 5.33487C122.313 5.1741 122.167 4.99844 121.781 4.99844H119.306C119.163 5.00246 119.023 5.03444 118.893 5.09254C118.739 5.16951 118.614 5.29196 118.533 5.44309L116.031 8.94617H115.432V0.660947C115.434 0.579129 115.419 0.497745 115.39 0.421448C115.36 0.345151 115.316 0.275439 115.259 0.216297C115.201 0.159472 115.133 0.114745 115.057 0.0847215C114.982 0.0546975 114.901 0.0399769 114.82 0.0414171H112.504C112.341 0.0445373 112.185 0.106687 112.065 0.216297C112.003 0.272108 111.954 0.34092 111.922 0.417797C111.89 0.494673 111.875 0.577709 111.879 0.660947V15.9374C111.879 16.1123 111.945 16.2747 112.065 16.3821C112.122 16.439 112.191 16.4838 112.267 16.5138C112.342 16.5438 112.423 16.5585 112.504 16.557H114.82C114.983 16.5539 115.139 16.4917 115.259 16.3821C115.316 16.323 115.36 16.2532 115.39 16.1769C115.419 16.1006 115.434 16.0193 115.432 15.9374V11.8964H116.098L118.826 16.0857C118.986 16.3821 119.292 16.5703 119.625 16.5703H122.221C122.62 16.5703 122.779 16.3821 122.846 16.2205C122.892 16.1064 122.91 15.9823 122.896 15.8597C122.882 15.7371 122.837 15.6201 122.766 15.5195ZM65.0007 4.98511H62.405C62.309 4.97949 62.2129 4.99465 62.1233 5.02957C62.0337 5.06449 61.9527 5.11834 61.8859 5.18743C61.7685 5.30687 61.6859 5.45596 61.6467 5.61875L59.7293 12.7582H59.2643L57.2152 5.61875C57.1762 5.46782 57.1083 5.32588 57.0153 5.20077C56.9587 5.13221 56.8875 5.07724 56.8069 5.03991C56.7263 5.00258 56.6383 4.98385 56.5495 4.98511H53.8605C53.5154 4.98511 53.3021 5.09333 53.2088 5.32232C53.1422 5.52386 53.1422 5.75364 53.2088 5.95518L56.4961 15.9916C56.5495 16.1398 56.6294 16.288 56.7494 16.3954C56.8827 16.517 57.0553 16.5836 57.2411 16.5703H58.626L58.506 16.8942L58.2002 17.8235C58.1061 18.1058 57.9335 18.3622 57.6944 18.5504C57.4731 18.7205 57.201 18.8108 56.9219 18.8069C56.6828 18.8069 56.4436 18.7528 56.2303 18.6579C56.0117 18.5631 55.8059 18.4411 55.6178 18.2948C55.4469 18.1728 55.2421 18.107 55.0321 18.1066H55.0054C54.885 18.1126 54.7681 18.149 54.6656 18.2125C54.5632 18.276 54.4785 18.3645 54.4196 18.4697L53.5946 19.6821C53.2621 20.2075 53.448 20.5447 53.6613 20.7329C54.1014 21.1395 54.6233 21.4472 55.192 21.6355C55.8219 21.8506 56.483 21.9598 57.1486 21.9586C58.3327 21.9586 59.331 21.6355 60.0893 20.9894C60.8812 20.294 61.4584 19.3873 61.7533 18.3756L65.5606 5.95518C65.6406 5.73952 65.6539 5.51053 65.5739 5.29487C65.5073 5.14665 65.3598 4.98511 65.0007 4.98511Z" fill="#011B33"/>
</svg>
