<svg width="19" height="20" viewBox="0 0 19 20" fill="none" xmlns="http://www.w3.org/2000/svg">
<rect y="0.5" width="19" height="19" rx="9.5" fill="#344054"/>
<g clip-path="url(#clip0_86_3509)">
<path d="M8.49989 5.8615C7.37907 6.11704 6.39848 6.79172 5.75921 7.74718C5.11995 8.70263 4.87046 9.86646 5.06189 11M8.49989 5.8615L6.99989 5.25M8.49989 5.8615L7.99989 7.25M13.5319 12.25C13.8407 11.6286 14.0009 10.9439 13.9999 10.25C13.9999 8.02 12.3784 6.1695 10.2499 5.812M13.5319 12.25L14.9999 11.25M13.5319 12.25L12.7499 10.75M5.75789 12.75C6.16874 13.3657 6.72527 13.8704 7.37807 14.2193C8.03086 14.5682 8.75971 14.7505 9.49989 14.75C10.6071 14.7514 11.6756 14.3432 12.4999 13.604M5.75789 12.75H7.49989M5.75789 12.75V14.5" stroke="white" stroke-width="0.75" stroke-linecap="round" stroke-linejoin="round"/>
</g>
<defs>
<clipPath id="clip0_86_3509">
<rect width="12" height="12" fill="white" transform="translate(4 4)"/>
</clipPath>
</defs>
</svg>
