<svg width="25" height="24" viewBox="0 0 25 24" fill="none" xmlns="http://www.w3.org/2000/svg">
<path d="M14.2999 16.875C14.2999 17.1717 14.212 17.4617 14.0471 17.7084C13.8823 17.955 13.648 18.1473 13.374 18.2608C13.0999 18.3744 12.7983 18.4041 12.5073 18.3462C12.2163 18.2883 11.949 18.1454 11.7393 17.9357C11.5295 17.7259 11.3866 17.4586 11.3288 17.1676C11.2709 16.8767 11.3006 16.5751 11.4141 16.301C11.5276 16.0269 11.7199 15.7926 11.9666 15.6278C12.2132 15.463 12.5033 15.375 12.7999 15.375C13.1978 15.375 13.5793 15.533 13.8606 15.8143C14.1419 16.0956 14.2999 16.4772 14.2999 16.875ZM22.9249 12C22.9249 14.0025 22.3311 15.9601 21.2186 17.6251C20.106 19.2902 18.5247 20.5879 16.6746 21.3543C14.8245 22.1206 12.7887 22.3211 10.8246 21.9305C8.86058 21.5398 7.05648 20.5755 5.64048 19.1595C4.22447 17.7435 3.26016 15.9393 2.86948 13.9753C2.4788 12.0112 2.67931 9.97543 3.44565 8.12533C4.21199 6.27523 5.50973 4.69392 7.17478 3.58137C8.83983 2.46882 10.7974 1.875 12.7999 1.875C15.4843 1.87798 18.0579 2.94567 19.9561 4.84383C21.8543 6.74199 22.922 9.3156 22.9249 12ZM20.6749 12C20.6749 10.4425 20.2131 8.91992 19.3478 7.62488C18.4824 6.32985 17.2525 5.32049 15.8136 4.72445C14.3746 4.12841 12.7912 3.97246 11.2636 4.27632C9.73599 4.58017 8.3328 5.3302 7.23147 6.43153C6.13013 7.53287 5.38011 8.93606 5.07625 10.4637C4.77239 11.9913 4.92834 13.5747 5.52438 15.0136C6.12042 16.4526 7.12978 17.6825 8.42482 18.5478C9.71985 19.4131 11.2424 19.875 12.7999 19.875C14.8878 19.8728 16.8896 19.0424 18.3659 17.566C19.8423 16.0896 20.6727 14.0879 20.6749 12ZM12.7999 6C10.5256 6 8.67493 7.68188 8.67493 9.75V10.125C8.67493 10.4234 8.79346 10.7095 9.00444 10.9205C9.21541 11.1315 9.50156 11.25 9.79993 11.25C10.0983 11.25 10.3844 11.1315 10.5954 10.9205C10.8064 10.7095 10.9249 10.4234 10.9249 10.125V9.75C10.9249 8.92313 11.7687 8.25 12.7999 8.25C13.8312 8.25 14.6749 8.92313 14.6749 9.75C14.6749 10.5769 13.8312 11.25 12.7999 11.25C12.5016 11.25 12.2154 11.3685 12.0044 11.5795C11.7935 11.7905 11.6749 12.0766 11.6749 12.375V13.125C11.6743 13.4029 11.7765 13.6713 11.962 13.8783C12.1474 14.0854 12.4029 14.2164 12.6793 14.2462C12.9556 14.276 13.2332 14.2025 13.4585 14.0398C13.6839 13.8771 13.841 13.6367 13.8996 13.365C15.6415 12.9262 16.9249 11.4722 16.9249 9.75C16.9249 7.68188 15.0743 6 12.7999 6Z" fill="#FF6642"/>
</svg>
