<svg width="20" height="20" viewBox="0 0 20 20" fill="none" xmlns="http://www.w3.org/2000/svg">
<path d="M9 12V20H5C4.20435 20 3.44129 19.684 2.87868 19.1214C2.31607 18.5588 2 17.7957 2 17V13C2 12.7348 2.10536 12.4805 2.29289 12.2929C2.48043 12.1054 2.73478 12 3 12H9ZM17 12C17.2652 12 17.5196 12.1054 17.7071 12.2929C17.8946 12.4805 18 12.7348 18 13V17C18 17.7957 17.6839 18.5588 17.1213 19.1214C16.5587 19.684 15.7956 20 15 20H11V12H17ZM14.5 3.75782e-05C15.0905 -8.42995e-05 15.6715 0.149204 16.1888 0.434005C16.706 0.718807 17.1429 1.12986 17.4586 1.6289C17.7743 2.12795 17.9586 2.69875 17.9943 3.28818C18.03 3.87761 17.9161 4.4665 17.663 5.00004H18C18.5304 5.00004 19.0391 5.21075 19.4142 5.58582C19.7893 5.9609 20 6.4696 20 7.00004V8.00004C20 8.53047 19.7893 9.03918 19.4142 9.41425C19.0391 9.78932 18.5304 10 18 10H11V5.00004H9V10H2C1.46957 10 0.960859 9.78932 0.585786 9.41425C0.210714 9.03918 0 8.53047 0 8.00004V7.00004C0 6.4696 0.210714 5.9609 0.585786 5.58582C0.960859 5.21075 1.46957 5.00004 2 5.00004H2.337C2.11488 4.53119 1.99977 4.01883 2 3.50004C2 1.56704 3.567 3.75782e-05 5.483 3.75782e-05C7.238 -0.0299624 8.795 1.09204 9.864 2.93404L10 3.17704C11.033 1.26304 12.56 0.0630377 14.291 0.00203767L14.5 3.75782e-05ZM5.5 2.00004C5.10218 2.00004 4.72064 2.15807 4.43934 2.43938C4.15804 2.72068 4 3.10221 4 3.50004C4 3.89786 4.15804 4.27939 4.43934 4.5607C4.72064 4.842 5.10218 5.00004 5.5 5.00004H8.643C7.902 3.09504 6.694 1.98004 5.5 2.00004ZM14.483 2.00004C13.303 1.98004 12.098 3.09604 11.357 5.00004H14.5C14.8978 4.99778 15.2785 4.83759 15.5582 4.55469C15.8379 4.27179 15.9938 3.88936 15.9915 3.49154C15.9892 3.09371 15.829 2.71308 15.5462 2.43337C15.2633 2.15366 14.8808 1.99778 14.483 2.00004Z" fill="#FF6642"/>
</svg>
