<svg width="25" height="22" viewBox="0 0 25 22" fill="none" xmlns="http://www.w3.org/2000/svg">
<path d="M24.152 9.81374L14.6981 0.359852C14.5328 0.194634 14.3223 0.0821251 14.0931 0.0365484C13.8639 -0.00902824 13.6263 0.0143737 13.4104 0.103796C13.1945 0.193218 13.01 0.344645 12.8801 0.538934C12.7503 0.733223 12.6809 0.96165 12.6809 1.19534V5.38459C9.45272 5.68333 6.45222 7.17594 4.26656 9.57033C2.08089 11.9647 0.867392 15.0886 0.863525 18.3305V20.1031C0.863712 20.3484 0.940231 20.5876 1.08247 20.7874C1.22471 20.9873 1.42562 21.1379 1.65733 21.2185C1.88904 21.299 2.14007 21.3054 2.37559 21.2368C2.61112 21.1683 2.81947 21.0281 2.97174 20.8358C4.12948 19.459 5.55 18.3268 7.15029 17.5052C8.75059 16.6837 10.4986 16.1893 12.2921 16.0509C12.3512 16.0438 12.4989 16.032 12.6809 16.0202V20.1031C12.6809 20.3368 12.7503 20.5652 12.8801 20.7595C13.01 20.9538 13.1945 21.1052 13.4104 21.1947C13.6263 21.2841 13.8639 21.3075 14.0931 21.2619C14.3223 21.2163 14.5328 21.1038 14.6981 20.9386L24.152 11.4847C24.3735 11.2631 24.498 10.9626 24.498 10.6492C24.498 10.3359 24.3735 10.0353 24.152 9.81374ZM15.0444 17.2504V14.7853C15.0444 14.4719 14.9199 14.1713 14.6982 13.9497C14.4766 13.7281 14.176 13.6036 13.8626 13.6036C13.5613 13.6036 12.3311 13.6627 12.0167 13.704C8.83181 13.9975 5.80013 15.2075 3.28845 17.1878C3.57353 14.5814 4.80998 12.1717 6.76104 10.4202C8.7121 8.6686 11.2407 7.69825 13.8626 7.69488C14.176 7.69488 14.4766 7.57038 14.6982 7.34876C14.9199 7.12714 15.0444 6.82656 15.0444 6.51315V4.04805L21.6455 10.6492L15.0444 17.2504Z" fill="#FF6642"/>
</svg>
