<svg width="32" height="31" viewBox="0 0 32 31" fill="none" xmlns="http://www.w3.org/2000/svg">
<path d="M24.2807 18.576L24.2807 18.5759L24.273 18.5834C23.6529 19.1843 23.3693 20.0517 23.5101 20.9013L23.51 20.9013L23.5124 20.9143L24.9028 28.6097C24.9029 28.6099 24.9029 28.6101 24.903 28.6104C24.9568 28.911 24.8301 29.2161 24.5767 29.3911L24.5666 29.398L24.5568 29.4052C24.306 29.5885 23.9697 29.6123 23.6916 29.4631L23.6916 29.4631L23.6824 29.4583L16.7575 25.8465C16.3898 25.6515 15.9859 25.5491 15.5783 25.5374L15.5653 25.537H15.5523H15.1284H15.0612L14.9946 25.5469C14.7499 25.5834 14.5059 25.6615 14.2783 25.7849L7.36312 29.4079C7.1949 29.491 7.00675 29.5209 6.82239 29.4939C6.38955 29.4054 6.10084 28.9914 6.16889 28.5529L7.55941 20.866L7.56071 20.8588L7.56189 20.8516C7.70201 19.999 7.41942 19.1318 6.80393 18.5258L6.80395 18.5258L6.79885 18.5209L1.15067 13.0463C0.930803 12.833 0.855778 12.5149 0.955299 12.2286L0.955328 12.2286L0.95773 12.2215C1.0589 11.9226 1.31559 11.7054 1.62493 11.655L9.37624 10.5305C10.2686 10.4314 11.0498 9.88574 11.4512 9.08293L11.4513 9.08295L11.4552 9.07491L14.8749 2.06382C14.9065 2.00461 14.9428 1.95374 14.9815 1.9117L15.0759 1.8383L15.1387 1.78945L15.1917 1.73077L15.2535 1.70808L15.2701 1.70199L15.2865 1.69527L15.3863 1.65417H15.8098C16.0768 1.6941 16.3076 1.85798 16.4318 2.09546L19.8971 9.07593C19.8975 9.07676 19.8979 9.07759 19.8983 9.07843C20.2807 9.85772 21.021 10.3964 21.8736 10.5271L21.8736 10.5271L21.8807 10.5281L29.655 11.6559L29.657 11.6562C29.974 11.7015 30.2402 11.9192 30.3483 12.2205C30.4394 12.5098 30.3572 12.8263 30.1339 13.0358L30.131 13.0386L24.2807 18.576Z" fill="white" stroke="#A69EAA" stroke-width="1.81615"/>
</svg>
