<svg width="10" height="10" viewBox="0 0 10 10" fill="none" xmlns="http://www.w3.org/2000/svg">
<path d="M7.50609 6.20905C7.38963 6.32192 7.33611 6.48515 7.36265 6.64524L7.76241 8.85767C7.79614 9.04519 7.717 9.23496 7.56006 9.34333C7.40626 9.45575 7.20166 9.46924 7.03393 9.37931L5.04228 8.34054C4.97303 8.30367 4.89614 8.28388 4.81744 8.28163H4.69558C4.65331 8.28793 4.61194 8.30142 4.57417 8.3221L2.58207 9.36582C2.48359 9.41528 2.37207 9.43282 2.2628 9.41528C1.99659 9.36492 1.81896 9.1113 1.86258 8.84374L2.2628 6.6313C2.28933 6.46986 2.23582 6.30573 2.11935 6.19106L0.495546 4.61717C0.359742 4.48541 0.312525 4.28755 0.374581 4.10903C0.434839 3.93095 0.58863 3.801 0.774349 3.77177L3.00927 3.44755C3.17925 3.43001 3.32854 3.32658 3.40499 3.17369L4.3898 1.15461C4.41318 1.10965 4.44331 1.06828 4.47973 1.0332L4.5202 1.00172C4.54134 0.978339 4.56562 0.959003 4.5926 0.943264L4.64162 0.925277L4.71806 0.893799H4.90738C5.07646 0.911336 5.22531 1.01252 5.3031 1.16361L6.30095 3.17369C6.37289 3.32073 6.51275 3.42281 6.67418 3.44755L8.9091 3.77177C9.09797 3.79875 9.25581 3.92916 9.31831 4.10903C9.37722 4.28935 9.32641 4.48721 9.18791 4.61717L7.50609 6.20905Z" fill="#FEA828"/>
</svg>
