<svg width="12" height="12" viewBox="0 0 12 12" fill="none" xmlns="http://www.w3.org/2000/svg">
<path d="M4.49989 1.8615C3.37907 2.11704 2.39848 2.79172 1.75921 3.74718C1.11995 4.70263 0.870456 5.86646 1.06189 7M4.49989 1.8615L2.99989 1.25M4.49989 1.8615L3.99989 3.25M9.53189 8.25C9.84068 7.62857 10.0009 6.94391 9.99989 6.25C9.99989 4.02 8.37839 2.1695 6.24989 1.812M9.53189 8.25L10.9999 7.25M9.53189 8.25L8.74989 6.75M1.75789 8.75C2.16874 9.36569 2.72527 9.8704 3.37807 10.2193C4.03086 10.5682 4.75971 10.7505 5.49989 10.75C6.60707 10.7514 7.67563 10.3432 8.49989 9.604M1.75789 8.75H3.49989M1.75789 8.75V10.5" stroke="black" stroke-width="0.75" stroke-linecap="round" stroke-linejoin="round"/>
</svg>
