<svg width="36" height="25" viewBox="0 0 36 25" fill="none" xmlns="http://www.w3.org/2000/svg">
<rect x="1" y="1.26221" width="34" height="23" rx="3.5" fill="white" stroke="#D9D9D9"/>
<path fill-rule="evenodd" clip-rule="evenodd" d="M11.1253 17.0205H9.00494L7.41495 10.9546C7.33949 10.6756 7.17925 10.4289 6.94354 10.3126C6.35531 10.0204 5.70712 9.78791 5 9.67064V9.4371H8.41567C8.88708 9.4371 9.24064 9.78791 9.29957 10.1953L10.1245 14.5709L12.2438 9.4371H14.3052L11.1253 17.0205ZM15.4838 17.0205H13.4813L15.1302 9.4371H17.1327L15.4838 17.0205ZM19.7234 11.5379C19.7823 11.1295 20.1359 10.8959 20.5483 10.8959C21.1965 10.8373 21.9026 10.9546 22.4919 11.2457L22.8454 9.61302C22.2562 9.37948 21.608 9.26221 21.0198 9.26221C19.0762 9.26221 17.662 10.3126 17.662 11.7704C17.662 12.8795 18.6637 13.4618 19.3708 13.8126C20.1359 14.1624 20.4305 14.396 20.3716 14.7458C20.3716 15.2705 19.7823 15.504 19.1941 15.504C18.4869 15.504 17.7798 15.3291 17.1327 15.0369L16.7791 16.6707C17.4862 16.9618 18.2512 17.0791 18.9584 17.0791C21.1376 17.1367 22.4919 16.0873 22.4919 14.5122C22.4919 12.5287 19.7234 12.4124 19.7234 11.5379ZM29.5 17.0205L27.91 9.4371H26.2022C25.8486 9.4371 25.4951 9.67064 25.3772 10.0204L22.4329 17.0205H24.4943L24.9058 15.9124H27.4386L27.6743 17.0205H29.5ZM26.4968 11.4793L27.085 14.3373H25.4361L26.4968 11.4793Z" fill="#172B85"/>
</svg>
