<svg width="19" height="15" viewBox="0 0 19 15" fill="none" xmlns="http://www.w3.org/2000/svg">
<path d="M8.69697 12.0081C8.78 12.0909 8.84588 12.1892 8.89083 12.2975C8.93578 12.4057 8.95892 12.5218 8.95892 12.639C8.95892 12.7562 8.93578 12.8723 8.89083 12.9805C8.84588 13.0888 8.78 13.1871 8.69697 13.2699L8.31697 13.6499C7.91359 14.0547 7.43394 14.3756 6.90577 14.594C6.3776 14.8123 5.81138 14.9238 5.23986 14.922C4.37917 14.9223 3.53773 14.6672 2.82201 14.1892C2.10628 13.7112 1.54842 13.0316 1.21901 12.2364C0.889605 11.4412 0.803444 10.5662 0.971432 9.72211C1.13942 8.87797 1.55401 8.10263 2.16275 7.49416L4.74185 4.91506C5.29043 4.36657 5.97564 3.97466 6.72654 3.77993C7.47745 3.58519 8.26676 3.59469 9.01276 3.80746C9.75876 4.02022 10.4343 4.42851 10.9695 4.99006C11.5047 5.55161 11.8801 6.246 12.0568 7.00135C12.0861 7.1162 12.0922 7.23573 12.0746 7.35295C12.0571 7.47017 12.0164 7.58271 11.9548 7.68398C11.8932 7.78525 11.8121 7.87321 11.7161 7.94271C11.6201 8.01221 11.5112 8.06184 11.3957 8.08871C11.2803 8.11558 11.1607 8.11914 11.0438 8.09919C10.927 8.07923 10.8153 8.03616 10.7154 7.97249C10.6154 7.90882 10.5292 7.82584 10.4617 7.72842C10.3942 7.63099 10.3468 7.52107 10.3224 7.4051C10.2175 6.95922 9.99545 6.54943 9.67917 6.21811C9.3629 5.88678 8.96387 5.64594 8.52333 5.52049C8.0828 5.39503 7.61676 5.38951 7.17338 5.5045C6.73 5.61949 6.32538 5.85081 6.00134 6.17455L3.42224 8.75366C3.06273 9.11287 2.81782 9.57063 2.71849 10.069C2.61915 10.5675 2.66985 11.0841 2.86417 11.5537C3.05849 12.0233 3.38771 12.4248 3.81018 12.7072C4.23266 12.9897 4.72942 13.1406 5.23763 13.1407C5.57531 13.1417 5.90984 13.0757 6.22184 12.9465C6.53383 12.8174 6.8171 12.6276 7.05525 12.3881L7.43451 12.0081C7.51726 11.925 7.61563 11.859 7.72395 11.814C7.83228 11.769 7.94843 11.7458 8.06574 11.7458C8.18304 11.7458 8.2992 11.769 8.40752 11.814C8.51585 11.859 8.61421 11.925 8.69697 12.0081ZM16.8351 1.35256C16.0188 0.536539 14.9118 0.078125 13.7576 0.078125C12.6034 0.078125 11.4964 0.536539 10.6801 1.35256L10.3008 1.73182C10.1335 1.89913 10.0395 2.12606 10.0395 2.36268C10.0395 2.5993 10.1335 2.82623 10.3008 2.99354C10.4681 3.16085 10.6951 3.25485 10.9317 3.25485C11.1683 3.25485 11.3952 3.16085 11.5626 2.99354L11.9426 2.61354C12.4248 2.13128 13.0789 1.86035 13.7609 1.86035C14.4429 1.86035 15.097 2.13128 15.5793 2.61354C16.0615 3.0958 16.3325 3.74988 16.3325 4.4319C16.3325 5.11392 16.0615 5.768 15.5793 6.25026L12.9957 8.82565C12.7576 9.06506 12.4743 9.25485 12.1623 9.38403C11.8503 9.51321 11.5158 9.57922 11.1781 9.57823C10.5988 9.57782 10.0367 9.38173 9.5828 9.02176C9.12894 8.6618 8.80999 8.15907 8.67767 7.5951C8.62413 7.365 8.48137 7.16558 8.2808 7.04073C8.08023 6.91588 7.83828 6.87582 7.60818 6.92936C7.37807 6.9829 7.17866 7.12566 7.05381 7.32623C6.92896 7.52679 6.8889 7.76875 6.94244 7.99885C7.16591 8.95395 7.70548 9.80556 8.47364 10.4156C9.24179 11.0256 10.1935 11.3582 11.1744 11.3595H11.1781C11.7499 11.361 12.3163 11.2492 12.8446 11.0305C13.3729 10.8118 13.8526 10.4904 14.256 10.0851L16.8351 7.50604C17.2392 7.10203 17.5597 6.62237 17.7784 6.09446C17.9971 5.56654 18.1097 5.00072 18.1097 4.4293C18.1097 3.85788 17.9971 3.29206 17.7784 2.76415C17.5597 2.23623 17.2392 1.75658 16.8351 1.35256Z" fill="#494C50"/>
</svg>
