<svg width="24" height="24" viewBox="0 0 24 24" fill="none" xmlns="http://www.w3.org/2000/svg">
<path d="M12.0012 0.333496C18.4447 0.333496 23.6678 5.55666 23.6678 12.0002C23.6678 18.4437 18.4447 23.6668 12.0012 23.6668C9.93937 23.6704 7.91384 23.1247 6.13282 22.086L0.339157 23.6668L1.91649 17.8708C0.876942 16.0892 0.330877 14.0628 0.33449 12.0002C0.33449 5.55666 5.55766 0.333496 12.0012 0.333496ZM8.02516 6.51683L7.79182 6.52616C7.64096 6.53656 7.49356 6.57618 7.35782 6.64283C7.23133 6.71459 7.11581 6.80418 7.01482 6.90883C6.87482 7.04066 6.79549 7.155 6.71032 7.26583C6.2788 7.82688 6.04646 8.51569 6.04999 9.2235C6.05232 9.79516 6.20166 10.3517 6.43499 10.872C6.91216 11.9243 7.69732 13.0385 8.73332 14.071C8.98299 14.3195 9.22799 14.5692 9.49166 14.8013C10.779 15.9346 12.313 16.752 13.9717 17.1883L14.6343 17.2898C14.8502 17.3015 15.066 17.2852 15.283 17.2747C15.6227 17.2567 15.9544 17.1648 16.2548 17.0052C16.4075 16.9262 16.5566 16.8406 16.7017 16.7485C16.7017 16.7485 16.751 16.715 16.8475 16.6435C17.005 16.5268 17.1018 16.444 17.2325 16.3075C17.3305 16.2064 17.4122 16.0889 17.4775 15.9552C17.5685 15.765 17.6595 15.4022 17.6968 15.1C17.7248 14.869 17.7167 14.743 17.7132 14.6648C17.7085 14.54 17.6047 14.4105 17.4915 14.3557L16.8125 14.0512C16.8125 14.0512 15.7975 13.609 15.1768 13.3267C15.1119 13.2984 15.0423 13.2822 14.9715 13.2788C14.8917 13.2705 14.811 13.2794 14.7349 13.3049C14.6588 13.3305 14.5891 13.3721 14.5305 13.427C14.5247 13.4247 14.4465 13.4912 13.603 14.5132C13.5546 14.5782 13.4879 14.6274 13.4114 14.6544C13.335 14.6814 13.2522 14.685 13.1737 14.6648C13.0976 14.6446 13.0231 14.6188 12.9508 14.5878C12.8062 14.5272 12.756 14.5038 12.6568 14.4618C11.987 14.1701 11.367 13.7752 10.8193 13.2917C10.6723 13.1633 10.5358 13.0233 10.3958 12.888C9.93687 12.4484 9.53687 11.9511 9.20582 11.4087L9.13699 11.2978C9.0883 11.2229 9.04837 11.1427 9.01799 11.0587C8.97366 10.8872 9.08916 10.7495 9.08916 10.7495C9.08916 10.7495 9.37266 10.4392 9.50449 10.2712C9.63282 10.1078 9.74132 9.94916 9.81132 9.836C9.94899 9.61433 9.99216 9.38683 9.91982 9.21066C9.59316 8.41266 9.2556 7.61894 8.90716 6.8295C8.83832 6.67316 8.63416 6.56116 8.44866 6.539C8.38566 6.53122 8.32266 6.525 8.25966 6.52033C8.10301 6.51134 7.94593 6.5129 7.78949 6.525L8.02516 6.51683Z" fill="#FF6642"/>
</svg>
