<svg width="29" height="28" viewBox="0 0 29 28" fill="none" xmlns="http://www.w3.org/2000/svg">
<g clip-path="url(#clip0_52_1218)">
<path fill-rule="evenodd" clip-rule="evenodd" d="M14.5 4.66748C15.4975 4.66748 16.5207 4.69315 17.5124 4.73515L18.6837 4.79115L19.8049 4.85765L20.8549 4.92881L21.8139 5.00348C22.8548 5.08269 23.8343 5.52665 24.58 6.25718C25.3257 6.98771 25.7897 7.95794 25.8902 8.99698L25.9369 9.49281L26.0244 10.5545C26.106 11.6546 26.1667 12.854 26.1667 14.0008C26.1667 15.1476 26.106 16.347 26.0244 17.4471L25.9369 18.5088L25.8902 19.0046C25.7896 20.0439 25.3255 21.0142 24.5795 21.7448C23.8336 22.4753 22.8538 22.9192 21.8127 22.9981L20.856 23.0716L19.806 23.144L18.6837 23.2105L17.5124 23.2665C16.5088 23.3099 15.5045 23.3325 14.5 23.3341C13.4956 23.3325 12.4912 23.3099 11.4877 23.2665L10.3164 23.2105L9.19521 23.144L8.14521 23.0716L7.18621 22.9981C6.14532 22.9189 5.16577 22.475 4.42009 21.7444C3.67441 21.0139 3.21043 20.0437 3.10987 19.0046L3.06321 18.5088L2.97571 17.4471C2.88685 16.3005 2.83937 15.1509 2.83337 14.0008C2.83337 12.854 2.89404 11.6546 2.97571 10.5545L3.06321 9.49281L3.10987 8.99698C3.21039 7.95813 3.6742 6.98804 4.41965 6.25754C5.16509 5.52703 6.14436 5.08295 7.18504 5.00348L8.14287 4.92881L9.19287 4.85765L10.3152 4.79115L11.4865 4.73515C12.4905 4.69166 13.4952 4.6691 14.5 4.66748ZM12.1667 11.1716V16.83C12.1667 17.369 12.75 17.705 13.2167 17.4366L18.1167 14.6075C18.2233 14.5461 18.3119 14.4577 18.3735 14.3512C18.4351 14.2447 18.4675 14.1238 18.4675 14.0008C18.4675 13.8778 18.4351 13.7569 18.3735 13.6504C18.3119 13.5439 18.2233 13.4555 18.1167 13.3941L13.2167 10.5661C13.1103 10.5047 12.9895 10.4723 12.8666 10.4724C12.7437 10.4724 12.6229 10.5048 12.5165 10.5663C12.4101 10.6277 12.3217 10.7162 12.2603 10.8227C12.1989 10.9291 12.1666 11.0499 12.1667 11.1728V11.1716Z" fill="#001414"/>
</g>
<defs>
<clipPath id="clip0_52_1218">
<rect width="28" height="28" fill="white" transform="translate(0.5 0.000732422)"/>
</clipPath>
</defs>
</svg>
